<?xml version="1.0" standalone="no"?>
<!DOCTYPE svg PUBLIC "-//W3C//DTD SVG 1.1//EN" "http://www.w3.org/Graphics/SVG/1.1/DTD/svg11.dtd" >
<svg xmlns="http://www.w3.org/2000/svg" xmlns:xlink="http://www.w3.org/1999/xlink" version="1.1">
<metadata>
Created by FontForge 20150318 at Thu Nov 19 08:30:22 2015
 By uniteet7
Copyright (c) 2011, Huerta Tipografica (www.huertatipografica.com.ar), with Reserved Font Names "Andada", "Andada Pro" and "Andada HT"
</metadata>
<defs>
<font id="AndadaRegular" horiz-adv-x="560" >
  <font-face 
    font-family="AndadaRegular"
    font-weight="400"
    font-stretch="normal"
    units-per-em="1000"
    panose-1="2 0 0 0 0 0 0 0 0 0"
    ascent="800"
    descent="-200"
    x-height="497"
    cap-height="713"
    bbox="-64 -235 1096 942"
    underline-thickness="50"
    underline-position="-50"
    unicode-range="U+0020-FB02"
  />
<missing-glyph horiz-adv-x="230" 
 />
    <glyph glyph-name="fi" unicode="fi" horiz-adv-x="600" 
d="M328 440h-141v-273q0 -53 3 -74l4 -36l78 -6l-6 -55l-44 2q-54 2 -91.5 2t-69.5 -2l-26 -2l-5 51l66 10q1 9 5.5 34.5t4.5 45.5v303h-77l-3 42q10 3 28 8q39 12 52 21v86q0 80 45.5 126.5t130.5 46.5q22 0 44 -4.5t29 -5.5l-11 -135l-53 3v36q0 14 -13 53q-61 -2 -78 -45
q-13 -35 -13 -106l2 -72h261q21 0 30 1l16 2l6 -6l-4 -63q-3 -35 -3 -101v-160q0 -53 3 -74l4 -36l78 -6l-6 -55l-48 2q-56 2 -90.5 2t-66.5 -2l-26 -2l-5 51l66 10q1 9 5.5 34.5t4.5 45.5v211q0 15 -4.5 40.5t-5.5 39.5zM401 702.5q15 17.5 43.5 17.5t44 -17t15.5 -47.5
t-15 -47.5t-44 -17t-44 17t-15 47t15 47.5z" />
    <glyph glyph-name="fl" unicode="fl" horiz-adv-x="602" 
d="M106 511v86q0 80 45.5 126.5t130.5 46.5q32 0 84.5 -7t75 -7t40.5 2l16 2l6 -6l-4 -63q-3 -35 -3 -101v-423q0 -53 3 -74l4 -36l78 -6l-6 -55l-48 2q-58 2 -92 2t-66 -2l-27 -2l-5 51l66 10q1 9 5.5 34.5t4.5 45.5v483q0 15 -4.5 40.5t-5.5 39.5l-45 8q-56 9 -80 9
t-42 -7.5t-28 -19t-15 -33.5q-7 -31 -7 -91l2 -72h138l-5 -54h-135v-273q0 -53 3 -74l4 -36l78 -6l-6 -55l-44 2q-54 2 -91.5 2t-69.5 -2l-26 -2l-5 51l66 10q1 9 5.5 34.5t4.5 45.5v303h-77l-3 42q10 3 28 8q39 12 52 21z" />
    <glyph glyph-name="pez" unicode="pe&#x7a;" horiz-adv-x="1101" 
d="M457 414q-156 0 -314 -59q-11 -4 -64 -38l-48 -32l-26 32q179 179 452 179t452 -179l-26 -32l-48 32q-53 34 -64 38q-158 59 -314 59zM457 70q156 0 314 59q17 6 49.5 27.5t62.5 42.5l26 -32q-179 -179 -452 -179t-452 179l26 32q30 -21 62.5 -42.5t49.5 -27.5
q158 -59 314 -59zM261 322q30 0 47 -18.5t17 -50.5t-17 -51t-47 -19t-47 19t-17 50t17 50.5t47 19.5zM906 242l153 222l37 -25l-107 -197l107 -197l-37 -25z" />
    <glyph glyph-name=".notdef" horiz-adv-x="230" 
 />
    <glyph glyph-name=".null" horiz-adv-x="0" 
 />
    <glyph glyph-name="nonmarkingreturn" horiz-adv-x="333" 
 />
    <glyph glyph-name="space" unicode=" " horiz-adv-x="230" 
 />
    <glyph glyph-name="exclam" unicode="!" horiz-adv-x="229" 
d="M173 7.5q-15 -17.5 -43.5 -17.5t-44 17t-15.5 47.5t15 47.5t44 17t44 -17t15 -47t-15 -47.5zM189 713q-26 -286 -26 -435q0 -37 1 -54l2 -31l-7 -6l-12 2q-14 2 -26 2l-21 -1q-3 -1 -9 -1l-4 3v21l1 43l-4 457l4 3q4 -1 11 -1h19q19 0 43 2l21 3z" />
    <glyph glyph-name="quotedbl" unicode="&#x22;" horiz-adv-x="299" 
d="M35 756h89l-13 -243l-58 3l1 94q-5 45 -10 80zM175 756h89l-13 -243l-58 3l1 94q-5 45 -10 80z" />
    <glyph glyph-name="numbersign" unicode="#" 
d="M385 219l132 2v-71h-143l-26 -165l-60 10l24 155h-110l-26 -165l-60 10l24 155h-118v66l129 1l19 121l-128 -1v71h139l26 164l60 -10l-25 -154h111l26 164l60 -10l-25 -154h123v-66l-133 -2zM231 339l-19 -121l111 1l19 121z" />
    <glyph glyph-name="dollar" unicode="$" horiz-adv-x="511" 
d="M224 -9q-104 6 -179 48l15 150l62 -6l-1 -54q0 -8 10 -58q47 -19 96 -23l10 244l-30 14q-70 32 -114 75.5t-44 117.5t55.5 118t145.5 44h2l4 98l34 -3l-4 -97q55 -5 147 -28l-15 -144l-54 6l1 47q0 10 -13 49q-33 13 -68 18l-10 -228l29 -15q40 -22 60 -35t49 -38
q54 -48 54 -127t-58 -125.5t-149 -48.5l-3 -82l-35 3zM339.5 80q28.5 28 28.5 72.5t-25 71t-73 51.5l-9 -227q50 4 78.5 32zM171.5 583q-29.5 -26 -29.5 -68t25.5 -68t73.5 -51l9 213h-3q-46 0 -75.5 -26z" />
    <glyph glyph-name="ampersand" unicode="&#x26;" horiz-adv-x="725" 
d="M395 514l1 26q0 9 -4.5 25t-5.5 23q-34 25 -79 25t-71 -24.5t-26 -66.5q0 -63 71.5 -147t198.5 -199q16 42 16 103q0 15 -4.5 32.5t-5.5 27.5l-67 9l5 53l21 -3q26 -2 70.5 -2t119.5 10l5 -55l-73 -12l-3 -17q-3 -18 -3 -55q0 -73 -32 -135l30 -28q5 -5 64 -48l72 -5
l-6 -55l-26 2q-34 2 -60 2t-44 -2l-17 -2l-21 38l-37 36q-80 -80 -208 -80q-96 0 -161 54.5t-65 145.5q0 123 125 196q-53 75 -53 141.5t49.5 100.5t127.5 34t163 -31l-13 -140l-55 3q0 13 1 20zM441 112q-159 146 -230 226q-72 -55 -72 -141q0 -63 38.5 -105t99.5 -42
q107 0 164 62z" />
    <glyph glyph-name="quotesingle" unicode="'" horiz-adv-x="159" 
d="M35 756h89l-13 -243l-58 3l1 94q-5 45 -10 80z" />
    <glyph glyph-name="parenleft" unicode="(" horiz-adv-x="271" 
d="M132 317q0 -156 59 -314q6 -17 27.5 -49.5t42.5 -62.5l-32 -26q-179 179 -179 452t179 452l32 -26q-21 -30 -42.5 -62.5t-27.5 -49.5q-59 -158 -59 -314z" />
    <glyph glyph-name="parenright" unicode=")" horiz-adv-x="271" 
d="M140 317q0 156 -59 314q-4 11 -38 64l-32 48l32 26q179 -179 179 -452t-179 -452l-32 26l32 48q34 53 38 64q59 158 59 314z" />
    <glyph glyph-name="asterisk" unicode="*" horiz-adv-x="409" 
d="M342 510l-17 -6l-104 84l5 -55q5 -18 19 -46l15 -30l-83 -11l-13 12l21 132l-46 -32q-7 -6 -31 -39l-18 -28l-51 66l3 18l125 47l-50 24q-20 5 -49 7l-33 2l32 77l17 6l103 -85l-4 56q-5 18 -19 46l-15 30l83 11l13 -12l-21 -132l46 32q4 3 30 39l19 28l51 -66l-3 -18
l-126 -48l51 -23q14 -5 48 -7l34 -2z" />
    <glyph glyph-name="plus" unicode="+" 
d="M314 220l3 -220h-75v220l-220 -2v75h220v218h70l2 -218h223v-70z" />
    <glyph glyph-name="comma" unicode="," horiz-adv-x="220" 
d="M105 -10q-26 2 -40.5 22t-14.5 49t16.5 48.5t45.5 19.5q63 0 63 -89q0 -60 -34.5 -111.5t-96.5 -64.5l-10 32q71 31 71 94z" />
    <glyph glyph-name="hyphen" unicode="-" horiz-adv-x="282" 
d="M32 216l-2 75h222l-5 -75h-215z" />
    <glyph glyph-name="period" unicode="." horiz-adv-x="213" 
d="M104 129q30 0 47 -18.5t17 -50.5t-17 -51t-47 -19t-47 19t-17 50t17 50.5t47 19.5z" />
    <glyph glyph-name="slash" unicode="/" horiz-adv-x="376" 
d="M71 -67l-64 20l311 820l63 -20z" />
    <glyph glyph-name="zero" unicode="0" 
d="M40 326q0 147 59 241.5t181 94.5t181 -94.5t59 -241.5t-59 -241.5t-181 -94.5t-181 94.5t-59 241.5zM421 326q0 276 -141 276t-141 -276t141 -276t141 276z" />
    <glyph glyph-name="one" unicode="1" horiz-adv-x="424" 
d="M77 465l-27 42l61 48q29 22 50 39.5t25 20t18 19.5q25 30 30 38l47 -12l-4 -98q-3 -52 -3 -136v-259q0 -53 3 -74l4 -36l83 -6l-6 -55l-55 2q-64 2 -98.5 2t-72.5 -2l-33 -2l-5 49l87 12q1 9 5.5 34.5t4.5 45.5v387z" />
    <glyph glyph-name="two" unicode="2" horiz-adv-x="530" 
d="M465 -3l-130 3h-276l-14 73q25 25 75 71.5t75.5 71.5t61.5 66t54 71q46 77 46 144q0 45 -34.5 77t-81 32t-89.5 -21q-10 -27 -10 -49l2 -45l-55 -3l-13 145q81 29 172.5 29t147.5 -42t56 -123q0 -55 -19.5 -104.5t-69 -105.5t-83.5 -87q-81 -77 -142 -127h188q4 0 84 8
q14 31 14 35l5 47l55 -4l-9 -152z" />
    <glyph glyph-name="three" unicode="3" horiz-adv-x="530" 
d="M226 289l-69 -3l-14 48q103 14 148 51.5t45 96.5q0 126 -108 126q-48 0 -80 -23q-9 -36 -9 -49l2 -45l-55 -3l-13 145q87 29 158 29q95 0 147 -45t52 -132q0 -106 -119 -150q66 -17 106.5 -59.5t40.5 -105t-35.5 -113t-92.5 -83.5q-111 -62 -256 -79l-16 46
q112 21 201 72q47 27 75.5 67t28.5 91.5t-38.5 84.5t-98.5 33z" />
    <glyph glyph-name="four" unicode="4" horiz-adv-x="537" 
d="M323 399l78 27v-164l64 4l28 2v-67h-92v-34q0 -53 3 -74l4 -36l83 -6l-6 -55l-56 2q-64 2 -99 2t-77 -2l-37 -2l-5 49l102 12q1 9 5.5 34.5t4.5 45.5v64h-259l-44 53l360 485l69 -51q-44 -46 -60.5 -65t-34.5 -39q-39 -42 -44 -50l-187 -280h129q39 0 71 3v142z" />
    <glyph glyph-name="five" unicode="5" horiz-adv-x="516" 
d="M351 218q0 58 -37 98.5t-91.5 40.5t-117.5 -16l-37 21q4 93 13 190l9 95l5 5h81l223 10l6 -67q-51 -7 -125 -15t-83 -8h-44l-7 -47q-8 -56 -9 -113q42 11 91 11q100 0 159 -52.5t59 -148.5q0 -66 -31.5 -124t-84.5 -98q-108 -83 -251 -105l-16 46q127 38 202 95
q86 66 86 182z" />
    <glyph glyph-name="six" unicode="6" horiz-adv-x="542" 
d="M293 403q93 0 151 -56.5t58 -148t-64 -150.5t-165.5 -59t-162 70.5t-60.5 186.5q0 166 104 309q51 70 134 121.5t187 70.5l11 -46q-94 -28 -163 -78.5t-107 -114.5q-72 -122 -72 -262q0 -81 35 -140.5t97.5 -59.5t96.5 44.5t34 105.5t-34 104.5t-89 43.5q-29 0 -64 -5
l-6 48q42 16 79 16z" />
    <glyph glyph-name="seven" unicode="7" horiz-adv-x="530" 
d="M95 661q92 -9 130 -9h262l16 -39l-286 -718l-78 25l214 502q8 20 44 157h-163q-47 0 -85 -6q-13 -28 -14 -34l-5 -50l-55 4l10 158z" />
    <glyph glyph-name="eight" unicode="8" horiz-adv-x="530" 
d="M98.5 420q-31.5 40 -31.5 107t58 111t139.5 44t140 -44t58.5 -119q0 -53 -36.5 -97.5t-85.5 -73.5q67 -36 105.5 -79t38.5 -107q0 -83 -63 -127.5t-157 -44.5t-157 44.5t-63 129.5q0 101 141 183q-56 33 -87.5 73zM136 164q0 -57 36 -92t91 -35t93 34.5t38 88.5
q0 37 -28 74q-17 23 -73 56q-11 6 -46 26q-2 0 -9 4q-102 -73 -102 -156zM376 519q0 50 -31.5 83t-78 33t-79.5 -33.5t-33 -78.5q0 -52 38 -86q40 -35 101 -65l1 -1q82 63 82 148z" />
    <glyph glyph-name="nine" unicode="9" horiz-adv-x="545" 
d="M254 248q-94 0 -154 55t-60 146.5t63.5 152t166 60.5t164 -72t61.5 -189q0 -168 -99 -311q-48 -71 -130.5 -123t-188.5 -74l-12 45q94 30 162 82.5t103 117.5q67 120 67 263q0 81 -35.5 142.5t-98 61.5t-94.5 -45t-32 -107.5t35 -104t83.5 -41.5t69.5 3l7 -47
q-35 -15 -78 -15z" />
    <glyph glyph-name="colon" unicode=":" horiz-adv-x="203" 
d="M55 454.5q15 17.5 43.5 17.5t44 -17t15.5 -47.5t-15 -47.5t-44 -17t-44 17t-15 47t15 47.5zM55 101.5q15 17.5 43.5 17.5t44 -17t15.5 -47.5t-15 -47.5t-44 -17t-44 17t-15 47t15 47.5z" />
    <glyph glyph-name="semicolon" unicode=";" horiz-adv-x="220" 
d="M67 454.5q15 17.5 43.5 17.5t44 -17t15.5 -47.5t-15 -47.5t-44 -17t-44 17t-15 47t15 47.5zM105 -10q-26 2 -40.5 22t-14.5 49t16.5 48.5t45.5 19.5q63 0 63 -89q0 -60 -34.5 -111.5t-96.5 -64.5l-10 32q71 31 71 94z" />
    <glyph glyph-name="less" unicode="&#x3c;" 
d="M102 247l302 266l53 -53l-253 -212l254 -210l-53 -53z" />
    <glyph glyph-name="equal" unicode="=" 
d="M507 312l-455 -5v71h455v-66zM52 185l455 5v-71h-455v66z" />
    <glyph glyph-name="greater" unicode="&#x3e;" 
d="M156 513l302 -266l-303 -262l-53 53l254 210l-253 212z" />
    <glyph glyph-name="question" unicode="?" horiz-adv-x="403" 
d="M204 7.5q-15 -17.5 -43.5 -17.5t-44 17t-15.5 47.5t15 47.5t44 17t44 -17t15 -47t-15 -47.5zM316 511q0 67 -33 113t-103 46q-46 0 -82 -30q-7 -18 -7 -54l2 -36l-58 -3l-12 141q85 39 157 39q112 0 171 -59t59 -156.5t-54 -155t-159 -62.5l6 -98l-8 -10l-26 3
q-39 3 -56 0l-3 143l29 26q18 -6 41 -6q70 0 103 46t33 113z" />
    <glyph glyph-name="at" unicode="@" horiz-adv-x="912" 
d="M461 667l36 -1l36 -3l34 -6q69 -12 120 -40q2 -1 6.5 -3t8.5 -4q17 -13 23 -16l35 -27q1 -2 3 -3.5t7 -6.5l10 -11q3 -2 14.5 -16.5t20.5 -29.5l8 -12q6 -12 15 -29q17 -34 20.5 -57.5t5.5 -29.5l3 -16q5 -35 5 -69v-11q-4 -105 -68.5 -184.5t-176.5 -93.5l-25 -3l-9 5
l-14 79q-5 -10 -18 -25l-16 -16q-18 -15 -38 -24l-9 -5l-14 -6l-21 -6l-15 -3q-1 -1 -6 -1l-10 -2h-6q-5 -1 -18 -1q-38 0 -64 13q-28 12 -48 42l-3 4l-9 18l-3 10l-2 6l-2 10l-1 12q-1 3 -1 12v21l6 27q6 13 9 19q21 35 65 52l29 9l6 2q13 3 81 16l20 3q15 3 39 6
q29 4 39 6v44q-2 35 -4 42.5t-2 9.5l-6 18q-8 21 -17 30q-4 6 -12 11q-8 7 -19 10t-13 4l-10 1q-3 1 -11 1h-10l-16 -1l-17 -3q-6 0 -20 -4l-14 -4l-1 -1l-15 -6v-1q-1 -1 -1 -5l-1 -2l-3 -15l-3 -13v-2q-1 -4 -1 -9v-36l-58 -3l-11 135q42 10 63 14l23 3q7 2 31 4l10 1
l54 2h10q4 0 18 -2l25 -3q36 -8 58 -27l14 -14l8 -10l6 -11q26 -49 26 -145v-154q0 -22 2 -26l9 -63v-2h1q68 16 98.5 89t30.5 152v14l-1 15l-3 28q0 3 -2 13l-2 14q-11 47 -25 74l-5 11l-12 22q-20 32 -47 56l-18 16q-32 24 -52.5 33t-24.5 11l-25 8q-11 4 -13 4l-41 8
l-14 2q-12 0 -15 1h-15l-15 1q-14 0 -21 -1l-20 -1l-19 -2l-19 -4q-55 -11 -93 -35q-15 -8 -25 -17q-88 -65 -122 -213q-11 -59 -11 -119.5t8 -98.5l6 -34l2 -6q24 -97 88 -161q4 -4 12 -10q73 -60 192 -66l17 -1q33 0 141 26l58 14l3 -6q1 1 2 1h1l7 -20l3 -6h-1l2 -6
l-46 -18q-43 -18 -96 -32q-45 -15 -64 -15h-10q-112 0 -199 41l-20 10q-3 3 -8 4q-121 69 -167 222q-3 8 -7.5 26.5t-10.5 68.5l-3 30q-1 15 -1 43q0 78 18 143l9 31q9 23 11 29l7 15q21 46 50 80q1 1 13 14.5t19 19.5q9 8 38 32l14 9l15 8q22 12 31 16l17 7q42 16 92 24
l21 3q21 3 36 3.5t30 0.5zM365 149q-2 -12 -2 -23q0 -18 4.5 -30t5.5 -12l2 -3l5 -6l8 -7l4 -3q1 -2 9 -5q14 -6 35 -6h5h11q18 3 38 12q34 14 56 44l12 20q8 21 11 37v60l-2 -1q-5 0 -7 -1l-22 -3q-17 -2 -21 -4l-16 -2l-24 -5l-17 -3l-13 -3q-7 -3 -21 -5l-11 -3
q-32 -14 -41 -30l-3 -4z" />
    <glyph glyph-name="A" unicode="A" horiz-adv-x="686" 
d="M312 705l54 11l110 -286q24 -61 52 -136q60 -158 64 -166q8 -24 38 -74l51 -5l-3 -53l-69 2q-74 2 -93 2t-45 -2l-24 -2l-5 53l71 7q-7 49 -15 73l-40 104l-249 -3l-41 -115q-7 -31 -11 -58h1l78 -8l-6 -53l-62 2q-70 2 -94.5 2t-46.5 -2l-19 -2l-3 52l57 8
q55 101 56 105zM228 284q54 -2 77 -2t67.5 1.5t65.5 1.5l-109 284z" />
    <glyph glyph-name="B" unicode="B" horiz-adv-x="592" 
d="M135 705l194 10q85 0 143 -46.5t58 -118.5t-41 -118.5t-108 -61.5v-7q82 -13 130.5 -58.5t48.5 -127t-60.5 -134.5t-151.5 -53l-166 10h-32q-34 0 -72 -5l-41 -4l-7 57l77 9q1 9 5.5 34.5t4.5 45.5v431q0 15 -4.5 40.5t-5.5 39.5l-77 12l5 50l32 -3q38 -2 63 -2h5z
M215 655l-6 -117v-371q0 -75 6 -111q47 -7 107.5 -7t100 37t39.5 106.5t-53.5 107t-130.5 37.5h-12l7 57h8q67 0 110.5 36.5t43.5 98t-35.5 97t-88.5 35.5t-96 -6z" />
    <glyph glyph-name="C" unicode="C" horiz-adv-x="643" 
d="M602 170l6 -151q-144 -34 -229 -34q-162 0 -248 99t-86 267.5t86 268.5t248 100q81 0 161 -20q50 -12 59 -14l-11 -148l-61 4v47q0 16 -12 50q-76 23 -135 23q-110 0 -169 -86.5t-59 -222.5t59 -223t169 -87q68 0 144 22q15 43 16 56.5t1 26.5v20z" />
    <glyph glyph-name="D" unicode="D" horiz-adv-x="701" 
d="M321 -11l-202 10q-39 -2 -55 -5l-27 -3l-7 57l77 9q1 9 5.5 34.5t4.5 45.5v431q0 15 -4.5 40.5t-5.5 39.5l-77 12l5 50l32 -3q38 -2 63 -2h4q29 0 90 5t97 5q165 0 255 -97t90 -263.5t-92.5 -266t-252.5 -99.5zM209 167l6 -114q36 -4 107 -4q120 0 182.5 85t62.5 218
t-62.5 218t-182.5 85q-65 0 -107 -5q-6 -38 -6 -112v-371z" />
    <glyph glyph-name="E" unicode="E" horiz-adv-x="562" 
d="M351 337l-47 3h-53q-10 0 -42 -2v-171q0 -68 6 -110h144q41 0 87 8q14 19 21 38q1 8 7.5 34.5t7.5 32.5l55 -5l-15 -158l-10 -11l-54 2q-56 2 -69 2h-239q-34 0 -72 -5l-41 -4l-7 57l77 9q1 9 5.5 34.5t4.5 45.5v431q0 15 -4.5 40.5t-5.5 39.5l-77 12l5 50l28 -3
q32 -2 57 -2h256q26 0 123 10l10 -11l7 -143l-58 -5q-8 43 -12 56t-19 32q-38 5 -81 5h-131q-6 -40 -6 -111v-144q34 -2 42 -2h73q24 0 60 9l9 66l46 -5q-1 -12 -1 -33v-47q0 -52 1 -73l2 -36l-48 -6l-9 67z" />
    <glyph glyph-name="F" unicode="F" horiz-adv-x="541" 
d="M351 327l-47 3h-53q-8 0 -42 -2v-161q0 -55 9 -105l96 -7l-5 -59l-54 2q-62 2 -100.5 2t-76.5 -5l-41 -4l-7 57l77 9q1 9 5.5 34.5t4.5 45.5v431q0 15 -4.5 40.5t-5.5 39.5l-77 12l5 50l28 -3q32 -2 57 -2h256q26 0 123 10l10 -11l7 -143l-58 -5q-8 43 -12 56t-19 32
q-38 5 -81 5h-131q-6 -44 -6 -111v-154q34 -2 42 -2h73q24 0 60 9l9 66l46 -5q-1 -12 -1 -33v-47q0 -52 1 -73l2 -36l-48 -6l-9 67z" />
    <glyph glyph-name="G" unicode="G" horiz-adv-x="653" 
d="M618 330q-10 -105 -10 -164v-147q-144 -34 -229 -34q-162 0 -248 99t-86 267.5t86 268.5t248 100q81 0 161 -20q50 -12 59 -14l-11 -148l-58 6v45q0 15 -12 49q-81 24 -141 24q-112 0 -170.5 -86t-58.5 -223t58.5 -223.5t170.5 -86.5q64 0 139 20q12 46 12 65v68
q0 15 -4.5 40.5t-5.5 39.5l-86 8l5 57l49 -4q36 -4 68.5 -4t41.5 1l16 2z" />
    <glyph glyph-name="H" unicode="H" horiz-adv-x="749" 
d="M329 378l212 4v186q0 15 -4.5 40.5t-5.5 39.5l-77 8l5 54l32 -3q38 -2 82.5 -2t85.5 4l54 4l6 -59l-78 -6l-4 -36q-3 -21 -3 -74v-371q0 -53 3 -74l4 -36l78 -6l-6 -55l-54 2q-62 2 -96 2t-72 -2l-32 -2l-5 55l77 6q1 9 5.5 34.5t4.5 45.5v191l-332 -3v-158q0 -53 3 -74
l4 -36l78 -6l-6 -55l-48 2q-56 2 -94 2t-73 -5l-36 -4l-7 57l77 9q1 9 5.5 34.5t4.5 45.5v431q0 15 -4.5 40.5t-5.5 39.5l-77 12l5 50l32 -3q38 -2 82.5 -2t85.5 4l53 4l6 -59l-78 -6l-4 -36q-3 -21 -3 -74v-156q25 -4 120 -4z" />
    <glyph glyph-name="I" unicode="I" horiz-adv-x="343" 
d="M127 137v431q0 15 -4.5 40.5t-5.5 39.5l-77 9l5 53l32 -3q38 -2 82 -2t85 4l53 4l6 -59l-78 -6l-4 -36q-3 -21 -3 -74v-371q0 -53 3 -74l4 -36l78 -6l-6 -55l-53 2q-62 2 -95.5 2t-71.5 -2l-32 -2l-5 52l77 9q1 9 5.5 34.5t4.5 45.5z" />
    <glyph glyph-name="J" unicode="J" horiz-adv-x="343" 
d="M47 -178q80 170 80 189v557q0 15 -4.5 40.5t-5.5 39.5l-77 9l5 53l32 -3q38 -2 82 -2t85 4l53 4l6 -59l-78 -6l-4 -36q-3 -21 -3 -74v-548q0 -21 -69 -106q-24 -31 -68 -84z" />
    <glyph glyph-name="K" unicode="K" horiz-adv-x="680" 
d="M218 353l182 224l41 72l-54 8l5 53l30 -3q34 -2 77 -2t79 4l45 4l6 -59l-74 -6q-32 -28 -106 -102l-133 -176q16 -18 90.5 -106t116.5 -135q46 -46 82 -73l70 -5l-6 -55l-53 2q-62 2 -95.5 2t-71.5 -2l-32 -2l-5 52l45 5q-44 74 -73 111q-13 13 -44.5 49.5t-46.5 53.5z
M117 137v431q0 15 -4.5 40.5t-5.5 39.5l-77 9l5 53l32 -3q38 -2 82 -2t85 4l53 4l6 -59l-78 -6l-4 -36q-3 -21 -3 -74v-371q0 -53 3 -74l4 -36l78 -6l-6 -55l-53 2q-62 2 -95.5 2t-71.5 -2l-32 -2l-5 52l77 9q1 9 5.5 34.5t4.5 45.5z" />
    <glyph glyph-name="L" unicode="L" horiz-adv-x="516" 
d="M208 538v-371q0 -53 3 -74l4 -36h118q35 0 87 9q15 20 21 37q1 8 7.5 34.5t7.5 32.5l55 -5l-15 -158l-10 -11l-54 2q-56 2 -69 2h-233q-25 0 -63 -2l-32 -2l-5 52l77 9q1 9 5.5 34.5t4.5 45.5v431q0 15 -4.5 40.5t-5.5 39.5l-77 9l5 53l32 -3q38 -2 82 -2t85 4l53 4
l6 -59l-78 -6l-4 -36q-3 -21 -3 -74z" />
    <glyph glyph-name="M" unicode="M" horiz-adv-x="941" 
d="M716 57l5 105l-21 367l-227 -529h-37l-227 530l-18 -368q0 -19 2 -65l3 -40l78 -6l-6 -55l-44 2q-54 2 -87.5 2t-71.5 -2l-32 -2l-5 52l77 9q1 3 3.5 14t4.5 17.5t5 22t5 21.5l26 437q0 15 -4.5 40.5t-5.5 39.5l-76 8l5 56l47 -4q36 -4 62 -4t56 2l26 2l6 -6l23 -82
q26 -92 29 -100l157 -377l159 393q6 14 26.5 81t25.5 85l6 6l18 -2q22 -2 48.5 -2t59.5 4l45 4l6 -59l-78 -6l-3 -32q-3 -17 -3 -47l34 -437q1 -8 6.5 -29t8 -32t3.5 -14l77 -9l-5 -52l-33 2q-38 2 -72.5 2t-100.5 -2l-58 -2l-6 55z" />
    <glyph glyph-name="N" unicode="N" horiz-adv-x="764" 
d="M639 297l-1 -167v-137h-60l-394 563v-389q0 -53 3 -74l4 -36l78 -6l-6 -55l-36 2q-46 2 -82.5 2t-71.5 -5l-36 -4l-7 57l77 9q1 9 5.5 34.5t4.5 45.5v431q0 16 -4.5 43t-5.5 38l-76 8l5 53l42 -3q46 -2 68 -2t52 2l25 2l5 -6q15 -36 44.5 -99t37.5 -74l262 -367v395
q0 19 -4.5 47t-5.5 43l-77 8l5 54l32 -3q38 -2 81 -2t79 4l46 4l6 -59l-78 -6l-9 -41q-8 -48 -8 -79v-231z" />
    <glyph glyph-name="O" unicode="O" horiz-adv-x="746" 
d="M616.5 620q84.5 -100 84.5 -267.5t-84.5 -267.5t-243.5 -100t-243.5 100t-84.5 267.5t84.5 267.5t243.5 100t243.5 -100zM152 352q0 -138 57 -226t164 -88t164 88t57 226t-57 226.5t-164 88.5t-164 -88.5t-57 -226.5z" />
    <glyph glyph-name="P" unicode="P" horiz-adv-x="557" 
d="M136 705l184 10q106 0 164.5 -54t58.5 -155.5t-70.5 -158t-175.5 -56.5q-60 0 -88 1v-125q0 -55 9 -105l96 -7l-6 -59l-53 2q-62 2 -100.5 2t-76.5 -5l-41 -4l-7 57l77 9q1 9 5.5 34.5t4.5 45.5v431q0 15 -4.5 40.5t-5.5 39.5l-77 12l5 50l32 -3q38 -2 63 -2h6zM277 341
q80 0 126 41t46 120t-45.5 121t-125.5 42q-22 0 -62 -5v-2l-4 -41q-3 -24 -3 -79v-193q33 -4 68 -4z" />
    <glyph glyph-name="Q" unicode="Q" horiz-adv-x="751" 
d="M701 352q0 -134 -55.5 -226t-159.5 -125l87 -61q7 -6 70 -34t88 -38l-59 -92l-262 211q-24 -2 -37 -2q-159 0 -243.5 100t-84.5 267.5t84.5 267.5t243.5 100t243.5 -100t84.5 -268zM152 352q0 -138 57 -226t164 -88t164 88t57 226t-57 226.5t-164 88.5t-164 -88.5
t-57 -226.5z" />
    <glyph glyph-name="R" unicode="R" horiz-adv-x="617" 
d="M136 705l184 10q104 0 162 -50.5t58 -147.5q0 -69 -41.5 -117t-109.5 -68q79 -157 106 -201q0 -1 50 -72l67 -11l-4 -52l-37 2q-42 2 -57.5 2t-51.5 -4l-6 4q-40 91 -55 116l-104 204q-60 0 -88 1v-154q0 -52 3 -73l4 -36l68 -7l-6 -55l-38 2q-46 2 -85 2t-77 -5l-41 -4
l-7 57l77 9q1 9 5.5 34.5t4.5 45.5v431q0 15 -4.5 40.5t-5.5 39.5l-77 12l5 50l32 -3q38 -2 63 -2h6zM277 371q77 0 121.5 37.5t44.5 109.5t-44 109.5t-121 37.5q-22 0 -62 -5v-2l-4 -41q-3 -24 -3 -79v-164q25 -3 68 -3z" />
    <glyph glyph-name="S" unicode="S" horiz-adv-x="549" 
d="M349 263q-33 25 -75 46l-45 23l-6 2q-82 40 -127 84.5t-45 124t60.5 128.5t145.5 49t213 -32l-14 -147l-59 6v40q0 10 -14 56q-53 22 -110 22t-89.5 -29t-32.5 -82q0 -52 50 -90q35 -25 74.5 -44.5t41.5 -20.5q47 -24 74 -41t56 -42q57 -51 57 -140.5t-67 -140
t-160.5 -50.5t-171.5 26q-33 11 -60 27l15 154l66 -6v-48q0 -15 11 -66q63 -27 127 -27t99.5 32.5t35.5 90t-50 95.5z" />
    <glyph glyph-name="T" unicode="T" horiz-adv-x="606" 
d="M355 649l-6 -111v-371q0 -52 3 -73l4 -35l88 -8l-6 -55l-58 2q-66 2 -100 2t-72 -2l-32 -2l-5 52l77 9q1 9 5.5 34.5t4.5 45.5v431q0 12 -4 43.5t-6 37.5h-78q-47 -2 -67 -5q-18 -26 -20 -35.5t-10 -52.5l-58 5l7 143l10 11q97 -10 123 -10h296q26 0 123 10l10 -11
l7 -143l-58 -5q-8 43 -12 56t-19 32q-19 3 -66 5h-81z" />
    <glyph glyph-name="U" unicode="U" horiz-adv-x="749" 
d="M562 275v288q0 12 -5 41.5t-6 43.5l-76 8l5 54l24 -3q30 -2 78 -2t85 4l46 4l6 -59l-78 -6l-4 -39q-3 -23 -3 -76v-258q0 -132 -67 -211t-191.5 -79t-191.5 81t-67 214v283q0 18 -4.5 44.5t-5.5 40.5l-77 12l5 50l32 -3q38 -2 83.5 -2t86.5 4l54 4l6 -59l-78 -6l-4 -39
q-3 -23 -3 -76v-258q0 -100 45 -163t129 -63t130 63.5t46 162.5z" />
    <glyph glyph-name="V" unicode="V" horiz-adv-x="685" 
d="M386 0h-60l-226 559q-25 47 -50 88l-45 4l4 59l40 -3q46 -2 85.5 -2t76.5 3l39 4l2 -63l-70 -7q29 -112 31 -116l152 -375l144 427q4 19 10 66l-75 10l5 57l35 -3q19 -3 68.5 -3t87.5 3l39 4l1 -61l-60 -8q-47 -78 -51 -98l-183 -539v-6z" />
    <glyph glyph-name="W" unicode="W" horiz-adv-x="995" 
d="M330 167l151 529h46l182 -529l108 411q4 19 10 66l-73 10l5 57l35 -3q19 -3 68.5 -3t87.5 3l39 4l1 -61l-57 -7q-46 -73 -50 -99l-162 -545h-51l-180 507q-21 -69 -69 -240.5t-80 -266.5h-51l-196 559q-33 60 -49 88l-40 4l4 59l40 -3q46 -2 85.5 -2t76.5 3l39 4l2 -63
l-75 -7q25 -104 30 -116z" />
    <glyph glyph-name="X" unicode="X" horiz-adv-x="703" 
d="M5 51l57 4q7 8 48.5 52t51.5 57l133 194l-137 200l-64 86l-83 6l4 60l32 -3q38 -2 88 -2t81 3l53 4l2 -62l-49 -6q14 -42 43 -89l91 -132l101 155q9 12 34 67l-79 10l5 55l32 -3q38 -2 88 -2t81 3l54 4l4 -60l-73 -9q-48 -42 -75 -74l-134 -201l165 -236q22 -27 66 -76
l73 -8l-7 -57l-55 4q-53 5 -93 5t-74 -2l-29 -2l-6 55l57 4q-28 63 -47 87l-112 161l-115 -171q-13 -19 -38 -75l90 -9l-7 -57l-55 4q-53 5 -93 5t-74 -2l-29 -2z" />
    <glyph glyph-name="Y" unicode="Y" horiz-adv-x="645" 
d="M184 48l77 9q1 9 5.5 34.5t4.5 45.5v133l-152 289q-25 33 -74 88l-40 4l4 59l40 -3q46 -2 85.5 -2t76.5 3l39 4l2 -63l-63 -6q36 -100 45 -117l92 -180l118 232q5 10 24 68l-64 8l5 57l35 -3q19 -3 68.5 -3t87.5 3l39 4l1 -61l-68 -9l-76 -96l-132 -254v-125q0 -53 3 -74
l4 -36l78 -6l-6 -55l-53 2q-62 2 -96.5 2t-72.5 -2l-32 -2z" />
    <glyph glyph-name="Z" unicode="Z" horiz-adv-x="551" 
d="M61 715q98 -10 123 -10h331l7 -56q-84 -119 -109 -155l-186 -303l-70 -132h196q29 0 91 12q12 18 17 32l15 77l55 -5l-15 -168l-10 -11l-54 2q-56 2 -69 2h-356l-7 57l52 66q55 71 71 96l189 301l67 126h-185q-14 0 -86 -8q-14 -21 -15.5 -29t-5.5 -33.5t-5 -29.5l-58 5
l7 153z" />
    <glyph glyph-name="bracketleft" unicode="[" horiz-adv-x="265" 
d="M75 -108l10 198v461l-10 198l13 13q44 0 108 2l56 2l3 -43l-87 -12q-14 -56 -14 -110v-561q0 -54 14 -110l87 -12l-3 -43l-56 2q-64 2 -108 2z" />
    <glyph glyph-name="backslash" unicode="\" horiz-adv-x="398" 
d="M381 -47l-64 -20l-310 820l63 20z" />
    <glyph glyph-name="bracketright" unicode="]" horiz-adv-x="265" 
d="M180 551v-461q0 -27 5 -107l5 -91l-13 -13q-44 0 -108 -2l-56 -2l-3 43l87 12q4 24 7 36q7 49 7 74v561q0 25 -7 74q-3 12 -7 36l-87 12l3 43l56 -2q64 -2 108 -2l13 -13l-5 -92q-5 -78 -5 -106z" />
    <glyph glyph-name="asciicircum" unicode="^" 
d="M280 615l-207 -302l-63 44l270 371l270 -371l-63 -44z" />
    <glyph glyph-name="underscore" unicode="_" horiz-adv-x="504" 
d="M2 -232l-2 75h504l-5 -75h-497z" />
    <glyph glyph-name="grave" unicode="`" horiz-adv-x="241" 
d="M0 703l49 62l192 -160l-33 -41l-74 61q-14 7 -73 43z" />
    <glyph glyph-name="a" unicode="a" horiz-adv-x="513" 
d="M80 344l-11 135q90 24 182.5 24t128 -52t35.5 -160v-154q0 -23 10 -80l69 -5l-6 -56l-33 2q-46 2 -97 2l-14 79q-20 -37 -67.5 -63t-105.5 -26t-94.5 35.5t-36.5 92t29 85.5t73 40.5t192 34.5v33q0 138 -94 138q-55 0 -93 -19q-9 -45 -9 -47v-36zM128 128q0 -74 81 -74
q43 0 80 32t45 81v60q-5 -1 -57.5 -10t-85.5 -17q-63 -16 -63 -72z" />
    <glyph glyph-name="b" unicode="b" horiz-adv-x="549" 
d="M446 67.5q-63 -77.5 -166 -77.5t-197 36l4 47q4 33 4 63v484q0 15 -4.5 40.5t-5.5 39.5l-76 12l5 54q77 -10 103.5 -10t44.5 2l15 2l6 -6l-4 -64q-3 -35 -3 -101v-161q18 28 53.5 51.5t78.5 23.5q102 0 153.5 -67.5t51.5 -179t-63 -189zM172 167l6 -109q48 -12 95 -12
q76 0 111 58t35 150q0 188 -123 188q-60 0 -91.5 -45.5t-31.5 -112.5l-1 13v-130z" />
    <glyph glyph-name="c" unicode="c" horiz-adv-x="483" 
d="M167 109q33 -54 103.5 -54t139.5 36l28 -47q-19 -16 -46 -27q-52 -27 -123 -27q-111 0 -170 69t-59 187t59 187.5t171 69.5q36 0 61 -6q32 -8 96 -29l-10 -125l-58 3v36q0 8 -7 34q-36 30 -82 30q-70 0 -103 -58t-33 -141.5t33 -137.5z" />
    <glyph glyph-name="d" unicode="d" horiz-adv-x="561" 
d="M282 766q87 -10 114 -10t45 2l16 2l6 -6l-4 -63q-3 -35 -3 -101v-453q0 -23 10 -80l69 -5l-6 -56l-33 2q-46 2 -97 2l-13 81q-11 -28 -52 -59.5t-93 -31.5q-100 0 -150.5 72.5t-50.5 185t54 184t156 71.5q55 0 125 -24v141q0 15 -4.5 40.5t-5.5 39.5l-88 12zM248 54
q62 0 94.5 41.5t32.5 111.5v200q-56 35 -119 35t-93.5 -56.5t-30.5 -139.5q0 -50 9.5 -90.5t37 -71t69.5 -30.5z" />
    <glyph glyph-name="e" unicode="e" horiz-adv-x="475" 
d="M447 50q-72 -60 -180 -60t-167.5 69t-59.5 186t55.5 187t162.5 70q192 0 192 -232l-17 -33h-299q2 -74 37.5 -128t98.5 -54q81 0 149 41zM357 312l1 12q0 58 -25.5 92t-78.5 34q-103 0 -119 -162q189 16 222 16v8z" />
    <glyph glyph-name="f" unicode="f" horiz-adv-x="365" 
d="M106 511v86q0 80 45.5 126.5t130.5 46.5q32 0 61.5 -4.5t41.5 -5.5l-11 -135l-53 3v36q0 14 -13 51q-14 2 -33.5 2t-37.5 -7.5t-28 -19t-15 -33.5q-7 -31 -7 -91l2 -72h138l-5 -54h-135v-273q0 -52 3 -75l4 -37l99 -8l-6 -51l-55 2q-64 2 -101.5 2t-69.5 -2l-26 -2l-5 51
l66 10q1 9 5.5 34.5t4.5 45.5v303h-77l-3 42q10 3 28 8q39 12 52 21z" />
    <glyph glyph-name="g" unicode="g" horiz-adv-x="509" 
d="M247 141q-37 0 -68 9q-27 -34 -27 -43t8 -16t26.5 -11t35 -6t45.5 -5q126 -13 164 -26q45 -14 45 -93t-78.5 -132t-175.5 -53q-198 0 -198 145q0 31 93 100q-45 24 -45 74q0 21 71 81q-89 46 -89 157q0 84 54 132.5t139 48.5q55 0 100 -22l115 25l9 -51l-36 -12
q-6 -2 -25 -16q30 -43 30 -105q0 -84 -54 -132.5t-139 -48.5zM247 192q106 0 106 130t-106 130t-106 -130t106 -130zM383.5 -43.5q-7.5 8.5 -32 13.5t-102 14t-95.5 14q-44 -57 -44 -70q0 -60 35.5 -83t98.5 -23t105 27t42 76q0 23 -7.5 31.5z" />
    <glyph glyph-name="h" unicode="h" horiz-adv-x="604" 
d="M25 766q78 -10 103.5 -10t43.5 2l16 2l6 -6l-4 -63q-3 -35 -3 -101v-156q52 69 147.5 69t130 -56.5t34.5 -169.5v-110q0 -53 3 -74l4 -36l79 -6l-6 -55l-44 2q-54 2 -91.5 2t-69.5 -2l-27 -2l-5 51l66 10q1 9 5.5 34.5t4.5 45.5v174q0 58 -25.5 92.5t-79 34.5t-88 -39.5
t-38.5 -96.5v-135q0 -53 3 -74l4 -36l78 -6l-6 -55l-48 2q-56 2 -90.5 2t-66.5 -2l-26 -2l-5 51l66 10q1 9 5.5 34.5t4.5 45.5v483q0 15 -4.5 40.5t-5.5 39.5l-76 12z" />
    <glyph glyph-name="i" unicode="i" horiz-adv-x="299" 
d="M100 702.5q15 17.5 43.5 17.5t44 -17t15.5 -47.5t-15 -47.5t-44 -17t-44 17t-15 47t15 47.5zM32 503q70 -9 104 -9t43 1l16 2l6 -6l-4 -63q-3 -35 -3 -101v-160q0 -53 3 -74l4 -36l78 -6l-6 -55l-48 2q-56 2 -90 2t-72 -2l-32 -2l-5 49l77 12q1 9 5.5 34.5t4.5 45.5v220
q0 15 -4.5 40.5t-5.5 39.5l-76 12z" />
    <glyph glyph-name="j" unicode="j" horiz-adv-x="271" 
d="M28 -214q76 198 76 235v336q0 15 -4.5 40.5t-5.5 39.5l-76 12l5 54q70 -9 104 -9t43 1l16 2l6 -6l-4 -63q-3 -35 -3 -101v-337q0 -21 -42 -95t-79 -130zM91 702.5q15 17.5 43.5 17.5t44 -17t15.5 -47.5t-15 -47.5t-44 -17t-44 17t-15 47t15 47.5z" />
    <glyph glyph-name="k" unicode="k" horiz-adv-x="583" 
d="M25 766q78 -10 103.5 -10t43.5 2l16 2l6 -6l-4 -63q-3 -35 -3 -101v-423q0 -53 3 -74l4 -36l78 -6l-6 -55l-48 2q-56 2 -90.5 2t-66.5 -2l-26 -2l-5 51l66 10q1 9 5.5 34.5t4.5 45.5v483q0 15 -4.5 40.5t-5.5 39.5l-76 12zM395 55q-149 169 -196 210l167 175l-44 9l5 54
q70 -9 109 -9t59 3l38 4l5 -55l-60 -7q-85 -43 -109 -73l-82 -88l138 -149q26 -26 96 -74l57 -6l-4 -53l-53 2q-62 2 -96.5 2t-60.5 -2l-22 -2l-5 51z" />
    <glyph glyph-name="l" unicode="l" horiz-adv-x="295" 
d="M26 766q78 -10 104.5 -10t44.5 2l16 2l6 -6l-4 -63q-3 -35 -3 -101v-423q0 -53 3 -74l4 -36l78 -6l-6 -55l-48 2q-58 2 -92 2t-72 -2l-32 -2l-5 49l77 12q1 9 5.5 34.5t4.5 45.5v483q0 15 -4.5 40.5t-5.5 39.5l-76 12z" />
    <glyph glyph-name="m" unicode="m" horiz-adv-x="890" 
d="M408 137v174q0 127 -95 127q-50 0 -85 -51t-35 -113v-107q0 -53 3 -74l4 -36l75 -6l-6 -55l-43 2q-54 2 -90.5 2t-68.5 -2l-26 -2l-5 51l66 10q1 9 5.5 34.5t4.5 45.5v220q0 6 -5 34t-9 52l-72 12l5 51l31 -3q19 -3 50.5 -3t38.5 1l12 2l6 -6l13 -79q50 85 155 85
t135 -96q18 38 57 67t100 29q92 0 124 -56.5t32 -169.5v-110q0 -53 3 -74l4 -36l79 -6l-6 -55l-44 2q-54 2 -91 2t-67 -2l-26 -2l-5 51l62 10q1 9 5.5 34.5t4.5 45.5v174q0 127 -95 127q-49 0 -83.5 -48.5t-36.5 -109.5v-113q0 -53 3 -74l4 -36l75 -6l-6 -55l-42 2
q-54 2 -90 2t-66 -2l-26 -2l-5 51l62 10q1 9 5.5 34.5t4.5 45.5z" />
    <glyph glyph-name="n" unicode="n" horiz-adv-x="610" 
d="M26 455l5 51l31 -3q19 -3 50.5 -3t38.5 1l12 2l6 -6l13 -79q19 33 58 59t99 26q97 0 131.5 -56.5t34.5 -169.5v-110q0 -53 3 -74l4 -36l79 -6l-6 -55l-44 2q-54 2 -91.5 2t-69.5 -2l-27 -2l-5 51l66 10q1 9 5.5 34.5t4.5 45.5v174q0 58 -25.5 92.5t-79 34.5t-88 -39.5
t-38.5 -96.5v-135q0 -53 3 -74l4 -36l79 -6l-6 -55l-45 2q-54 2 -91.5 2t-69.5 -2l-26 -2l-5 51l66 10q1 9 5.5 34.5t4.5 45.5v220q0 6 -5 34t-9 52z" />
    <glyph glyph-name="o" unicode="o" horiz-adv-x="540" 
d="M441.5 434q58.5 -69 58.5 -187t-59.5 -187.5t-170.5 -69.5t-170.5 69.5t-59.5 187t59.5 187t171.5 69.5t170.5 -69zM406 246q0 87 -32 143.5t-104 56.5t-104 -56.5t-32 -143.5t32 -143t104 -56t104 56t32 143z" />
    <glyph glyph-name="p" unicode="p" horiz-adv-x="559" 
d="M15 455l5 51l31 -3q19 -3 51.5 -3t41.5 1l16 2l6 -6l9 -81q15 29 52.5 58t86.5 29q102 0 153.5 -67.5t51.5 -179t-63 -189t-167 -77.5q-57 0 -107 24v-77q0 -52 3 -73l4 -36l100 -9l-6 -54l-55 3q-44 4 -92 4t-80 -2l-26 -2l-5 49l67 10l4 32q5 28 5 48v450q0 6 -5 34
t-9 52zM306 442q-59 0 -90.5 -43.5t-33.5 -108.5v-204q51 -36 101 -36q76 0 111 57t35 147q0 188 -123 188z" />
    <glyph glyph-name="q" unicode="q" horiz-adv-x="542" 
d="M98.5 430.5q58.5 72.5 160.5 72.5t205 -36l-4 -48q-4 -33 -4 -62v-420q0 -53 3 -74l4 -36l69 -6l-6 -56l-40 3q-33 4 -78.5 4t-91.5 -2l-41 -2l-5 49l97 10l4 32q4 23 4 48v155q-20 -28 -55.5 -50t-78.5 -22q-100 0 -150.5 72.5t-50.5 184t58.5 184zM248 54
q62 0 94.5 41.5t32.5 111.5v119q0 4 -7 109q-50 12 -99 12q-67 0 -102 -59.5t-35 -141.5q0 -50 9.5 -90.5t37 -71t69.5 -30.5z" />
    <glyph glyph-name="r" unicode="r" horiz-adv-x="418" 
d="M193 284v-117q0 -53 3 -74l4 -36l99 -8l-6 -53l-55 2q-64 2 -101.5 2t-69.5 -2l-26 -2l-5 51l66 10q1 9 5.5 34.5t4.5 45.5v220q0 6 -5 34t-9 52l-72 12l5 51l31 -3q19 -3 50.5 -3t38.5 1l12 2l6 -6l15 -88q57 94 161 94q28 0 48 -5l20 -5l-10 -165l-57 3l-1 53
q0 8 -14 50q-70 0 -102.5 -37.5t-35.5 -112.5z" />
    <glyph glyph-name="s" unicode="s" horiz-adv-x="417" 
d="M203 -10q-93 0 -165 39l11 136l58 -3v-38q0 -12 14 -60q28 -23 85 -23q91 0 91 76q0 29 -26.5 50.5t-63.5 38t-74.5 35t-64 51.5t-26.5 78q0 62 45.5 97.5t119 35.5t147.5 -17l-12 -143l-58 3v36q0 11 -14 57q-28 12 -66 12t-60 -17.5t-22 -46.5t26.5 -50.5t64 -38
t75.5 -35t64.5 -51t26.5 -76.5q0 -146 -176 -146z" />
    <glyph glyph-name="t" unicode="t" horiz-adv-x="342" 
d="M230 54q36 0 79 29l28 -41q-67 -52 -120 -52q-69 0 -98 40t-29 126v284h-77l-3 42q10 3 28 8q39 12 52 21q1 1 26 49l20 41l40 -4v-103h140l-5 -54h-135v-308q0 -78 54 -78z" />
    <glyph glyph-name="u" unicode="u" horiz-adv-x="589" 
d="M24 503q61 -9 94.5 -9t42.5 1l16 2l6 -6l-4 -63q-3 -35 -3 -101v-144q0 -129 101 -129q57 0 90.5 44t35.5 106v153q0 15 -4.5 40.5t-5.5 39.5l-86 12l5 51l48 -3q27 -3 63.5 -3t45.5 1l16 2l6 -6l-4 -63q-3 -35 -3 -101v-190q0 -23 10 -80l69 -5l-6 -56l-33 2
q-46 2 -97 2l-13 77q-50 -87 -155 -87q-101 0 -134 64q-30 57 -30 163v140q0 15 -4.5 40.5t-5.5 39.5l-66 12z" />
    <glyph glyph-name="v" unicode="v" horiz-adv-x="547" 
d="M10 503q70 -9 108 -9t57 3l34 4l5 -55l-57 -7l29 -90l102 -246l95 248q2 5 11.5 37t15.5 51l-66 10l5 54q70 -9 107 -9t53 3l29 3l4 -54l-44 -6q-51 -95 -59 -121l-128 -319h-67l-71 164q-69 152 -75 172.5t-53 104.5l-40 8z" />
    <glyph glyph-name="w" unicode="w" horiz-adv-x="800" 
d="M5 503q63 -9 104 -9t60 3l35 4l5 -55l-57 -7l27 -90l85 -244l125 389h40l137 -389l78 246q5 27 22 88l-64 10l5 54q70 -9 107 -9t53 3l29 3l4 -54l-52 -7q-48 -104 -50 -120l-107 -319h-67l-125 324l-109 -324h-67l-64 164q-65 166 -69.5 181t-42.5 95l-47 9z" />
    <glyph glyph-name="x" unicode="x" horiz-adv-x="541" 
d="M20 503q70 -9 109 -9t59 3l38 4l5 -55l-48 -6q26 -44 32 -53l59 -85l55 85q4 7 14.5 27t15.5 28l-43 7l5 54q70 -9 108 -9t54 3l29 3l4 -54l-72 -9q-12 -14 -26.5 -31.5t-28.5 -33.5t-16 -19l-62 -95l81 -109q16 -24 94 -95l50 -7l-5 -56l-45 4q-42 5 -71 5t-56 -4
l-37 -3l-5 55l43 5q-19 37 -36 62l-62 86l-60 -86q-3 -4 -37 -64l45 -6l-5 -54l-47 4q-45 5 -77 5l-44 -3l-28 -3l-4 54l64 8q74 74 86 93l68 97l-78 107l-77 86l-53 10z" />
    <glyph glyph-name="y" unicode="y" horiz-adv-x="539" 
d="M341 503q70 -9 107 -9t53 3l29 3l4 -54l-38 -5q-58 -117 -60 -122l-126 -319l-84 -235l-163 11l8 58q5 -1 16 -1h24q16 0 66 12q32 48 39 66l28 80l-148 353q-4 13 -51 97l-40 8l5 54q70 -9 108.5 -9t57.5 3l35 4l5 -55l-62 -8q16 -56 27 -89l102 -253l92 255
q15 44 26 88l-65 10z" />
    <glyph glyph-name="z" unicode="z" horiz-adv-x="457" 
d="M403 -3l-118 3h-243l-7 58l42 47q42 46 53 63l125 184q40 70 50 90h-122q-7 0 -53 -6q-24 -48 -24 -62l-4 -35l-58 4l6 146l8 8l44 -2q23 -1 60 -1h242l7 -58l-18 -22q-49 -60 -68 -87l-123 -185q-12 -14 -50 -90h125q11 0 59 6q20 41 22 52q4 20 6 39l58 -6l-9 -136z
" />
    <glyph glyph-name="braceleft" unicode="{" horiz-adv-x="272" 
d="M176 284l-9 -244q0 -30 4 -63l4 -47l87 -12l-3 -43l-59 2q-70 2 -110 2l-13 13l15 139q15 144 15 230q-8 13 -34.5 29t-37.5 16l4 29q9 0 35 15.5t33 29.5q0 85 -15 229l-15 140l13 13q40 0 110 2l59 2l3 -43l-87 -12l-4 -48q-4 -33 -4 -62l9 -244q-1 0 -36 -23l-20 -9
v-9l20 -9q35 -23 36 -23z" />
    <glyph glyph-name="bar" unicode="|" horiz-adv-x="275" 
d="M175 -122l-75 9l7 873l65 -8z" />
    <glyph glyph-name="braceright" unicode="}" horiz-adv-x="272" 
d="M96 357l9 244q0 29 -4 62l-4 48l-87 12l3 43l59 -2q70 -2 110 -2l13 -13q-9 -71 -19.5 -177.5t-10.5 -191.5q7 -14 33 -29.5t35 -15.5l4 -29q-11 0 -37.5 -16t-34.5 -29q0 -86 10.5 -193.5t19.5 -175.5l-13 -13q-40 0 -110 -2l-59 -2l-3 43l87 12l4 47q4 33 4 63l-9 244
q11 9 35 23l21 9v9l-21 9q-24 14 -35 23z" />
    <glyph glyph-name="asciitilde" unicode="~" 
d="M284 287q92 -30 118 -30t71 55l40 -33q-21 -33 -36 -52q-40 -52 -72 -52t-126 30t-116.5 30t-50.5 -28l-25 -27l-40 33q21 33 36 52q40 52 74.5 52t126.5 -30z" />
    <glyph glyph-name="exclamdown" unicode="&#xa1;" horiz-adv-x="229" 
d="M56 485.5q15 17.5 43.5 17.5t44 -17t15.5 -47.5t-15 -47.5t-44 -17t-44 17t-15 47t15 47.5zM66 207l-3 93l7 6l11 -2q14 -2 27 -2q24 0 30 2l4 -3q-1 -7 -1 -21v-43l4 -465l-4 -3h-11l-19 1q-7 0 -43 -3l-21 -2l-7 7q5 49 13 159q13 231 13 276z" />
    <glyph glyph-name="cent" unicode="&#xa2;" horiz-adv-x="483" 
d="M275 132q73 0 135 36l28 -47q-20 -17 -45 -27q-60 -27 -121 -27l-4 -109l-35 3l4 107q-98 11 -147.5 78t-49.5 179.5t56 181.5t162 73l5 109l34 -3l-4 -107q37 -2 134 -34l-10 -125l-58 3v36q0 8 -7 34q-29 24 -62 29zM163.5 459q-29.5 -57 -29.5 -133t26 -128t80 -63
l16 387q-63 -6 -92.5 -63z" />
    <glyph glyph-name="sterling" unicode="&#xa3;" horiz-adv-x="571" 
d="M52 267l-2 35l102 4v72l-105 -5l-2 35l107 4v123q0 88 55.5 136.5t145.5 48.5q68 0 188 -32l-14 -147l-59 6v40q0 15 -12 56q-47 22 -102 22t-83 -29t-28 -82v-138l212 10l2 -34l-214 -10v-72l217 10l2 -34l-219 -10v-109q0 -53 3 -74l4 -36h128q35 0 87 9q15 20 21 37
q1 8 7.5 34.5t7.5 32.5l55 -5l-15 -158l-10 -11l-54 2q-56 2 -69 2h-254q-24 0 -62 -2l-32 -2l-5 52l77 9q20 56 20 80v134z" />
    <glyph glyph-name="yen" unicode="&#xa5;" horiz-adv-x="645" 
d="M114 232l-2 35l157 7l-150 285q-25 33 -74 88l-40 4l4 59l40 -3q46 -2 85.5 -2t76.5 3l39 4l2 -63l-63 -6q36 -100 45 -117l92 -180l118 232q5 10 24 68l-64 8l5 57l35 -3q19 -3 68.5 -3t87.5 3l39 4l1 -61l-68 -9l-76 -96l-132 -254v-14l160 7l1 -34l-161 -8v-71l163 7
l2 -34l-165 -8q2 -46 4 -55l3 -25l78 -6l-6 -55l-53 2q-62 2 -96.5 2t-72.5 -2l-32 -2l-5 52l77 9q6 32 10 76l-154 -7l-1 35l155 7v71z" />
    <glyph glyph-name="brokenbar" unicode="&#xa6;" horiz-adv-x="255" 
d="M163 392l-69 8l3 360l65 -8zM92 212l72 -7l1 -327l-75 9z" />
    <glyph glyph-name="section" unicode="&#xa7;" horiz-adv-x="549" 
d="M398.5 -73.5q-55.5 -41.5 -150.5 -41.5t-171 44l12 136l55 -5v-39q0 -11 9 -54q51 -22 100.5 -22t74.5 23.5t25 67.5q0 32 -25 62q-9 10 -32 24q-26 16 -73 39q-70 31 -110.5 66t-40.5 86q0 25 19 53t43 45l28 -17q-16 -20 -16 -41t9 -37t28.5 -30t35.5 -23t46 -23
t54 -26t44 -25t44 -34q47 -41 47 -114t-55.5 -114.5zM384 209l-29 17q18 21 18 43.5t-9.5 39t-28.5 29.5t-36.5 22t-46 21.5t-44.5 20.5q-64 29 -102.5 67.5t-38.5 104t50 106t120 40.5t174 -26l-12 -131l-47 5v33q0 12 -12 45q-44 19 -87.5 19t-66 -21.5t-22.5 -59.5
q0 -55 82 -98q32 -18 82 -43.5t74 -46.5q43 -37 43 -88q0 -25 -18.5 -53.5t-42.5 -45.5z" />
    <glyph glyph-name="dieresis" unicode="&#xa8;" horiz-adv-x="348" 
d="M56 713q54 0 54 -59.5t-54 -59.5t-54 59q0 28 14 44t40 16zM292 713q54 0 54 -59.5t-54 -59.5t-54 59q0 28 14 44t40 16z" />
    <glyph glyph-name="copyright" unicode="&#xa9;" horiz-adv-x="845" 
d="M521 116l1 19v14l42 1l3 -101q-89 -20 -137 -20q-100 0 -152.5 59.5t-52.5 160.5t53 161t152 60q43 0 132 -20l-7 -99l-41 3v32q0 7 -7 28q-38 11 -76 11q-61 0 -94 -48.5t-33 -126.5t33 -127t94 -49q45 0 81 10q9 20 9 32zM686.5 514q108.5 -108 108.5 -262t-109.5 -264
t-263.5 -110t-263 107.5t-109 263t109.5 264.5t264 109t263 -108zM649.5 23q93.5 94 93.5 226t-94.5 227t-227 95t-226.5 -93.5t-94 -226.5t94.5 -227.5t227.5 -94.5t226.5 94z" />
    <glyph glyph-name="ordfeminine" unicode="&#xaa;" horiz-adv-x="337" 
d="M48 608l-8 91q60 16 124 16t88 -34.5t24 -107.5v-97q0 -20 3 -31l4 -21l49 -5l-5 -43l-25 2q-32 2 -70 2l-9 56q-14 -25 -44 -44t-69 -19t-64.5 23t-25.5 64q0 65 75 84q20 6 67 13.5t51 8.5v14q0 95 -57 95q-27 0 -58 -14l-4 -16q-3 -12 -3 -13v-22zM129 420q33 0 56 20
t28 53v34q-54 -9 -89 -16q-38 -10 -38 -47q0 -44 43 -44z" />
    <glyph glyph-name="guillemotleft" unicode="&#xab;" horiz-adv-x="416" 
d="M25 242l153 222l37 -25l-107 -197l107 -197l-37 -25zM188 242l150 218l36 -25l-104 -193l104 -193l-36 -25z" />
    <glyph glyph-name="logicalnot" unicode="&#xac;" 
d="M52 307h455v-238h-71l2 171l-386 -4v71z" />
    <glyph glyph-name="registered" unicode="&#xae;" horiz-adv-x="845" 
d="M686.5 514q108.5 -108 108.5 -262t-109.5 -264t-263.5 -110t-263 107.5t-109 263t109.5 264.5t264 109t263 -108zM649.5 23q93.5 94 93.5 226t-94.5 227t-227 95t-226.5 -93.5t-94 -226.5t94.5 -227.5t227.5 -94.5t226.5 94zM306 86l3 29v254l-5 44l-43 6l3 35l19 -2
q11 -1 38 -1h4l110 6q65 0 101 -30t36 -89q0 -41 -24.5 -69.5t-65.5 -41.5q29 -59 52 -101l11 -19l28 -39l39 -6l-4 -36q-15 0 -22 1l-42 1l-28 -2l-4 2l-14 30q-13 29 -19 40l-62 122q-32 0 -43 1v-88q0 -20 2 -44l2 -21l42 -4l-5 -38q-14 0 -22 1l-60 1q-5 0 -44 -3
l-23 -2l-6 39l43 5zM387 256h23q44 -1 69 20.5t25 62.5t-25 62t-69 21q-22 0 -33 -3v-1l-2 -23q-1 -13 -1 -44v-94q5 -1 13 -1z" />
    <glyph glyph-name="macron" unicode="&#xaf;" horiz-adv-x="333" 
d="M2 626v53h322l-5 -53h-317z" />
    <glyph glyph-name="degree" unicode="&#xb0;" horiz-adv-x="360" 
d="M331 517q0 -69 -40.5 -109t-110 -40t-110 40t-40.5 109t40.5 109t110 40t110 -40t40.5 -109zM107 517q0 -43 18.5 -70.5t55.5 -27.5t55 28t18 70t-18 70t-55 28t-55.5 -27.5t-18.5 -70.5z" />
    <glyph glyph-name="plusminus" unicode="&#xb1;" 
d="M312 304l2 -195h-70v194l-192 -2v70h192v191h65l2 -191h196v-65zM52 66l455 5v-71h-455v66z" />
    <glyph glyph-name="twosuperior" unicode="&#xb2;" horiz-adv-x="325" 
d="M191 372l38 4l2 11q3 12 3 14l2 33l49 -2l-5 -103l-5 -5q-23 0 -34 1l-43 1h-151l-7 41q12 12 38.5 35.5t38.5 35t30.5 31.5t26.5 33q22 38 22 64t-15 40t-35 14t-40 -12q-5 -18 -5 -28v-33l-50 -1l-7 99q60 17 108 17t81.5 -22.5t33.5 -68.5q0 -37 -24 -81
q-12 -21 -45.5 -53t-70.5 -65h64z" />
    <glyph glyph-name="threesuperior" unicode="&#xb3;" horiz-adv-x="332" 
d="M154 476l-21 -1h-9l-7 32q47 5 66.5 21.5t19.5 46.5q0 45 -49 45q-20 0 -35 -7q-3 -9 -3 -28v-34l-48 -2l-8 94q59 18 104.5 18t76 -22t30.5 -64q0 -53 -57 -74q73 -19 73 -84q0 -48 -36 -73.5t-93.5 -25.5t-102.5 17l7 90l50 -2q-1 -5 -1.5 -12.5t-0.5 -18.5
q0 -12 3 -26q15 -7 43.5 -7t43 16t14.5 42.5t-17 42.5t-43 16z" />
    <glyph glyph-name="acute" unicode="&#xb4;" horiz-adv-x="241" 
d="M192 765l49 -62q-50 -28 -61 -35l-73 -43l-74 -61l-33 41z" />
    <glyph glyph-name="mu" unicode="&#xb5;" horiz-adv-x="580" 
d="M92 -210l3 163v404l-7 134l6 6l16 -2q8 -1 25 -1t26 1l16 2l6 -6l-4 -63q-3 -35 -3 -101v-144q0 -129 101 -129q59 0 92.5 46t33.5 110v147l-7 134l6 6l14 -2q8 -1 26 -1t27 1l16 2l6 -6l-4 -63q-3 -35 -3 -101v-190q0 -46 12 -67t52 -43l-19 -42q-3 1 -21.5 7t-35 13
t-36.5 23.5t-28 39.5q-52 -78 -144 -78q-62 0 -99 43l5 -110q0 -10 10 -72l10 -57l-9 -8h-22q-16 0 -38 -2l-20 -2z" />
    <glyph glyph-name="paragraph" unicode="&#xb6;" horiz-adv-x="556" 
d="M84.5 347.5q-70.5 56.5 -70.5 158t58.5 155.5t164.5 54q21 0 50 -3v-396l-27 -25q-105 0 -175.5 56.5zM423 -93l-65 3q-44 0 -86 -2l-34 -2l-6 59l96 7l4 34q5 33 5 71v622l12 11q32 -5 65.5 -6t58.5 3l33 3l5 -50l-77 -12q-10 -62 -10 -80v-521q0 -21 5 -73l5 -57z" />
    <glyph glyph-name="periodcentered" unicode="&#xb7;" horiz-adv-x="213" 
d="M104 369q30 0 47 -18.5t17 -50.5t-17 -51t-47 -19t-47 19t-17 50t17 50.5t47 19.5z" />
    <glyph glyph-name="cedilla" unicode="&#xb8;" horiz-adv-x="168" 
d="M61 -103l-13 -1h-8l-11 10l9 94h48l-14 -59q46 -1 73.5 -24t27.5 -63t-30.5 -64.5t-76 -24.5t-83.5 18l13 35q35 -11 59 -11t38.5 12t14.5 35q0 43 -47 43z" />
    <glyph glyph-name="onesuperior" unicode="&#xb9;" horiz-adv-x="280" 
d="M123 370l5 45v149l-67 -32l-21 34l37 27q11 9 27.5 21t17.5 13l21 21l16 18l39 -7l-4 -51q-3 -27 -3 -69v-109q0 -15 2 -39l3 -21l52 -5l-5 -43l-35 2q-42 2 -66 2t-54 -2l-25 -2l-4 40z" />
    <glyph glyph-name="ordmasculine" unicode="&#xba;" horiz-adv-x="364" 
d="M339 544q0 -78 -40.5 -124.5t-116.5 -46.5t-116.5 46.5t-40.5 124.5t40.5 124.5t116.5 46.5t116.5 -46.5t40.5 -124.5zM268 544q0 129 -86 129t-86 -129t86 -129t86 129z" />
    <glyph glyph-name="guillemotright" unicode="&#xbb;" horiz-adv-x="415" 
d="M391 241l-153 -222l-37 25l106 197l-106 197l37 25zM228 241l-150 -218l-36 25l104 193l-104 193l36 25z" />
    <glyph glyph-name="onequarter" unicode="&#xbc;" horiz-adv-x="744" 
d="M172 -49l-51 32l434 738l50 -32zM115 370l5 45v149l-67 -32l-21 34l37 27q11 9 27.5 21t17.5 13l21 21l16 18l39 -7l-4 -51q-3 -27 -3 -69v-109q0 -15 2 -39l3 -21l52 -5l-5 -43l-35 2q-42 2 -66 2t-54 -2l-25 -2l-4 40zM628 147l56 3v-48h-56v-6q0 -31 0.5 -40.5
t1.5 -12.5l54 -5l-5 -43l-35 2q-42 2 -65 2t-49 -2l-23 -2l-4 40l63 8l2 15q2 16 2 23v21h-137l-26 31l149 233l49 -36l-22 -26q-6 -8 -15.5 -19.5t-10.5 -13.5l-72 -127h38q24 0 47 1v59l56 18z" />
    <glyph glyph-name="onehalf" unicode="&#xbd;" horiz-adv-x="760" 
d="M115 370l5 45v149l-67 -32l-21 34l37 27q11 9 27.5 21t17.5 13l21 21l16 18l39 -7l-4 -51q-3 -27 -3 -69v-109q0 -15 2 -39l3 -21l52 -5l-5 -43l-35 2q-42 2 -66 2t-54 -2l-25 -2l-4 40zM172 -49l-51 32l434 738l50 -32zM611 47l38 4l2 11q3 12 3 14l2 33l49 -2l-5 -103
l-5 -5q-23 0 -34 1l-43 1h-151l-7 41q12 12 38.5 35.5t38.5 35t30.5 31.5t26.5 34q22 37 22 63t-15 40t-35 14t-40 -12q-5 -18 -5 -28v-33l-50 -1l-7 99q60 17 108 17t81.5 -22.5t33.5 -68.5q0 -37 -24 -80q-12 -22 -45.5 -54t-70.5 -65h64z" />
    <glyph glyph-name="threequarters" unicode="&#xbe;" horiz-adv-x="752" 
d="M139 476l-21 -1h-9l-7 32q47 5 66.5 21.5t19.5 46.5q0 45 -49 45q-20 0 -35 -7q-3 -9 -3 -28v-34l-48 -2l-8 94q59 18 104.5 18t76 -22t30.5 -64q0 -53 -57 -74q73 -19 73 -84q0 -48 -36 -73.5t-93.5 -25.5t-102.5 17l7 90l50 -2q-1 -5 -1.5 -12.5t-0.5 -18.5
q0 -12 3 -26q15 -7 43.5 -7t43 16t14.5 42.5t-17 42.5t-43 16zM182 -49l-51 32l434 738l50 -32zM636 147l56 3v-48h-56v-6q0 -31 0.5 -40.5t1.5 -12.5l54 -5l-5 -43l-35 2q-42 2 -65 2t-49 -2l-23 -2l-4 40l63 8l2 15q2 16 2 23v21h-137l-26 31l149 233l49 -36l-22 -26
q-6 -8 -15.5 -19.5t-10.5 -13.5l-72 -127h38q24 0 47 1v59l56 18z" />
    <glyph glyph-name="questiondown" unicode="&#xbf;" horiz-adv-x="403" 
d="M182 485.5q15 17.5 43.5 17.5t44 -17t15.5 -47.5t-15 -47.5t-44 -17t-44 17t-15 47t15 47.5zM70 -18q0 -67 33 -113t103 -46q46 0 82 30q7 33 7 54l-2 36l58 3l12 -141q-85 -39 -157 -39q-112 0 -171 59t-59 156.5t54 155t159 62.5l-6 98l8 10l26 -3q38 -3 56 0l3 -143
l-29 -26q-18 6 -41 6q-70 0 -103 -46t-33 -113z" />
    <glyph glyph-name="Agrave" unicode="&#xc0;" horiz-adv-x="686" 
d="M312 705l54 11l110 -286q24 -61 52 -136q60 -158 64 -166q8 -24 38 -74l51 -5l-3 -53l-69 2q-74 2 -93 2t-45 -2l-24 -2l-5 53l71 7q-7 49 -15 73l-40 104l-249 -3l-41 -115q-7 -31 -11 -58h1l78 -8l-6 -53l-62 2q-70 2 -94.5 2t-46.5 -2l-19 -2l-3 52l57 8
q55 101 56 105zM228 284q54 -2 77 -2t67.5 1.5t65.5 1.5l-109 284zM161 854l30 73l229 -100l-20 -48l-88 37z" />
    <glyph glyph-name="Aacute" unicode="&#xc1;" horiz-adv-x="686" 
d="M312 705l54 11l110 -286q24 -61 52 -136q60 -158 64 -166q8 -24 38 -74l51 -5l-3 -53l-69 2q-74 2 -93 2t-45 -2l-24 -2l-5 53l71 7q-7 49 -15 73l-40 104l-249 -3l-41 -115q-7 -31 -11 -58h1l78 -8l-6 -53l-62 2q-70 2 -94.5 2t-46.5 -2l-19 -2l-3 52l57 8
q55 101 56 105zM228 284q54 -2 77 -2t67.5 1.5t65.5 1.5l-109 284zM475 927l30 -73l-68 -17q-14 -4 -34 -8.5t-32.5 -8t-16.5 -4.5l-88 -37l-20 48z" />
    <glyph glyph-name="Acircumflex" unicode="&#xc2;" horiz-adv-x="686" 
d="M312 705l54 11l110 -286q24 -61 52 -136q60 -158 64 -166q8 -24 38 -74l51 -5l-3 -53l-69 2q-74 2 -93 2t-45 -2l-24 -2l-5 53l71 7q-7 49 -15 73l-40 104l-249 -3l-41 -115q-7 -31 -11 -58h1l78 -8l-6 -53l-62 2q-70 2 -94.5 2t-46.5 -2l-19 -2l-3 52l57 8
q55 101 56 105zM228 284q54 -2 77 -2t67.5 1.5t65.5 1.5l-109 284zM333 922l174 -107l-23 -39l-88 41l-63 25l-63 -25l-88 -41l-23 39z" />
    <glyph glyph-name="Atilde" unicode="&#xc3;" horiz-adv-x="686" 
d="M312 705l54 11l110 -286q24 -61 52 -136q60 -158 64 -166q8 -24 38 -74l51 -5l-3 -53l-69 2q-74 2 -93 2t-45 -2l-24 -2l-5 53l71 7q-7 49 -15 73l-40 104l-249 -3l-41 -115q-7 -31 -11 -58h1l78 -8l-6 -53l-62 2q-70 2 -94.5 2t-46.5 -2l-19 -2l-3 52l57 8
q55 101 56 105zM228 284q54 -2 77 -2t67.5 1.5t65.5 1.5l-109 284zM501 900q-47 -98 -83 -98q-20 0 -82 20.5t-79 20.5t-40 -27q-7 -10 -16 -27l-36 21q9 22 26 50q31 51 53.5 51t85 -20.5t80.5 -20.5t39 25q7 8 16 26z" />
    <glyph glyph-name="Adieresis" unicode="&#xc4;" horiz-adv-x="686" 
d="M312 705l54 11l110 -286q24 -61 52 -136q60 -158 64 -166q8 -24 38 -74l51 -5l-3 -53l-69 2q-74 2 -93 2t-45 -2l-24 -2l-5 53l71 7q-7 49 -15 73l-40 104l-249 -3l-41 -115q-7 -31 -11 -58h1l78 -8l-6 -53l-62 2q-70 2 -94.5 2t-46.5 -2l-19 -2l-3 52l57 8
q55 101 56 105zM228 284q54 -2 77 -2t67.5 1.5t65.5 1.5l-109 284zM210 912q54 0 54 -59.5t-54 -59.5t-54 59q0 28 14 44t40 16zM456 912q54 0 54 -59.5t-54 -59.5t-54 59q0 28 14 44t40 16z" />
    <glyph glyph-name="Aring" unicode="&#xc5;" horiz-adv-x="686" 
d="M312 705l54 11l110 -286q24 -61 52 -136q60 -158 64 -166q8 -24 38 -74l51 -5l-3 -53l-69 2q-74 2 -93 2t-45 -2l-24 -2l-5 53l71 7q-7 49 -15 73l-40 104l-249 -3l-41 -115q-7 -31 -11 -58h1l78 -8l-6 -53l-62 2q-70 2 -94.5 2t-46.5 -2l-19 -2l-3 52l57 8
q55 101 56 105zM228 284q54 -2 77 -2t67.5 1.5t65.5 1.5l-109 284zM399.5 913q22.5 -23 22.5 -62.5t-22.5 -62.5t-66.5 -23t-67 23t-23 62.5t23 62.5t67 23t66.5 -23zM375 850.5q0 47.5 -41.5 47.5t-41.5 -47.5t41.5 -47.5t41.5 47.5z" />
    <glyph glyph-name="AE" unicode="&#xc6;" horiz-adv-x="913" 
d="M707 705q25 0 123 10l10 -11l7 -143l-58 -5q-8 43 -12 56t-19 32q-38 5 -81 5h-181q1 -5 4 -45.5t7 -62.5l24 -156l76 -3h48q24 0 60 9l9 66l46 -5q-1 -12 -1 -33v-47q0 -52 1 -73l2 -36l-48 -6l-9 67l-33 3l-47 3h-28q-31 0 -67 -4l24 -152q2 -18 12 -62.5t13 -54.5h121
q35 0 87 9q15 20 21 37q1 8 7.5 34.5t7.5 32.5l55 -5l-15 -158l-10 -11l-54 2q-56 2 -69 2h-261q-14 0 -40 -2l-24 -2l-5 53l70 7v11q0 50 -3 63l-19 123l-212 -3l-70 -148q-4 -11 -14 -46l74 -7l-6 -53l-62 2q-70 2 -94.5 2t-46.5 -2l-19 -2l-3 52l62 9q57 76 64 96
l236 495l-74 12l5 50l32 -3q38 -2 63 -2h314zM272 303q25 -1 66.5 -1t111.5 2l-38 252l-7 28z" />
    <glyph glyph-name="Ccedilla" unicode="&#xc7;" horiz-adv-x="643" 
d="M602 170l-61 -2v-20q0 -13 -1 -26.5t-16 -56.5q-76 -22 -144 -22q-110 0 -169 87t-59 223t59 222.5t169 86.5q59 0 135 -23q12 -34 12 -50v-47l61 -4l11 148q-9 2 -59 14q-80 20 -161 20q-162 0 -248 -100t-86 -268.5t86 -267.5t248 -99q85 0 229 34zM371 -103l-13 -1h-8
l-11 10l9 94h48l-14 -59q46 -1 73.5 -24t27.5 -63t-30.5 -64.5t-76 -24.5t-83.5 18l13 35q35 -11 59 -11t38.5 12t14.5 35q0 43 -47 43z" />
    <glyph glyph-name="Egrave" unicode="&#xc8;" horiz-adv-x="562" 
d="M351 337l-47 3h-53q-10 0 -42 -2v-171q0 -68 6 -110h144q41 0 87 8q14 19 21 38q1 8 7.5 34.5t7.5 32.5l55 -5l-15 -158l-10 -11l-54 2q-56 2 -69 2h-239q-34 0 -72 -5l-41 -4l-7 57l77 9q1 9 5.5 34.5t4.5 45.5v431q0 15 -4.5 40.5t-5.5 39.5l-77 12l5 50l28 -3
q32 -2 57 -2h256q26 0 123 10l10 -11l7 -143l-58 -5q-8 43 -12 56t-19 32q-38 5 -81 5h-131q-6 -40 -6 -111v-144q34 -2 42 -2h73q24 0 60 9l9 66l46 -5q-1 -12 -1 -33v-47q0 -52 1 -73l2 -36l-48 -6l-9 67zM150 854l30 73l229 -100l-20 -48l-88 37z" />
    <glyph glyph-name="Eacute" unicode="&#xc9;" horiz-adv-x="562" 
d="M351 337l-47 3h-53q-10 0 -42 -2v-171q0 -68 6 -110h144q41 0 87 8q14 19 21 38q1 8 7.5 34.5t7.5 32.5l55 -5l-15 -158l-10 -11l-54 2q-56 2 -69 2h-239q-34 0 -72 -5l-41 -4l-7 57l77 9q1 9 5.5 34.5t4.5 45.5v431q0 15 -4.5 40.5t-5.5 39.5l-77 12l5 50l28 -3
q32 -2 57 -2h256q26 0 123 10l10 -11l7 -143l-58 -5q-8 43 -12 56t-19 32q-38 5 -81 5h-131q-6 -40 -6 -111v-144q34 -2 42 -2h73q24 0 60 9l9 66l46 -5q-1 -12 -1 -33v-47q0 -52 1 -73l2 -36l-48 -6l-9 67zM464 927l30 -73l-68 -17q-14 -4 -34 -8.5t-32.5 -8t-16.5 -4.5
l-88 -37l-20 48z" />
    <glyph glyph-name="Ecircumflex" unicode="&#xca;" horiz-adv-x="562" 
d="M351 337l-47 3h-53q-10 0 -42 -2v-171q0 -68 6 -110h144q41 0 87 8q14 19 21 38q1 8 7.5 34.5t7.5 32.5l55 -5l-15 -158l-10 -11l-54 2q-56 2 -69 2h-239q-34 0 -72 -5l-41 -4l-7 57l77 9q1 9 5.5 34.5t4.5 45.5v431q0 15 -4.5 40.5t-5.5 39.5l-77 12l5 50l28 -3
q32 -2 57 -2h256q26 0 123 10l10 -11l7 -143l-58 -5q-8 43 -12 56t-19 32q-38 5 -81 5h-131q-6 -40 -6 -111v-144q34 -2 42 -2h73q24 0 60 9l9 66l46 -5q-1 -12 -1 -33v-47q0 -52 1 -73l2 -36l-48 -6l-9 67zM322 922l174 -107l-23 -39l-88 41l-63 25l-63 -25l-88 -41l-23 39
z" />
    <glyph glyph-name="Edieresis" unicode="&#xcb;" horiz-adv-x="562" 
d="M351 337l-47 3h-53q-10 0 -42 -2v-171q0 -68 6 -110h144q41 0 87 8q14 19 21 38q1 8 7.5 34.5t7.5 32.5l55 -5l-15 -158l-10 -11l-54 2q-56 2 -69 2h-239q-34 0 -72 -5l-41 -4l-7 57l77 9q1 9 5.5 34.5t4.5 45.5v431q0 15 -4.5 40.5t-5.5 39.5l-77 12l5 50l28 -3
q32 -2 57 -2h256q26 0 123 10l10 -11l7 -143l-58 -5q-8 43 -12 56t-19 32q-38 5 -81 5h-131q-6 -40 -6 -111v-144q34 -2 42 -2h73q24 0 60 9l9 66l46 -5q-1 -12 -1 -33v-47q0 -52 1 -73l2 -36l-48 -6l-9 67zM199 912q54 0 54 -59.5t-54 -59.5t-54 59q0 28 14 44t40 16z
M445 912q54 0 54 -59.5t-54 -59.5t-54 59q0 28 14 44t40 16z" />
    <glyph glyph-name="Igrave" unicode="&#xcc;" horiz-adv-x="343" 
d="M127 137v431q0 15 -4.5 40.5t-5.5 39.5l-77 9l5 53l32 -3q38 -2 82 -2t85 4l53 4l6 -59l-78 -6l-4 -36q-3 -21 -3 -74v-371q0 -53 3 -74l4 -36l78 -6l-6 -55l-53 2q-62 2 -95.5 2t-71.5 -2l-32 -2l-5 52l77 9q1 9 5.5 34.5t4.5 45.5zM8 854l30 73l229 -100l-20 -48
l-88 37z" />
    <glyph glyph-name="Iacute" unicode="&#xcd;" horiz-adv-x="343" 
d="M127 137v431q0 15 -4.5 40.5t-5.5 39.5l-77 9l5 53l32 -3q38 -2 82 -2t85 4l53 4l6 -59l-78 -6l-4 -36q-3 -21 -3 -74v-371q0 -53 3 -74l4 -36l78 -6l-6 -55l-53 2q-62 2 -95.5 2t-71.5 -2l-32 -2l-5 52l77 9q1 9 5.5 34.5t4.5 45.5zM322 927l30 -73l-68 -17
q-14 -4 -34 -8.5t-32.5 -8t-16.5 -4.5l-88 -37l-20 48z" />
    <glyph glyph-name="Icircumflex" unicode="&#xce;" horiz-adv-x="343" 
d="M127 137v431q0 15 -4.5 40.5t-5.5 39.5l-77 9l5 53l32 -3q38 -2 82 -2t85 4l53 4l6 -59l-78 -6l-4 -36q-3 -21 -3 -74v-371q0 -53 3 -74l4 -36l78 -6l-6 -55l-53 2q-62 2 -95.5 2t-71.5 -2l-32 -2l-5 52l77 9q1 9 5.5 34.5t4.5 45.5zM180 922l174 -107l-23 -39l-88 41
l-63 25l-63 -25l-88 -41l-23 39z" />
    <glyph glyph-name="Idieresis" unicode="&#xcf;" horiz-adv-x="343" 
d="M127 137v431q0 15 -4.5 40.5t-5.5 39.5l-77 9l5 53l32 -3q38 -2 82 -2t85 4l53 4l6 -59l-78 -6l-4 -36q-3 -21 -3 -74v-371q0 -53 3 -74l4 -36l78 -6l-6 -55l-53 2q-62 2 -95.5 2t-71.5 -2l-32 -2l-5 52l77 9q1 9 5.5 34.5t4.5 45.5zM57 912q54 0 54 -59.5t-54 -59.5
t-54 59q0 28 14 44t40 16zM303 912q54 0 54 -59.5t-54 -59.5t-54 59q0 28 14 44t40 16z" />
    <glyph glyph-name="Eth" unicode="&#xd0;" horiz-adv-x="726" 
d="M336 -11l-202 10q-39 -2 -55 -5l-27 -3l-7 57l77 9q1 9 5.5 34.5t4.5 45.5v200h-88v43h88v188q0 15 -4.5 40.5t-5.5 39.5l-77 12l5 50l26 -2q45 -3 53 -3l207 10q165 0 255 -97t90 -263.5t-92.5 -266t-252.5 -99.5zM224 167l6 -114q36 -4 107 -4q120 0 182.5 85t62.5 218
t-62.5 218t-182.5 85q-65 0 -107 -5q-6 -38 -6 -112v-158h142l-5 -43h-137v-170z" />
    <glyph glyph-name="Ntilde" unicode="&#xd1;" horiz-adv-x="764" 
d="M639 297l-1 -167v-137h-60l-394 563v-389q0 -53 3 -74l4 -36l78 -6l-6 -55l-36 2q-46 2 -82.5 2t-71.5 -5l-36 -4l-7 57l77 9q1 9 5.5 34.5t4.5 45.5v431q0 16 -4.5 43t-5.5 38l-76 8l5 53l42 -3q46 -2 68 -2t52 2l25 2l5 -6q15 -36 44.5 -99t37.5 -74l262 -367v395
q0 19 -4.5 47t-5.5 43l-77 8l5 54l32 -3q38 -2 81 -2t79 4l46 4l6 -59l-78 -6l-9 -41q-8 -48 -8 -79v-231zM533 900q-47 -98 -83 -98q-20 0 -82 20.5t-79 20.5t-40 -27q-8 -10 -16 -27l-36 21q9 22 26 50q31 51 53.5 51t85 -20.5t80.5 -20.5t39 25q7 8 16 26z" />
    <glyph glyph-name="Ograve" unicode="&#xd2;" horiz-adv-x="746" 
d="M616.5 620q84.5 -100 84.5 -267.5t-84.5 -267.5t-243.5 -100t-243.5 100t-84.5 267.5t84.5 267.5t243.5 100t243.5 -100zM152 352q0 -138 57 -226t164 -88t164 88t57 226t-57 226.5t-164 88.5t-164 -88.5t-57 -226.5zM202 854l30 73l229 -100l-20 -48l-88 37z" />
    <glyph glyph-name="Oacute" unicode="&#xd3;" horiz-adv-x="746" 
d="M616.5 620q84.5 -100 84.5 -267.5t-84.5 -267.5t-243.5 -100t-243.5 100t-84.5 267.5t84.5 267.5t243.5 100t243.5 -100zM152 352q0 -138 57 -226t164 -88t164 88t57 226t-57 226.5t-164 88.5t-164 -88.5t-57 -226.5zM516 927l30 -73l-68 -17q-14 -4 -34 -8.5t-32.5 -8
t-16.5 -4.5l-88 -37l-20 48z" />
    <glyph glyph-name="Ocircumflex" unicode="&#xd4;" horiz-adv-x="746" 
d="M616.5 620q84.5 -100 84.5 -267.5t-84.5 -267.5t-243.5 -100t-243.5 100t-84.5 267.5t84.5 267.5t243.5 100t243.5 -100zM152 352q0 -138 57 -226t164 -88t164 88t57 226t-57 226.5t-164 88.5t-164 -88.5t-57 -226.5zM374 922l174 -107l-23 -39l-88 41l-63 25l-63 -25
l-88 -41l-23 39z" />
    <glyph glyph-name="Otilde" unicode="&#xd5;" horiz-adv-x="746" 
d="M616.5 620q84.5 -100 84.5 -267.5t-84.5 -267.5t-243.5 -100t-243.5 100t-84.5 267.5t84.5 267.5t243.5 100t243.5 -100zM152 352q0 -138 57 -226t164 -88t164 88t57 226t-57 226.5t-164 88.5t-164 -88.5t-57 -226.5zM542 900q-47 -98 -83 -98q-20 0 -82 20.5t-79 20.5
t-40 -27q-8 -10 -16 -27l-36 21q9 22 26 50q31 51 53.5 51t85 -20.5t80.5 -20.5t39 25q7 8 16 26z" />
    <glyph glyph-name="Odieresis" unicode="&#xd6;" horiz-adv-x="746" 
d="M616.5 620q84.5 -100 84.5 -267.5t-84.5 -267.5t-243.5 -100t-243.5 100t-84.5 267.5t84.5 267.5t243.5 100t243.5 -100zM152 352q0 -138 57 -226t164 -88t164 88t57 226t-57 226.5t-164 88.5t-164 -88.5t-57 -226.5zM251 912q54 0 54 -59.5t-54 -59.5t-54 59q0 28 14 44
t40 16zM497 912q54 0 54 -59.5t-54 -59.5t-54 59q0 28 14 44t40 16z" />
    <glyph glyph-name="multiply" unicode="&#xd7;" 
d="M279 299l156 158l53 -53l-156 -156l157 -154l-53 -53l-156 155l-157 -156l-50 50l155 158l-157 157l50 50z" />
    <glyph glyph-name="Oslash" unicode="&#xd8;" horiz-adv-x="756" 
d="M613 838l42 -23l-502 -951l-40 23zM626.5 620q84.5 -100 84.5 -267.5t-84.5 -267.5t-243.5 -100t-243.5 100t-84.5 267.5t84.5 267.5t243.5 100t243.5 -100zM162 352q0 -138 57 -226t164 -88t164 88t57 226t-57 226.5t-164 88.5t-164 -88.5t-57 -226.5z" />
    <glyph glyph-name="Ugrave" unicode="&#xd9;" horiz-adv-x="749" 
d="M562 275v288q0 12 -5 41.5t-6 43.5l-76 8l5 54l24 -3q30 -2 78 -2t85 4l46 4l6 -59l-78 -6l-4 -39q-3 -23 -3 -76v-258q0 -132 -67 -211t-191.5 -79t-191.5 81t-67 214v283q0 18 -4.5 44.5t-5.5 40.5l-77 12l5 50l32 -3q38 -2 83.5 -2t86.5 4l54 4l6 -59l-78 -6l-4 -39
q-3 -23 -3 -76v-258q0 -100 45 -163t129 -63t130 63.5t46 162.5zM214 854l30 73l229 -100l-20 -48l-88 37z" />
    <glyph glyph-name="Uacute" unicode="&#xda;" horiz-adv-x="749" 
d="M562 275v288q0 12 -5 41.5t-6 43.5l-76 8l5 54l24 -3q30 -2 78 -2t85 4l46 4l6 -59l-78 -6l-4 -39q-3 -23 -3 -76v-258q0 -132 -67 -211t-191.5 -79t-191.5 81t-67 214v283q0 18 -4.5 44.5t-5.5 40.5l-77 12l5 50l32 -3q38 -2 83.5 -2t86.5 4l54 4l6 -59l-78 -6l-4 -39
q-3 -23 -3 -76v-258q0 -100 45 -163t129 -63t130 63.5t46 162.5zM528 927l30 -73l-68 -17q-14 -4 -34 -8.5t-32.5 -8t-16.5 -4.5l-88 -37l-20 48z" />
    <glyph glyph-name="Ucircumflex" unicode="&#xdb;" horiz-adv-x="749" 
d="M562 275v288q0 12 -5 41.5t-6 43.5l-76 8l5 54l24 -3q30 -2 78 -2t85 4l46 4l6 -59l-78 -6l-4 -39q-3 -23 -3 -76v-258q0 -132 -67 -211t-191.5 -79t-191.5 81t-67 214v283q0 18 -4.5 44.5t-5.5 40.5l-77 12l5 50l32 -3q38 -2 83.5 -2t86.5 4l54 4l6 -59l-78 -6l-4 -39
q-3 -23 -3 -76v-258q0 -100 45 -163t129 -63t130 63.5t46 162.5zM386 922l174 -107l-23 -39l-88 41l-63 25l-63 -25l-88 -41l-23 39z" />
    <glyph glyph-name="Udieresis" unicode="&#xdc;" horiz-adv-x="749" 
d="M562 275v288q0 12 -5 41.5t-6 43.5l-76 8l5 54l24 -3q30 -2 78 -2t85 4l46 4l6 -59l-78 -6l-4 -39q-3 -23 -3 -76v-258q0 -132 -67 -211t-191.5 -79t-191.5 81t-67 214v283q0 18 -4.5 44.5t-5.5 40.5l-77 12l5 50l32 -3q38 -2 83.5 -2t86.5 4l54 4l6 -59l-78 -6l-4 -39
q-3 -23 -3 -76v-258q0 -100 45 -163t129 -63t130 63.5t46 162.5zM263 912q54 0 54 -59.5t-54 -59.5t-54 59q0 28 14 44t40 16zM509 912q54 0 54 -59.5t-54 -59.5t-54 59q0 28 14 44t40 16z" />
    <glyph glyph-name="Yacute" unicode="&#xdd;" horiz-adv-x="645" 
d="M184 48l77 9q1 9 5.5 34.5t4.5 45.5v133l-152 289q-25 33 -74 88l-40 4l4 59l40 -3q46 -2 85.5 -2t76.5 3l39 4l2 -63l-63 -6q36 -100 45 -117l92 -180l118 232q5 10 24 68l-64 8l5 57l35 -3q19 -3 68.5 -3t87.5 3l39 4l1 -61l-68 -9l-76 -96l-132 -254v-125q0 -53 3 -74
l4 -36l78 -6l-6 -55l-53 2q-62 2 -96.5 2t-72.5 -2l-32 -2zM467 927l30 -73l-68 -17q-14 -4 -34 -8.5t-32.5 -8t-16.5 -4.5l-88 -37l-20 48z" />
    <glyph glyph-name="Thorn" unicode="&#xde;" horiz-adv-x="558" 
d="M117 137v431q0 15 -4.5 40.5t-5.5 39.5l-77 12l5 50l32 -3q38 -2 82 -2t85 4l53 4l6 -59l-78 -6l-3 -26q-2 -9 -4 -58q91 7 112 7q106 0 164.5 -54t58.5 -155.5t-70.5 -158t-175.5 -56.5q-60 0 -88 1q0 -33 5 -60l4 -26l96 -7l-6 -59l-53 2q-62 2 -100.5 2t-76.5 -5
l-41 -4l-7 57l77 9q1 9 5.5 34.5t4.5 45.5zM277 197q80 0 126 41t46 120t-45.5 121t-125.5 42q-15 0 -69 -6v-314q33 -4 68 -4z" />
    <glyph glyph-name="germandbls" unicode="&#xdf;" horiz-adv-x="594" 
d="M188 -4l-15 2q-22 2 -51 2t-61 -2l-26 -2l-5 51l66 10q1 9 5.5 34.5t4.5 45.5v303h-77l-3 42q10 3 28 8q39 12 52 21v66q0 93 53.5 143t144.5 50t150.5 -42t59.5 -119q0 -74 -53 -119q-22 -18 -44.5 -33.5t-38 -35.5t-15.5 -44t24 -44.5t58.5 -38t68.5 -37.5t58 -52.5
t24 -72.5q0 -75 -41.5 -108.5t-123.5 -33.5t-154 39l11 136l58 -3v-38q0 -19 12 -60q24 -23 74 -23q79 0 79 76q0 48 -59 78q-64 32 -112 64q-25 17 -42 45.5t-17 65.5t17 65t41 45t47 34q58 40 58 91t-38.5 78.5t-104.5 27.5t-90 -40t-24 -125v-379q0 -44 7 -165z" />
    <glyph glyph-name="agrave" unicode="&#xe0;" horiz-adv-x="513" 
d="M80 344l-11 135q90 24 182.5 24t128 -52t35.5 -160v-154q0 -23 10 -80l69 -5l-6 -56l-33 2q-46 2 -97 2l-14 79q-20 -37 -67.5 -63t-105.5 -26t-94.5 35.5t-36.5 92t29 85.5t73 40.5t192 34.5v33q0 138 -94 138q-55 0 -93 -19q-9 -45 -9 -47v-36zM128 128q0 -74 81 -74
q43 0 80 32t45 81v60q-5 -1 -57.5 -10t-85.5 -17q-63 -16 -63 -72zM78 703l49 62l192 -160l-33 -41l-74 61q-14 7 -73 43z" />
    <glyph glyph-name="aacute" unicode="&#xe1;" horiz-adv-x="513" 
d="M80 344l-11 135q90 24 182.5 24t128 -52t35.5 -160v-154q0 -23 10 -80l69 -5l-6 -56l-33 2q-46 2 -97 2l-14 79q-20 -37 -67.5 -63t-105.5 -26t-94.5 35.5t-36.5 92t29 85.5t73 40.5t192 34.5v33q0 138 -94 138q-55 0 -93 -19q-9 -45 -9 -47v-36zM128 128q0 -74 81 -74
q43 0 80 32t45 81v60q-5 -1 -57.5 -10t-85.5 -17q-63 -16 -63 -72zM351 765l49 -62q-50 -28 -61 -35l-73 -43l-74 -61l-33 41z" />
    <glyph glyph-name="acircumflex" unicode="&#xe2;" horiz-adv-x="513" 
d="M80 344l-11 135q90 24 182.5 24t128 -52t35.5 -160v-154q0 -23 10 -80l69 -5l-6 -56l-33 2q-46 2 -97 2l-14 79q-20 -37 -67.5 -63t-105.5 -26t-94.5 35.5t-36.5 92t29 85.5t73 40.5t192 34.5v33q0 138 -94 138q-55 0 -93 -19q-9 -45 -9 -47v-36zM128 128q0 -74 81 -74
q43 0 80 32t45 81v60q-5 -1 -57.5 -10t-85.5 -17q-63 -16 -63 -72zM240 765l166 -169l-33 -32l-74 61q-28 18 -59 42q-11 -8 -24.5 -18t-22.5 -16l-12 -8l-74 -61l-33 32z" />
    <glyph glyph-name="atilde" unicode="&#xe3;" horiz-adv-x="513" 
d="M80 344l-11 135q90 24 182.5 24t128 -52t35.5 -160v-154q0 -23 10 -80l69 -5l-6 -56l-33 2q-46 2 -97 2l-14 79q-20 -37 -67.5 -63t-105.5 -26t-94.5 35.5t-36.5 92t29 85.5t73 40.5t192 34.5v33q0 138 -94 138q-55 0 -93 -19q-9 -45 -9 -47v-36zM128 128q0 -74 81 -74
q43 0 80 32t45 81v60q-5 -1 -57.5 -10t-85.5 -17q-63 -16 -63 -72zM402 702q-47 -98 -83 -98q-21 0 -77 20.5t-73.5 20.5t-40.5 -27q-7 -10 -16 -27l-36 21q9 22 26 50q31 51 53.5 51t80 -20.5t75.5 -20.5t39 25q7 8 16 26z" />
    <glyph glyph-name="adieresis" unicode="&#xe4;" horiz-adv-x="513" 
d="M80 344l-11 135q90 24 182.5 24t128 -52t35.5 -160v-154q0 -23 10 -80l69 -5l-6 -56l-33 2q-46 2 -97 2l-14 79q-20 -37 -67.5 -63t-105.5 -26t-94.5 35.5t-36.5 92t29 85.5t73 40.5t192 34.5v33q0 138 -94 138q-55 0 -93 -19q-9 -45 -9 -47v-36zM128 128q0 -74 81 -74
q43 0 80 32t45 81v60q-5 -1 -57.5 -10t-85.5 -17q-63 -16 -63 -72zM121 713q54 0 54 -59.5t-54 -59.5t-54 59q0 28 14 44t40 16zM357 713q54 0 54 -59.5t-54 -59.5t-54 59q0 28 14 44t40 16z" />
    <glyph glyph-name="aring" unicode="&#xe5;" horiz-adv-x="513" 
d="M80 344l-11 135q90 24 182.5 24t128 -52t35.5 -160v-154q0 -23 10 -80l69 -5l-6 -56l-33 2q-46 2 -97 2l-14 79q-20 -37 -67.5 -63t-105.5 -26t-94.5 35.5t-36.5 92t29 85.5t73 40.5t192 34.5v33q0 138 -94 138q-55 0 -93 -19q-9 -45 -9 -47v-36zM128 128q0 -74 81 -74
q43 0 80 32t45 81v60q-5 -1 -57.5 -10t-85.5 -17q-63 -16 -63 -72zM305.5 728q22.5 -23 22.5 -62.5t-22.5 -62.5t-66.5 -23t-67 23t-23 62.5t23 62.5t67 23t66.5 -23zM281 665.5q0 47.5 -41.5 47.5t-41.5 -47.5t41.5 -47.5t41.5 47.5z" />
    <glyph glyph-name="ae" unicode="&#xe6;" horiz-adv-x="753" 
d="M727 50q-72 -60 -177 -60q-64 0 -113.5 28t-75.5 78q-68 -106 -186 -106q-62 0 -98.5 35.5t-36.5 92t29 85.5t73 40.5t192 34.5v33q0 138 -94 138q-55 0 -93 -19q-9 -45 -9 -47v-36l-58 -3l-11 135q90 24 187 24t132 -65q59 64 150 64q178 0 190 -192l-15 -38l-299 -33
q2 -76 37 -130t99 -54q81 0 149 41zM415 289l223 33v2q0 58 -25.5 92t-78.5 34q-103 0 -119 -161zM201 54q65 0 99 50t34 123q-5 -1 -57.5 -10t-85.5 -17q-63 -16 -63 -72q0 -35 19 -54.5t54 -19.5z" />
    <glyph glyph-name="ccedilla" unicode="&#xe7;" horiz-adv-x="483" 
d="M167 109q33 -54 103.5 -54t139.5 36l28 -47q-19 -16 -46 -27q-52 -27 -123 -27q-111 0 -170 69t-59 187t59 187.5t171 69.5q36 0 61 -6q32 -8 96 -29l-10 -125l-58 3v36q0 8 -7 34q-36 30 -82 30q-70 0 -103 -58t-33 -141.5t33 -137.5zM275 -103l-13 -1h-8l-11 10l9 94
h48l-14 -59q46 -1 73.5 -24t27.5 -63t-30.5 -64.5t-76 -24.5t-83.5 18l13 35q35 -11 59 -11t38.5 12t14.5 35q0 43 -47 43z" />
    <glyph glyph-name="egrave" unicode="&#xe8;" horiz-adv-x="475" 
d="M447 50q-72 -60 -180 -60t-167.5 69t-59.5 186t55.5 187t162.5 70q192 0 192 -232l-17 -33h-299q2 -74 37.5 -128t98.5 -54q81 0 149 41zM357 312l1 12q0 58 -25.5 92t-78.5 34q-103 0 -119 -162q189 16 222 16v8zM103 703l49 62l192 -160l-33 -41l-74 61q-15 7 -73 43z
" />
    <glyph glyph-name="eacute" unicode="&#xe9;" horiz-adv-x="475" 
d="M447 50q-72 -60 -180 -60t-167.5 69t-59.5 186t55.5 187t162.5 70q192 0 192 -232l-17 -33h-299q2 -74 37.5 -128t98.5 -54q81 0 149 41zM357 312l1 12q0 58 -25.5 92t-78.5 34q-103 0 -119 -162q189 16 222 16v8zM376 765l49 -62q-50 -28 -61 -35l-73 -43l-74 -61
l-33 41z" />
    <glyph glyph-name="ecircumflex" unicode="&#xea;" horiz-adv-x="475" 
d="M447 50q-72 -60 -180 -60t-167.5 69t-59.5 186t55.5 187t162.5 70q192 0 192 -232l-17 -33h-299q2 -74 37.5 -128t98.5 -54q81 0 149 41zM357 312l1 12q0 58 -25.5 92t-78.5 34q-103 0 -119 -162q189 16 222 16v8zM265 765l166 -169l-33 -32l-74 61q-28 18 -59 42
q-11 -8 -24.5 -18t-22.5 -16l-12 -8l-74 -61l-33 32z" />
    <glyph glyph-name="edieresis" unicode="&#xeb;" horiz-adv-x="475" 
d="M447 50q-72 -60 -180 -60t-167.5 69t-59.5 186t55.5 187t162.5 70q192 0 192 -232l-17 -33h-299q2 -74 37.5 -128t98.5 -54q81 0 149 41zM357 312l1 12q0 58 -25.5 92t-78.5 34q-103 0 -119 -162q189 16 222 16v8zM146 713q54 0 54 -59.5t-54 -59.5t-54 59q0 28 14 44
t40 16zM382 713q54 0 54 -59.5t-54 -59.5t-54 59q0 28 14 44t40 16z" />
    <glyph glyph-name="igrave" unicode="&#xec;" horiz-adv-x="299" 
d="M32 503q70 -9 104 -9t43 1l16 2l6 -6l-4 -63q-3 -35 -3 -101v-160q0 -53 3 -74l4 -36l78 -6l-6 -55l-48 2q-56 2 -90 2t-72 -2l-32 -2l-5 49l77 12q1 9 5.5 34.5t4.5 45.5v220q0 15 -4.5 40.5t-5.5 39.5l-76 12zM-36 703l49 62l192 -160l-33 -41l-74 61q-14 7 -73 43z
" />
    <glyph glyph-name="iacute" unicode="&#xed;" horiz-adv-x="299" 
d="M32 503q70 -9 104 -9t43 1l16 2l6 -6l-4 -63q-3 -35 -3 -101v-160q0 -53 3 -74l4 -36l78 -6l-6 -55l-48 2q-56 2 -90 2t-72 -2l-32 -2l-5 49l77 12q1 9 5.5 34.5t4.5 45.5v220q0 15 -4.5 40.5t-5.5 39.5l-76 12zM237 765l49 -62q-50 -28 -61 -35l-73 -43l-74 -61l-33 41z
" />
    <glyph glyph-name="icircumflex" unicode="&#xee;" horiz-adv-x="299" 
d="M32 503q70 -9 104 -9t43 1l16 2l6 -6l-4 -63q-3 -35 -3 -101v-160q0 -53 3 -74l4 -36l78 -6l-6 -55l-48 2q-56 2 -90 2t-72 -2l-32 -2l-5 49l77 12q1 9 5.5 34.5t4.5 45.5v220q0 15 -4.5 40.5t-5.5 39.5l-76 12zM126 765l166 -169l-33 -32l-74 61q-28 18 -59 42
q-11 -8 -24.5 -18t-22.5 -16l-12 -8l-74 -61l-33 32z" />
    <glyph glyph-name="idieresis" unicode="&#xef;" horiz-adv-x="299" 
d="M32 503q70 -9 104 -9t43 1l16 2l6 -6l-4 -63q-3 -35 -3 -101v-160q0 -53 3 -74l4 -36l78 -6l-6 -55l-48 2q-56 2 -90 2t-72 -2l-32 -2l-5 49l77 12q1 9 5.5 34.5t4.5 45.5v220q0 15 -4.5 40.5t-5.5 39.5l-76 12zM47 713q54 0 54 -59.5t-54 -59.5t-54 59q0 28 14 44t40 16
zM223 713q54 0 54 -59.5t-54 -59.5t-54 59q0 28 14 44t40 16z" />
    <glyph glyph-name="eth" unicode="&#xf0;" horiz-adv-x="545" 
d="M180 550l-22 35l117 61q-43 45 -108 78l19 41q83 -33 144 -91l115 60l22 -37l-106 -54q68 -76 103.5 -178t35.5 -217.5t-60 -186.5t-168.5 -71t-170 68t-61.5 177.5t60 178.5t157 69q27 0 70 -16l-8 -45q-17 4 -53 4q-65 0 -98 -54.5t-33 -136t32.5 -135t103 -53.5
t103 57.5t32.5 146.5q0 229 -102 362z" />
    <glyph glyph-name="ntilde" unicode="&#xf1;" horiz-adv-x="610" 
d="M26 455l5 51l31 -3q19 -3 50.5 -3t38.5 1l12 2l6 -6l13 -79q19 33 58 59t99 26q97 0 131.5 -56.5t34.5 -169.5v-110q0 -53 3 -74l4 -36l79 -6l-6 -55l-44 2q-54 2 -91.5 2t-69.5 -2l-27 -2l-5 51l66 10q1 9 5.5 34.5t4.5 45.5v174q0 58 -25.5 92.5t-79 34.5t-88 -39.5
t-38.5 -96.5v-135q0 -53 3 -74l4 -36l79 -6l-6 -55l-45 2q-54 2 -91.5 2t-69.5 -2l-26 -2l-5 51l66 10q1 9 5.5 34.5t4.5 45.5v220q0 6 -5 34t-9 52zM476 702q-47 -98 -83 -98q-21 0 -77 20.5t-73.5 20.5t-40.5 -27q-8 -10 -16 -27l-36 21q9 22 26 50q31 51 53.5 51
t80 -20.5t75.5 -20.5t39 25q7 8 16 26z" />
    <glyph glyph-name="ograve" unicode="&#xf2;" horiz-adv-x="540" 
d="M441.5 434q58.5 -69 58.5 -187t-59.5 -187.5t-170.5 -69.5t-170.5 69.5t-59.5 187t59.5 187t171.5 69.5t170.5 -69zM406 246q0 87 -32 143.5t-104 56.5t-104 -56.5t-32 -143.5t32 -143t104 -56t104 56t32 143zM109 703l49 62l192 -160l-33 -41l-74 61q-14 7 -73 43z" />
    <glyph glyph-name="oacute" unicode="&#xf3;" horiz-adv-x="540" 
d="M441.5 434q58.5 -69 58.5 -187t-59.5 -187.5t-170.5 -69.5t-170.5 69.5t-59.5 187t59.5 187t171.5 69.5t170.5 -69zM406 246q0 87 -32 143.5t-104 56.5t-104 -56.5t-32 -143.5t32 -143t104 -56t104 56t32 143zM382 765l49 -62q-50 -28 -61 -35l-73 -43l-74 -61l-33 41z
" />
    <glyph glyph-name="ocircumflex" unicode="&#xf4;" horiz-adv-x="540" 
d="M441.5 434q58.5 -69 58.5 -187t-59.5 -187.5t-170.5 -69.5t-170.5 69.5t-59.5 187t59.5 187t171.5 69.5t170.5 -69zM406 246q0 87 -32 143.5t-104 56.5t-104 -56.5t-32 -143.5t32 -143t104 -56t104 56t32 143zM271 765l166 -169l-33 -32l-74 61q-28 18 -59 42
q-11 -8 -24.5 -18t-22.5 -16l-12 -8l-74 -61l-33 32z" />
    <glyph glyph-name="otilde" unicode="&#xf5;" horiz-adv-x="540" 
d="M441.5 434q58.5 -69 58.5 -187t-59.5 -187.5t-170.5 -69.5t-170.5 69.5t-59.5 187t59.5 187t171.5 69.5t170.5 -69zM406 246q0 87 -32 143.5t-104 56.5t-104 -56.5t-32 -143.5t32 -143t104 -56t104 56t32 143zM433 702q-47 -98 -83 -98q-20 0 -77 20.5t-74 20.5t-40 -27
q-8 -10 -16 -27l-36 21q9 22 26 50q31 51 53.5 51t80 -20.5t75.5 -20.5t39 25q7 8 16 26z" />
    <glyph glyph-name="odieresis" unicode="&#xf6;" horiz-adv-x="540" 
d="M441.5 434q58.5 -69 58.5 -187t-59.5 -187.5t-170.5 -69.5t-170.5 69.5t-59.5 187t59.5 187t171.5 69.5t170.5 -69zM406 246q0 87 -32 143.5t-104 56.5t-104 -56.5t-32 -143.5t32 -143t104 -56t104 56t32 143zM152 713q54 0 54 -59.5t-54 -59.5t-54 59q0 28 14 44t40 16z
M388 713q54 0 54 -59.5t-54 -59.5t-54 59q0 28 14 44t40 16z" />
    <glyph glyph-name="divide" unicode="&#xf7;" 
d="M52 279l455 5v-71h-455v66zM243 470.5q15 17.5 43.5 17.5t44 -17t15.5 -47.5t-15 -47.5t-44 -17t-44 17t-15 47t15 47.5zM243 117.5q15 17.5 43.5 17.5t44 -17t15.5 -47.5t-15 -47.5t-44 -17t-44 17t-15 47t15 47.5z" />
    <glyph glyph-name="oslash" unicode="&#xf8;" horiz-adv-x="540" 
d="M430 598l40 -20l-358 -677l-39 20zM441.5 434q58.5 -69 58.5 -187t-59.5 -187.5t-170.5 -69.5t-170.5 69.5t-59.5 187t59.5 187t171.5 69.5t170.5 -69zM406 246q0 87 -32 143.5t-104 56.5t-104 -56.5t-32 -143.5t32 -143t104 -56t104 56t32 143z" />
    <glyph glyph-name="ugrave" unicode="&#xf9;" horiz-adv-x="589" 
d="M24 503q61 -9 94.5 -9t42.5 1l16 2l6 -6l-4 -63q-3 -35 -3 -101v-144q0 -129 101 -129q57 0 90.5 44t35.5 106v153q0 15 -4.5 40.5t-5.5 39.5l-86 12l5 51l48 -3q27 -3 63.5 -3t45.5 1l16 2l6 -6l-4 -63q-3 -35 -3 -101v-190q0 -23 10 -80l69 -5l-6 -56l-33 2
q-46 2 -97 2l-13 77q-50 -87 -155 -87q-101 0 -134 64q-30 57 -30 163v140q0 15 -4.5 40.5t-5.5 39.5l-66 12zM112 703l49 62l192 -160l-33 -41l-74 61q-15 7 -73 43z" />
    <glyph glyph-name="uacute" unicode="&#xfa;" horiz-adv-x="589" 
d="M24 503q61 -9 94.5 -9t42.5 1l16 2l6 -6l-4 -63q-3 -35 -3 -101v-144q0 -129 101 -129q57 0 90.5 44t35.5 106v153q0 15 -4.5 40.5t-5.5 39.5l-86 12l5 51l48 -3q27 -3 63.5 -3t45.5 1l16 2l6 -6l-4 -63q-3 -35 -3 -101v-190q0 -23 10 -80l69 -5l-6 -56l-33 2
q-46 2 -97 2l-13 77q-50 -87 -155 -87q-101 0 -134 64q-30 57 -30 163v140q0 15 -4.5 40.5t-5.5 39.5l-66 12zM385 765l49 -62q-50 -28 -61 -35l-73 -43l-74 -61l-33 41z" />
    <glyph glyph-name="ucircumflex" unicode="&#xfb;" horiz-adv-x="589" 
d="M24 503q61 -9 94.5 -9t42.5 1l16 2l6 -6l-4 -63q-3 -35 -3 -101v-144q0 -129 101 -129q57 0 90.5 44t35.5 106v153q0 15 -4.5 40.5t-5.5 39.5l-86 12l5 51l48 -3q27 -3 63.5 -3t45.5 1l16 2l6 -6l-4 -63q-3 -35 -3 -101v-190q0 -23 10 -80l69 -5l-6 -56l-33 2
q-46 2 -97 2l-13 77q-50 -87 -155 -87q-101 0 -134 64q-30 57 -30 163v140q0 15 -4.5 40.5t-5.5 39.5l-66 12zM274 765l166 -169l-33 -32l-74 61q-28 18 -59 42q-11 -8 -24.5 -18t-22.5 -16l-12 -8l-74 -61l-33 32z" />
    <glyph glyph-name="udieresis" unicode="&#xfc;" horiz-adv-x="589" 
d="M24 503q61 -9 94.5 -9t42.5 1l16 2l6 -6l-4 -63q-3 -35 -3 -101v-144q0 -129 101 -129q57 0 90.5 44t35.5 106v153q0 15 -4.5 40.5t-5.5 39.5l-86 12l5 51l48 -3q27 -3 63.5 -3t45.5 1l16 2l6 -6l-4 -63q-3 -35 -3 -101v-190q0 -23 10 -80l69 -5l-6 -56l-33 2
q-46 2 -97 2l-13 77q-50 -87 -155 -87q-101 0 -134 64q-30 57 -30 163v140q0 15 -4.5 40.5t-5.5 39.5l-66 12zM155 713q54 0 54 -59.5t-54 -59.5t-54 59q0 28 14 44t40 16zM391 713q54 0 54 -59.5t-54 -59.5t-54 59q0 28 14 44t40 16z" />
    <glyph glyph-name="yacute" unicode="&#xfd;" horiz-adv-x="539" 
d="M341 503q70 -9 107 -9t53 3l29 3l4 -54l-38 -5q-58 -117 -60 -122l-126 -319l-84 -235l-163 11l8 58q5 -1 16 -1h24q16 0 66 12q32 48 39 66l28 80l-148 353q-4 13 -51 97l-40 8l5 54q70 -9 108.5 -9t57.5 3l35 4l5 -55l-62 -8q16 -56 27 -89l102 -253l92 255
q15 44 26 88l-65 10zM393 765l49 -62q-50 -28 -61 -35l-73 -43l-74 -61l-33 41z" />
    <glyph glyph-name="thorn" unicode="&#xfe;" horiz-adv-x="553" 
d="M14 766q77 -10 103.5 -10t44.5 2l15 2l6 -6l-4 -64q-3 -35 -3 -101v-161q18 28 53.5 51.5t78.5 23.5q102 0 153.5 -67.5t51.5 -179t-63 -189t-167 -77.5q-57 0 -107 24v-77q0 -52 3 -73l4 -36l100 -9l-6 -54l-55 3q-44 4 -92 4t-80 -2l-26 -2l-5 49l67 10l4 32q5 28 5 48
v713q0 15 -4.5 40.5t-5.5 39.5l-76 12zM300 442q-59 0 -90.5 -43.5t-33.5 -108.5v-139q0 -43 4 -68q52 -33 97 -33q76 0 111 57t35 147q0 188 -123 188z" />
    <glyph glyph-name="ydieresis" unicode="&#xff;" horiz-adv-x="539" 
d="M341 503q70 -9 107 -9t53 3l29 3l4 -54l-38 -5q-58 -117 -60 -122l-126 -319l-84 -235l-163 11l8 58q5 -1 16 -1h24q16 0 66 12q32 48 39 66l28 80l-148 353q-4 13 -51 97l-40 8l5 54q70 -9 108.5 -9t57.5 3l35 4l5 -55l-62 -8q16 -56 27 -89l102 -253l92 255
q15 44 26 88l-65 10zM163 713q54 0 54 -59.5t-54 -59.5t-54 59q0 28 14 44t40 16zM399 713q54 0 54 -59.5t-54 -59.5t-54 59q0 28 14 44t40 16z" />
    <glyph glyph-name="Amacron" unicode="&#x100;" horiz-adv-x="686" 
d="M312 705l54 11l110 -286q24 -61 52 -136q60 -158 64 -166q8 -24 38 -74l51 -5l-3 -53l-69 2q-74 2 -93 2t-45 -2l-24 -2l-5 53l71 7q-7 49 -15 73l-40 104l-249 -3l-41 -115q-7 -31 -11 -58h1l78 -8l-6 -53l-62 2q-70 2 -94.5 2t-46.5 -2l-19 -2l-3 52l57 8
q55 101 56 105zM228 284q54 -2 77 -2t67.5 1.5t65.5 1.5l-109 284zM174 811v53h322l-5 -53h-317z" />
    <glyph glyph-name="amacron" unicode="&#x101;" horiz-adv-x="513" 
d="M80 344l-11 135q90 24 182.5 24t128 -52t35.5 -160v-154q0 -23 10 -80l69 -5l-6 -56l-33 2q-46 2 -97 2l-14 79q-20 -37 -67.5 -63t-105.5 -26t-94.5 35.5t-36.5 92t29 85.5t73 40.5t192 34.5v33q0 138 -94 138q-55 0 -93 -19q-9 -45 -9 -47v-36zM128 128q0 -74 81 -74
q43 0 80 32t45 81v60q-5 -1 -57.5 -10t-85.5 -17q-63 -16 -63 -72zM80 626v53h322l-5 -53h-317z" />
    <glyph glyph-name="Abreve" unicode="&#x102;" horiz-adv-x="686" 
d="M312 705l54 11l110 -286q24 -61 52 -136q60 -158 64 -166q8 -24 38 -74l51 -5l-3 -53l-69 2q-74 2 -93 2t-45 -2l-24 -2l-5 53l71 7q-7 49 -15 73l-40 104l-249 -3l-41 -115q-7 -31 -11 -58h1l78 -8l-6 -53l-62 2q-70 2 -94.5 2t-46.5 -2l-19 -2l-3 52l57 8
q55 101 56 105zM228 284q54 -2 77 -2t67.5 1.5t65.5 1.5l-109 284zM333 832q38 0 60.5 23t22.5 61h56q0 -68 -35.5 -104t-103.5 -36t-103.5 36t-35.5 104h56q0 -38 22.5 -61t60.5 -23z" />
    <glyph glyph-name="abreve" unicode="&#x103;" horiz-adv-x="513" 
d="M80 344l-11 135q90 24 182.5 24t128 -52t35.5 -160v-154q0 -23 10 -80l69 -5l-6 -56l-33 2q-46 2 -97 2l-14 79q-20 -37 -67.5 -63t-105.5 -26t-94.5 35.5t-36.5 92t29 85.5t73 40.5t192 34.5v33q0 138 -94 138q-55 0 -93 -19q-9 -45 -9 -47v-36zM128 128q0 -74 81 -74
q43 0 80 32t45 81v60q-5 -1 -57.5 -10t-85.5 -17q-63 -16 -63 -72zM239 643q38 0 60.5 23t22.5 61h56q0 -68 -35.5 -104t-103.5 -36t-103.5 36t-35.5 104h56q0 -38 22.5 -61t60.5 -23z" />
    <glyph glyph-name="Aogonek" unicode="&#x104;" horiz-adv-x="686" 
d="M312 705l54 11l110 -286q24 -61 52 -136q60 -158 64 -166q8 -24 38 -74l51 -5l-3 -53l-69 2q-74 2 -93 2t-45 -2l-24 -2l-5 53l71 7q-7 49 -15 73l-40 104l-249 -3l-41 -115q-7 -31 -11 -58h1l78 -8l-6 -53l-62 2q-70 2 -94.5 2t-46.5 -2l-19 -2l-3 52l57 8
q55 101 56 105zM228 284q54 -2 77 -2t67.5 1.5t65.5 1.5l-109 284zM631 0l47 -4q-28 -31 -39 -53t-11 -51q0 -47 54 -47q26 0 56 13l14 -33q-47 -22 -90 -22t-71 22.5t-28 60t15.5 59.5t52.5 55z" />
    <glyph glyph-name="aogonek" unicode="&#x105;" horiz-adv-x="513" 
d="M80 344l-11 135q90 24 182.5 24t128 -52t35.5 -160v-154q0 -23 10 -80l69 -5l-6 -56l-33 2q-46 2 -97 2l-14 79q-20 -37 -67.5 -63t-105.5 -26t-94.5 35.5t-36.5 92t29 85.5t73 40.5t192 34.5v33q0 138 -94 138q-55 0 -93 -19q-9 -45 -9 -47v-36zM128 128q0 -74 81 -74
q43 0 80 32t45 81v60q-5 -1 -57.5 -10t-85.5 -17q-63 -16 -63 -72zM441 0l47 -4q-28 -31 -39 -53t-11 -51q0 -47 54 -47q26 0 56 13l14 -33q-47 -22 -90 -22t-71 22.5t-28 60t15.5 59.5t52.5 55z" />
    <glyph glyph-name="Cacute" unicode="&#x106;" horiz-adv-x="643" 
d="M602 170l6 -151q-144 -34 -229 -34q-162 0 -248 99t-86 267.5t86 268.5t248 100q81 0 161 -20q50 -12 59 -14l-11 -148l-61 4v47q0 16 -12 50q-76 23 -135 23q-110 0 -169 -86.5t-59 -222.5t59 -223t169 -87q68 0 144 22q15 43 16 56.5t1 26.5v20zM535 927l30 -73
l-68 -17q-14 -4 -34 -8.5t-32.5 -8t-16.5 -4.5l-88 -37l-20 48z" />
    <glyph glyph-name="cacute" unicode="&#x107;" horiz-adv-x="483" 
d="M167 109q33 -54 103.5 -54t139.5 36l28 -47q-19 -16 -46 -27q-52 -27 -123 -27q-111 0 -170 69t-59 187t59 187.5t171 69.5q36 0 61 -6q32 -8 96 -29l-10 -125l-58 3v36q0 8 -7 34q-36 30 -82 30q-70 0 -103 -58t-33 -141.5t33 -137.5zM382 765l49 -62q-50 -28 -61 -35
l-73 -43l-74 -61l-33 41z" />
    <glyph glyph-name="Ccircumflex" unicode="&#x108;" horiz-adv-x="643" 
d="M602 170l6 -151q-144 -34 -229 -34q-162 0 -248 99t-86 267.5t86 268.5t248 100q81 0 161 -20q50 -12 59 -14l-11 -148l-61 4v47q0 16 -12 50q-76 23 -135 23q-110 0 -169 -86.5t-59 -222.5t59 -223t169 -87q68 0 144 22q15 43 16 56.5t1 26.5v20zM393 922l174 -107
l-23 -39l-88 41l-63 25l-63 -25l-88 -41l-23 39z" />
    <glyph glyph-name="ccircumflex" unicode="&#x109;" horiz-adv-x="483" 
d="M167 109q33 -54 103.5 -54t139.5 36l28 -47q-19 -16 -46 -27q-52 -27 -123 -27q-111 0 -170 69t-59 187t59 187.5t171 69.5q36 0 61 -6q32 -8 96 -29l-10 -125l-58 3v36q0 8 -7 34q-36 30 -82 30q-70 0 -103 -58t-33 -141.5t33 -137.5zM271 765l166 -169l-33 -32l-74 61
q-28 18 -59 42q-11 -8 -24.5 -18t-22.5 -16l-12 -8l-74 -61l-33 32z" />
    <glyph glyph-name="Cdotaccent" unicode="&#x10a;" horiz-adv-x="643" 
d="M602 170l6 -151q-144 -34 -229 -34q-162 0 -248 99t-86 267.5t86 268.5t248 100q81 0 161 -20q50 -12 59 -14l-11 -148l-61 4v47q0 16 -12 50q-76 23 -135 23q-110 0 -169 -86.5t-59 -222.5t59 -223t169 -87q68 0 144 22q15 43 16 56.5t1 26.5v20zM349 887.5
q15 17.5 43.5 17.5t44 -17t15.5 -47.5t-15 -47.5t-44 -17t-44 17t-15 47t15 47.5z" />
    <glyph glyph-name="cdotaccent" unicode="&#x10b;" horiz-adv-x="483" 
d="M167 109q33 -54 103.5 -54t139.5 36l28 -47q-19 -16 -46 -27q-52 -27 -123 -27q-111 0 -170 69t-59 187t59 187.5t171 69.5q36 0 61 -6q32 -8 96 -29l-10 -125l-58 3v36q0 8 -7 34q-36 30 -82 30q-70 0 -103 -58t-33 -141.5t33 -137.5zM226 702.5q15 17.5 43.5 17.5
t44 -17t15.5 -47.5t-15 -47.5t-44 -17t-44 17t-15 47t15 47.5z" />
    <glyph glyph-name="Ccaron" unicode="&#x10c;" horiz-adv-x="643" 
d="M602 170l6 -151q-144 -34 -229 -34q-162 0 -248 99t-86 267.5t86 268.5t248 100q81 0 161 -20q50 -12 59 -14l-11 -148l-61 4v47q0 16 -12 50q-76 23 -135 23q-110 0 -169 -86.5t-59 -222.5t59 -223t169 -87q68 0 144 22q15 43 16 56.5t1 26.5v20zM567 883l-174 -107
l-174 107l23 39l88 -41l63 -25l63 25l88 41z" />
    <glyph glyph-name="ccaron" unicode="&#x10d;" horiz-adv-x="483" 
d="M167 109q33 -54 103.5 -54t139.5 36l28 -47q-19 -16 -46 -27q-52 -27 -123 -27q-111 0 -170 69t-59 187t59 187.5t171 69.5q36 0 61 -6q32 -8 96 -29l-10 -125l-58 3v36q0 8 -7 34q-36 30 -82 30q-70 0 -103 -58t-33 -141.5t33 -137.5zM436 733l-166 -169l-166 169l33 32
l74 -61l59 -43l59 43l74 61z" />
    <glyph glyph-name="Dcaron" unicode="&#x10e;" horiz-adv-x="726" 
d="M336 -11l-202 10q-39 -2 -55 -5l-27 -3l-7 57l77 9q1 9 5.5 34.5t4.5 45.5v431q0 15 -4.5 40.5t-5.5 39.5l-77 12l5 50l32 -3q38 -2 63 -2h4q29 0 90 5t97 5q165 0 255 -97t90 -263.5t-92.5 -266t-252.5 -99.5zM224 167l6 -114q36 -4 107 -4q120 0 182.5 85t62.5 218
t-62.5 218t-182.5 85q-65 0 -107 -5q-6 -38 -6 -112v-371zM518 883l-174 -107l-174 107l23 39l88 -41l63 -25l63 25l88 41z" />
    <glyph glyph-name="Dcroat" unicode="&#x110;" horiz-adv-x="726" 
d="M44 337v43h322l-5 -43h-317zM336 -11l-202 10q-39 -2 -55 -5l-27 -3l-7 57l77 9q1 9 5.5 34.5t4.5 45.5v431q0 15 -4.5 40.5t-5.5 39.5l-77 12l5 50l32 -3q38 -2 63 -2h4q29 0 90 5t97 5q165 0 255 -97t90 -263.5t-92.5 -266t-252.5 -99.5zM224 167l6 -114q36 -4 107 -4
q120 0 182.5 85t62.5 218t-62.5 218t-182.5 85q-65 0 -107 -5q-6 -38 -6 -112v-371z" />
    <glyph glyph-name="dcroat" unicode="&#x111;" horiz-adv-x="561" 
d="M536 625v-43h-342l5 43h337zM282 766q87 -10 114 -10t45 2l16 2l6 -6l-4 -63q-3 -35 -3 -101v-453q0 -23 10 -80l69 -5l-6 -56l-33 2q-46 2 -97 2l-13 81q-11 -28 -52 -59.5t-93 -31.5q-100 0 -150.5 72.5t-50.5 185t54 184t156 71.5q55 0 125 -24v141q0 15 -4.5 40.5
t-5.5 39.5l-88 12zM248 54q62 0 94.5 41.5t32.5 111.5v200q-56 35 -119 35t-93.5 -56.5t-30.5 -139.5q0 -50 9.5 -90.5t37 -71t69.5 -30.5z" />
    <glyph glyph-name="Emacron" unicode="&#x112;" horiz-adv-x="562" 
d="M351 337l-47 3h-53q-10 0 -42 -2v-171q0 -68 6 -110h144q41 0 87 8q14 19 21 38q1 8 7.5 34.5t7.5 32.5l55 -5l-15 -158l-10 -11l-54 2q-56 2 -69 2h-239q-34 0 -72 -5l-41 -4l-7 57l77 9q1 9 5.5 34.5t4.5 45.5v431q0 15 -4.5 40.5t-5.5 39.5l-77 12l5 50l28 -3
q32 -2 57 -2h256q26 0 123 10l10 -11l7 -143l-58 -5q-8 43 -12 56t-19 32q-38 5 -81 5h-131q-6 -40 -6 -111v-144q34 -2 42 -2h73q24 0 60 9l9 66l46 -5q-1 -12 -1 -33v-47q0 -52 1 -73l2 -36l-48 -6l-9 67zM163 811v53h322l-5 -53h-317z" />
    <glyph glyph-name="emacron" unicode="&#x113;" horiz-adv-x="475" 
d="M447 50q-72 -60 -180 -60t-167.5 69t-59.5 186t55.5 187t162.5 70q192 0 192 -232l-17 -33h-299q2 -74 37.5 -128t98.5 -54q81 0 149 41zM357 312l1 12q0 58 -25.5 92t-78.5 34q-103 0 -119 -162q189 16 222 16v8zM105 626v53h322l-5 -53h-317z" />
    <glyph glyph-name="Ebreve" unicode="&#x114;" horiz-adv-x="562" 
d="M351 337l-47 3h-53q-10 0 -42 -2v-171q0 -68 6 -110h144q41 0 87 8q14 19 21 38q1 8 7.5 34.5t7.5 32.5l55 -5l-15 -158l-10 -11l-54 2q-56 2 -69 2h-239q-34 0 -72 -5l-41 -4l-7 57l77 9q1 9 5.5 34.5t4.5 45.5v431q0 15 -4.5 40.5t-5.5 39.5l-77 12l5 50l28 -3
q32 -2 57 -2h256q26 0 123 10l10 -11l7 -143l-58 -5q-8 43 -12 56t-19 32q-38 5 -81 5h-131q-6 -40 -6 -111v-144q34 -2 42 -2h73q24 0 60 9l9 66l46 -5q-1 -12 -1 -33v-47q0 -52 1 -73l2 -36l-48 -6l-9 67zM322 832q38 0 60.5 23t22.5 61h56q0 -68 -35.5 -104t-103.5 -36
t-103.5 36t-35.5 104h56q0 -38 22.5 -61t60.5 -23z" />
    <glyph glyph-name="ebreve" unicode="&#x115;" horiz-adv-x="475" 
d="M447 50q-72 -60 -180 -60t-167.5 69t-59.5 186t55.5 187t162.5 70q192 0 192 -232l-17 -33h-299q2 -74 37.5 -128t98.5 -54q81 0 149 41zM357 312l1 12q0 58 -25.5 92t-78.5 34q-103 0 -119 -162q189 16 222 16v8zM264 643q38 0 60.5 23t22.5 61h56q0 -68 -35.5 -104
t-103.5 -36t-103.5 36t-35.5 104h56q0 -38 22.5 -61t60.5 -23z" />
    <glyph glyph-name="Edotaccent" unicode="&#x116;" horiz-adv-x="562" 
d="M351 337l-47 3h-53q-10 0 -42 -2v-171q0 -68 6 -110h144q41 0 87 8q14 19 21 38q1 8 7.5 34.5t7.5 32.5l55 -5l-15 -158l-10 -11l-54 2q-56 2 -69 2h-239q-34 0 -72 -5l-41 -4l-7 57l77 9q1 9 5.5 34.5t4.5 45.5v431q0 15 -4.5 40.5t-5.5 39.5l-77 12l5 50l28 -3
q32 -2 57 -2h256q26 0 123 10l10 -11l7 -143l-58 -5q-8 43 -12 56t-19 32q-38 5 -81 5h-131q-6 -40 -6 -111v-144q34 -2 42 -2h73q24 0 60 9l9 66l46 -5q-1 -12 -1 -33v-47q0 -52 1 -73l2 -36l-48 -6l-9 67zM278 887.5q15 17.5 43.5 17.5t44 -17t15.5 -47.5t-15 -47.5
t-44 -17t-44 17t-15 47t15 47.5z" />
    <glyph glyph-name="edotaccent" unicode="&#x117;" horiz-adv-x="475" 
d="M447 50q-72 -60 -180 -60t-167.5 69t-59.5 186t55.5 187t162.5 70q192 0 192 -232l-17 -33h-299q2 -74 37.5 -128t98.5 -54q81 0 149 41zM357 312l1 12q0 58 -25.5 92t-78.5 34q-103 0 -119 -162q189 16 222 16v8zM220 702.5q15 17.5 43.5 17.5t44 -17t15.5 -47.5
t-15 -47.5t-44 -17t-44 17t-15 47t15 47.5z" />
    <glyph glyph-name="Eogonek" unicode="&#x118;" horiz-adv-x="562" 
d="M351 337l-47 3h-53q-10 0 -42 -2v-171q0 -68 6 -110h144q41 0 87 8q14 19 21 38q1 8 7.5 34.5t7.5 32.5l55 -5l-15 -158l-10 -11l-54 2q-56 2 -69 2h-239q-34 0 -72 -5l-41 -4l-7 57l77 9q1 9 5.5 34.5t4.5 45.5v431q0 15 -4.5 40.5t-5.5 39.5l-77 12l5 50l28 -3
q32 -2 57 -2h256q26 0 123 10l10 -11l7 -143l-58 -5q-8 43 -12 56t-19 32q-38 5 -81 5h-131q-6 -40 -6 -111v-144q34 -2 42 -2h73q24 0 60 9l9 66l46 -5q-1 -12 -1 -33v-47q0 -52 1 -73l2 -36l-48 -6l-9 67zM465 0l47 -4q-28 -31 -39 -53t-11 -51q0 -47 54 -47q26 0 56 13
l14 -33q-47 -22 -90 -22t-71 22.5t-28 60t15.5 59.5t52.5 55z" />
    <glyph glyph-name="eogonek" unicode="&#x119;" horiz-adv-x="475" 
d="M447 50q-72 -60 -180 -60t-167.5 69t-59.5 186t55.5 187t162.5 70q192 0 192 -232l-17 -33h-299q2 -74 37.5 -128t98.5 -54q81 0 149 41zM357 312l1 12q0 58 -25.5 92t-78.5 34q-103 0 -119 -162q189 16 222 16v8zM283 0l47 -4q-28 -31 -39 -53t-11 -51q0 -47 54 -47
q26 0 56 13l14 -33q-47 -22 -90 -22t-71 22.5t-28 60t15.5 59.5t52.5 55z" />
    <glyph glyph-name="Ecaron" unicode="&#x11a;" horiz-adv-x="562" 
d="M351 337l-47 3h-53q-10 0 -42 -2v-171q0 -68 6 -110h144q41 0 87 8q14 19 21 38q1 8 7.5 34.5t7.5 32.5l55 -5l-15 -158l-10 -11l-54 2q-56 2 -69 2h-239q-34 0 -72 -5l-41 -4l-7 57l77 9q1 9 5.5 34.5t4.5 45.5v431q0 15 -4.5 40.5t-5.5 39.5l-77 12l5 50l28 -3
q32 -2 57 -2h256q26 0 123 10l10 -11l7 -143l-58 -5q-8 43 -12 56t-19 32q-38 5 -81 5h-131q-6 -40 -6 -111v-144q34 -2 42 -2h73q24 0 60 9l9 66l46 -5q-1 -12 -1 -33v-47q0 -52 1 -73l2 -36l-48 -6l-9 67zM496 883l-174 -107l-174 107l23 39l88 -41l63 -25l63 25l88 41z
" />
    <glyph glyph-name="ecaron" unicode="&#x11b;" horiz-adv-x="475" 
d="M447 50q-72 -60 -180 -60t-167.5 69t-59.5 186t55.5 187t162.5 70q192 0 192 -232l-17 -33h-299q2 -74 37.5 -128t98.5 -54q81 0 149 41zM357 312l1 12q0 58 -25.5 92t-78.5 34q-103 0 -119 -162q189 16 222 16v8zM430 733l-166 -169l-166 169l33 32l74 -61l59 -43l59 43
l74 61z" />
    <glyph glyph-name="Gcircumflex" unicode="&#x11c;" horiz-adv-x="653" 
d="M618 330q-10 -105 -10 -164v-147q-144 -34 -229 -34q-162 0 -248 99t-86 267.5t86 268.5t248 100q81 0 161 -20q50 -12 59 -14l-11 -148l-58 6v45q0 15 -12 49q-81 24 -141 24q-112 0 -170.5 -86t-58.5 -223t58.5 -223.5t170.5 -86.5q64 0 139 20q12 46 12 65v68
q0 15 -4.5 40.5t-5.5 39.5l-86 8l5 57l49 -4q36 -4 68.5 -4t41.5 1l16 2zM387 922l174 -107l-23 -39l-88 41l-63 25l-63 -25l-88 -41l-23 39z" />
    <glyph glyph-name="gcircumflex" unicode="&#x11d;" horiz-adv-x="509" 
d="M247 141q-37 0 -68 9q-27 -34 -27 -43t8 -16t26.5 -11t35 -6t45.5 -5q126 -13 164 -26q45 -14 45 -93t-78.5 -132t-175.5 -53q-198 0 -198 145q0 31 93 100q-45 24 -45 74q0 21 71 81q-89 46 -89 157q0 84 54 132.5t139 48.5q55 0 100 -22l115 25l9 -51l-36 -12
q-6 -2 -25 -16q30 -43 30 -105q0 -84 -54 -132.5t-139 -48.5zM247 192q106 0 106 130t-106 130t-106 -130t106 -130zM383.5 -43.5q-7.5 8.5 -32 13.5t-102 14t-95.5 14q-44 -57 -44 -70q0 -60 35.5 -83t98.5 -23t105 27t42 76q0 23 -7.5 31.5zM269 765l166 -169l-33 -32
l-74 61q-28 18 -59 42q-11 -8 -24.5 -18t-22.5 -16l-12 -8l-74 -61l-33 32z" />
    <glyph glyph-name="Gbreve" unicode="&#x11e;" horiz-adv-x="653" 
d="M618 330q-10 -105 -10 -164v-147q-144 -34 -229 -34q-162 0 -248 99t-86 267.5t86 268.5t248 100q81 0 161 -20q50 -12 59 -14l-11 -148l-58 6v45q0 15 -12 49q-81 24 -141 24q-112 0 -170.5 -86t-58.5 -223t58.5 -223.5t170.5 -86.5q64 0 139 20q12 46 12 65v68
q0 15 -4.5 40.5t-5.5 39.5l-86 8l5 57l49 -4q36 -4 68.5 -4t41.5 1l16 2zM387 832q38 0 60.5 23t22.5 61h56q0 -68 -35.5 -104t-103.5 -36t-103.5 36t-35.5 104h56q0 -38 22.5 -61t60.5 -23z" />
    <glyph glyph-name="gbreve" unicode="&#x11f;" horiz-adv-x="509" 
d="M247 141q-37 0 -68 9q-27 -34 -27 -43t8 -16t26.5 -11t35 -6t45.5 -5q126 -13 164 -26q45 -14 45 -93t-78.5 -132t-175.5 -53q-198 0 -198 145q0 31 93 100q-45 24 -45 74q0 21 71 81q-89 46 -89 157q0 84 54 132.5t139 48.5q55 0 100 -22l115 25l9 -51l-36 -12
q-6 -2 -25 -16q30 -43 30 -105q0 -84 -54 -132.5t-139 -48.5zM247 192q106 0 106 130t-106 130t-106 -130t106 -130zM383.5 -43.5q-7.5 8.5 -32 13.5t-102 14t-95.5 14q-44 -57 -44 -70q0 -60 35.5 -83t98.5 -23t105 27t42 76q0 23 -7.5 31.5zM268 643q38 0 60.5 23t22.5 61
h56q0 -68 -35.5 -104t-103.5 -36t-103.5 36t-35.5 104h56q0 -38 22.5 -61t60.5 -23z" />
    <glyph glyph-name="Gdotaccent" unicode="&#x120;" horiz-adv-x="653" 
d="M618 330q-10 -105 -10 -164v-147q-144 -34 -229 -34q-162 0 -248 99t-86 267.5t86 268.5t248 100q81 0 161 -20q50 -12 59 -14l-11 -148l-58 6v45q0 15 -12 49q-81 24 -141 24q-112 0 -170.5 -86t-58.5 -223t58.5 -223.5t170.5 -86.5q64 0 139 20q12 46 12 65v68
q0 15 -4.5 40.5t-5.5 39.5l-86 8l5 57l49 -4q36 -4 68.5 -4t41.5 1l16 2zM343 887.5q15 17.5 43.5 17.5t44 -17t15.5 -47.5t-15 -47.5t-44 -17t-44 17t-15 47t15 47.5z" />
    <glyph glyph-name="gdotaccent" unicode="&#x121;" horiz-adv-x="509" 
d="M247 141q-37 0 -68 9q-27 -34 -27 -43t8 -16t26.5 -11t35 -6t45.5 -5q126 -13 164 -26q45 -14 45 -93t-78.5 -132t-175.5 -53q-198 0 -198 145q0 31 93 100q-45 24 -45 74q0 21 71 81q-89 46 -89 157q0 84 54 132.5t139 48.5q55 0 100 -22l115 25l9 -51l-36 -12
q-6 -2 -25 -16q30 -43 30 -105q0 -84 -54 -132.5t-139 -48.5zM247 192q106 0 106 130t-106 130t-106 -130t106 -130zM383.5 -43.5q-7.5 8.5 -32 13.5t-102 14t-95.5 14q-44 -57 -44 -70q0 -60 35.5 -83t98.5 -23t105 27t42 76q0 23 -7.5 31.5zM224 702.5q15 17.5 43.5 17.5
t44 -17t15.5 -47.5t-15 -47.5t-44 -17t-44 17t-15 47t15 47.5z" />
    <glyph glyph-name="Hcircumflex" unicode="&#x124;" horiz-adv-x="779" 
d="M350 378l212 4v186q0 15 -4.5 40.5t-5.5 39.5l-77 8l5 54l32 -3q38 -2 82.5 -2t85.5 4l54 4l6 -59l-78 -6l-4 -36q-3 -21 -3 -74v-371q0 -53 3 -74l4 -36l78 -6l-6 -55l-54 2q-62 2 -96 2t-72 -2l-32 -2l-5 55l77 6q1 9 5.5 34.5t4.5 45.5v191l-332 -3v-158q0 -53 3 -74
l4 -36l78 -6l-6 -55l-48 2q-56 2 -94 2t-73 -5l-36 -4l-7 57l77 9q1 9 5.5 34.5t4.5 45.5v431q0 15 -4.5 40.5t-5.5 39.5l-77 12l5 50l32 -3q38 -2 82.5 -2t85.5 4l53 4l6 -59l-78 -6l-4 -36q-3 -21 -3 -74v-156q25 -4 120 -4zM397 922l174 -107l-23 -39l-88 41l-63 25
l-63 -25l-88 -41l-23 39z" />
    <glyph glyph-name="hcircumflex" unicode="&#x125;" horiz-adv-x="604" 
d="M25 766q78 -10 103.5 -10t43.5 2l16 2l6 -6l-4 -63q-3 -35 -3 -101v-156q52 69 147.5 69t130 -56.5t34.5 -169.5v-110q0 -53 3 -74l4 -36l79 -6l-6 -55l-44 2q-54 2 -91.5 2t-69.5 -2l-27 -2l-5 51l66 10q1 9 5.5 34.5t4.5 45.5v174q0 58 -25.5 92.5t-79 34.5t-88 -39.5
t-38.5 -96.5v-135q0 -53 3 -74l4 -36l78 -6l-6 -55l-48 2q-56 2 -90.5 2t-66.5 -2l-26 -2l-5 51l66 10q1 9 5.5 34.5t4.5 45.5v483q0 15 -4.5 40.5t-5.5 39.5l-76 12zM110 922l174 -107l-23 -39l-88 41l-63 25l-63 -25l-88 -41l-23 39z" />
    <glyph glyph-name="Itilde" unicode="&#x128;" horiz-adv-x="343" 
d="M127 137v431q0 15 -4.5 40.5t-5.5 39.5l-77 9l5 53l32 -3q38 -2 82 -2t85 4l53 4l6 -59l-78 -6l-4 -36q-3 -21 -3 -74v-371q0 -53 3 -74l4 -36l78 -6l-6 -55l-53 2q-62 2 -95.5 2t-71.5 -2l-32 -2l-5 52l77 9q1 9 5.5 34.5t4.5 45.5zM348 900q-47 -98 -83 -98
q-20 0 -82 20.5t-79 20.5t-40 -27q-8 -10 -16 -27l-36 21q9 22 26 50q31 51 53.5 51t85 -20.5t80.5 -20.5t39 25q7 8 16 26z" />
    <glyph glyph-name="itilde" unicode="&#x129;" horiz-adv-x="299" 
d="M32 503q70 -9 104 -9t43 1l16 2l6 -6l-4 -63q-3 -35 -3 -101v-160q0 -53 3 -74l4 -36l78 -6l-6 -55l-48 2q-56 2 -90 2t-72 -2l-32 -2l-5 49l77 12q1 9 5.5 34.5t4.5 45.5v220q0 15 -4.5 40.5t-5.5 39.5l-76 12zM252 653q-31 -49 -52.5 -49t-61.5 20.5t-55.5 20.5
t-38.5 -27q-7 -10 -16 -27l-36 21q9 22 26 50q31 51 56 51q17 0 57 -20.5t57 -20.5t38 25q7 8 16 26l36 -21q-10 -25 -26 -49z" />
    <glyph glyph-name="imacron" unicode="&#x12b;" horiz-adv-x="299" 
d="M32 503q70 -9 104 -9t43 1l16 2l6 -6l-4 -63q-3 -35 -3 -101v-160q0 -53 3 -74l4 -36l78 -6l-6 -55l-48 2q-56 2 -90 2t-72 -2l-32 -2l-5 49l77 12q1 9 5.5 34.5t4.5 45.5v220q0 15 -4.5 40.5t-5.5 39.5l-76 12zM7 626v53h258l-5 -53h-253z" />
    <glyph glyph-name="Ibreve" unicode="&#x12c;" horiz-adv-x="343" 
d="M127 137v431q0 15 -4.5 40.5t-5.5 39.5l-77 9l5 53l32 -3q38 -2 82 -2t85 4l53 4l6 -59l-78 -6l-4 -36q-3 -21 -3 -74v-371q0 -53 3 -74l4 -36l78 -6l-6 -55l-53 2q-62 2 -95.5 2t-71.5 -2l-32 -2l-5 52l77 9q1 9 5.5 34.5t4.5 45.5zM180 832q38 0 60.5 23t22.5 61h56
q0 -68 -35.5 -104t-103.5 -36t-103.5 36t-35.5 104h56q0 -38 22.5 -61t60.5 -23z" />
    <glyph glyph-name="Iogonek" unicode="&#x12e;" horiz-adv-x="343" 
d="M127 137v431q0 15 -4.5 40.5t-5.5 39.5l-77 9l5 53l32 -3q38 -2 82 -2t85 4l53 4l6 -59l-78 -6l-4 -36q-3 -21 -3 -74v-371q0 -53 3 -74l4 -36l78 -6l-6 -55l-53 2q-62 2 -95.5 2t-71.5 -2l-32 -2l-5 52l77 9q1 9 5.5 34.5t4.5 45.5zM250 0l47 -4q-28 -31 -39 -53
t-11 -51q0 -47 54 -47q26 0 56 13l14 -33q-47 -22 -90 -22t-71 22.5t-28 60t15.5 59.5t52.5 55z" />
    <glyph glyph-name="iogonek" unicode="&#x12f;" horiz-adv-x="299" 
d="M100 702.5q15 17.5 43.5 17.5t44 -17t15.5 -47.5t-15 -47.5t-44 -17t-44 17t-15 47t15 47.5zM32 503q70 -9 104 -9t43 1l16 2l6 -6l-4 -63q-3 -35 -3 -101v-160q0 -53 3 -74l4 -36l78 -6l-6 -55l-48 2q-56 2 -90 2t-72 -2l-32 -2l-5 49l77 12q1 9 5.5 34.5t4.5 45.5v220
q0 15 -4.5 40.5t-5.5 39.5l-76 12zM226 0l47 -4q-28 -31 -39 -53t-11 -51q0 -47 54 -47q26 0 56 13l14 -33q-47 -22 -90 -22t-71 22.5t-28 60t15.5 59.5t52.5 55z" />
    <glyph glyph-name="Idotaccent" unicode="&#x130;" horiz-adv-x="343" 
d="M127 137v431q0 15 -4.5 40.5t-5.5 39.5l-77 9l5 53l32 -3q38 -2 82 -2t85 4l53 4l6 -59l-78 -6l-4 -36q-3 -21 -3 -74v-371q0 -53 3 -74l4 -36l78 -6l-6 -55l-53 2q-62 2 -95.5 2t-71.5 -2l-32 -2l-5 52l77 9q1 9 5.5 34.5t4.5 45.5zM136 887.5q15 17.5 43.5 17.5t44 -17
t15.5 -47.5t-15 -47.5t-44 -17t-44 17t-15 47t15 47.5z" />
    <glyph glyph-name="dotlessi" unicode="&#x131;" horiz-adv-x="299" 
d="M32 503q70 -9 104 -9t43 1l16 2l6 -6l-4 -63q-3 -35 -3 -101v-160q0 -53 3 -74l4 -36l78 -6l-6 -55l-48 2q-56 2 -90 2t-72 -2l-32 -2l-5 49l77 12q1 9 5.5 34.5t4.5 45.5v220q0 15 -4.5 40.5t-5.5 39.5l-76 12z" />
    <glyph glyph-name="Lslash" unicode="&#x141;" horiz-adv-x="555" 
d="M65 259l-20 38l352 170l20 -37zM247 538v-371q0 -53 3 -74l4 -36h118q35 0 87 9q15 20 21 37q1 8 7.5 34.5t7.5 32.5l55 -5l-15 -158l-10 -11l-54 2q-56 2 -69 2h-233q-25 0 -63 -2l-32 -2l-5 52l77 9q1 9 5.5 34.5t4.5 45.5v431q0 15 -4.5 40.5t-5.5 39.5l-77 9l5 53
l32 -3q38 -2 82 -2t85 4l53 4l6 -59l-78 -6l-4 -36q-3 -21 -3 -74z" />
    <glyph glyph-name="lslash" unicode="&#x142;" horiz-adv-x="342" 
d="M40 259l-20 38l278 134l20 -37zM50 766q78 -10 104.5 -10t44.5 2l16 2l6 -6l-4 -63q-3 -35 -3 -101v-423q0 -53 3 -74l4 -36l78 -6l-6 -55l-48 2q-58 2 -92 2t-72 -2l-32 -2l-5 49l77 12q1 9 5.5 34.5t4.5 45.5v483q0 15 -4.5 40.5t-5.5 39.5l-76 12z" />
    <glyph glyph-name="Nacute" unicode="&#x143;" horiz-adv-x="764" 
d="M639 297l-1 -167v-137h-60l-394 563v-389q0 -53 3 -74l4 -36l78 -6l-6 -55l-36 2q-46 2 -82.5 2t-71.5 -5l-36 -4l-7 57l77 9q1 9 5.5 34.5t4.5 45.5v431q0 16 -4.5 43t-5.5 38l-76 8l5 53l42 -3q46 -2 68 -2t52 2l25 2l5 -6q15 -36 44.5 -99t37.5 -74l262 -367v395
q0 19 -4.5 47t-5.5 43l-77 8l5 54l32 -3q38 -2 81 -2t79 4l46 4l6 -59l-78 -6l-9 -41q-8 -48 -8 -79v-231zM507 927l30 -73l-68 -17q-14 -4 -34 -8.5t-32.5 -8t-16.5 -4.5l-88 -37l-20 48z" />
    <glyph glyph-name="nacute" unicode="&#x144;" horiz-adv-x="610" 
d="M26 455l5 51l31 -3q19 -3 50.5 -3t38.5 1l12 2l6 -6l13 -79q19 33 58 59t99 26q97 0 131.5 -56.5t34.5 -169.5v-110q0 -53 3 -74l4 -36l79 -6l-6 -55l-44 2q-54 2 -91.5 2t-69.5 -2l-27 -2l-5 51l66 10q1 9 5.5 34.5t4.5 45.5v174q0 58 -25.5 92.5t-79 34.5t-88 -39.5
t-38.5 -96.5v-135q0 -53 3 -74l4 -36l79 -6l-6 -55l-45 2q-54 2 -91.5 2t-69.5 -2l-26 -2l-5 51l66 10q1 9 5.5 34.5t4.5 45.5v220q0 6 -5 34t-9 52zM425 765l49 -62q-50 -28 -61 -35l-73 -43l-74 -61l-33 41z" />
    <glyph glyph-name="Ncaron" unicode="&#x147;" horiz-adv-x="764" 
d="M639 297l-1 -167v-137h-60l-394 563v-389q0 -53 3 -74l4 -36l78 -6l-6 -55l-36 2q-46 2 -82.5 2t-71.5 -5l-36 -4l-7 57l77 9q1 9 5.5 34.5t4.5 45.5v431q0 16 -4.5 43t-5.5 38l-76 8l5 53l42 -3q46 -2 68 -2t52 2l25 2l5 -6q15 -36 44.5 -99t37.5 -74l262 -367v395
q0 19 -4.5 47t-5.5 43l-77 8l5 54l32 -3q38 -2 81 -2t79 4l46 4l6 -59l-78 -6l-9 -41q-8 -48 -8 -79v-231zM539 883l-174 -107l-174 107l23 39l88 -41l63 -25l63 25l88 41z" />
    <glyph glyph-name="ncaron" unicode="&#x148;" horiz-adv-x="610" 
d="M26 455l5 51l31 -3q19 -3 50.5 -3t38.5 1l12 2l6 -6l13 -79q19 33 58 59t99 26q97 0 131.5 -56.5t34.5 -169.5v-110q0 -53 3 -74l4 -36l79 -6l-6 -55l-44 2q-54 2 -91.5 2t-69.5 -2l-27 -2l-5 51l66 10q1 9 5.5 34.5t4.5 45.5v174q0 58 -25.5 92.5t-79 34.5t-88 -39.5
t-38.5 -96.5v-135q0 -53 3 -74l4 -36l79 -6l-6 -55l-45 2q-54 2 -91.5 2t-69.5 -2l-26 -2l-5 51l66 10q1 9 5.5 34.5t4.5 45.5v220q0 6 -5 34t-9 52zM479 733l-166 -169l-166 169l33 32l74 -61l59 -43l59 43l74 61z" />
    <glyph glyph-name="Omacron" unicode="&#x14c;" horiz-adv-x="746" 
d="M616.5 620q84.5 -100 84.5 -267.5t-84.5 -267.5t-243.5 -100t-243.5 100t-84.5 267.5t84.5 267.5t243.5 100t243.5 -100zM152 352q0 -138 57 -226t164 -88t164 88t57 226t-57 226.5t-164 88.5t-164 -88.5t-57 -226.5zM215 811v53h322l-5 -53h-317z" />
    <glyph glyph-name="omacron" unicode="&#x14d;" horiz-adv-x="540" 
d="M441.5 434q58.5 -69 58.5 -187t-59.5 -187.5t-170.5 -69.5t-170.5 69.5t-59.5 187t59.5 187t171.5 69.5t170.5 -69zM406 246q0 87 -32 143.5t-104 56.5t-104 -56.5t-32 -143.5t32 -143t104 -56t104 56t32 143zM111 626v53h322l-5 -53h-317z" />
    <glyph glyph-name="Obreve" unicode="&#x14e;" horiz-adv-x="746" 
d="M616.5 620q84.5 -100 84.5 -267.5t-84.5 -267.5t-243.5 -100t-243.5 100t-84.5 267.5t84.5 267.5t243.5 100t243.5 -100zM152 352q0 -138 57 -226t164 -88t164 88t57 226t-57 226.5t-164 88.5t-164 -88.5t-57 -226.5zM374 832q38 0 60.5 23t22.5 61h56q0 -68 -35.5 -104
t-103.5 -36t-103.5 36t-35.5 104h56q0 -38 22.5 -61t60.5 -23z" />
    <glyph glyph-name="obreve" unicode="&#x14f;" horiz-adv-x="540" 
d="M441.5 434q58.5 -69 58.5 -187t-59.5 -187.5t-170.5 -69.5t-170.5 69.5t-59.5 187t59.5 187t171.5 69.5t170.5 -69zM406 246q0 87 -32 143.5t-104 56.5t-104 -56.5t-32 -143.5t32 -143t104 -56t104 56t32 143zM270 643q38 0 60.5 23t22.5 61h56q0 -68 -35.5 -104
t-103.5 -36t-103.5 36t-35.5 104h56q0 -38 22.5 -61t60.5 -23z" />
    <glyph glyph-name="Ohungarumlaut" unicode="&#x150;" horiz-adv-x="746" 
d="M616.5 620q84.5 -100 84.5 -267.5t-84.5 -267.5t-243.5 -100t-243.5 100t-84.5 267.5t84.5 267.5t243.5 100t243.5 -100zM152 352q0 -138 57 -226t164 -88t164 88t57 226t-57 226.5t-164 88.5t-164 -88.5t-57 -226.5zM421 942l41 -67q-18 -9 -48.5 -22t-47.5 -21
q-42 -17 -47 -19l-81 -50l-27 43zM661 942l41 -67q-18 -9 -48.5 -22t-47.5 -21q-42 -17 -47 -19l-81 -50l-27 43z" />
    <glyph glyph-name="ohungarumlaut" unicode="&#x151;" horiz-adv-x="540" 
d="M441.5 434q58.5 -69 58.5 -187t-59.5 -187.5t-170.5 -69.5t-170.5 69.5t-59.5 187t59.5 187t171.5 69.5t170.5 -69zM406 246q0 87 -32 143.5t-104 56.5t-104 -56.5t-32 -143.5t32 -143t104 -56t104 56t32 143zM306 765l49 -62q-50 -28 -61 -35l-73 -43l-74 -61l-33 41z
M507 765l49 -62q-50 -28 -61 -35l-73 -43l-74 -61l-33 41z" />
    <glyph glyph-name="OE" unicode="&#x152;" horiz-adv-x="971" 
d="M785 705q25 0 123 10l10 -11l7 -143l-58 -5q-8 43 -12 56t-19 32q-38 5 -81 5h-131q-6 -44 -6 -111v-144q34 -2 42 -2h73q24 0 60 9l9 66l46 -5q-1 -12 -1 -33v-47q0 -52 1 -73l2 -36l-48 -6l-9 67l-33 3l-47 3h-53q-8 0 -42 -2v-171q0 -70 6 -110h144q35 0 87 9
q15 20 21 37q1 8 7.5 34.5t7.5 32.5l55 -5l-15 -158l-10 -11l-54 2q-56 2 -69 2h-249q-48 -2 -67 -5l-36 -4q-34 -6 -73 -6q-159 0 -243.5 100t-84.5 267.5t84.5 267.5t243.5 100q53 0 103 -13q32 -2 53 -2h256zM373 38q93 0 150 70q3 18 3 29v431q0 11 -3 29
q-57 70 -150 70q-107 0 -164 -88.5t-57 -226.5t57 -226t164 -88z" />
    <glyph glyph-name="oe" unicode="&#x153;" horiz-adv-x="826" 
d="M798 50q-72 -60 -182 -60t-171 75q-61 -75 -173.5 -75t-172 69.5t-59.5 187t59.5 187t172 69.5t173.5 -74q58 73 164 73q192 0 192 -232l-17 -33h-299q2 -74 37.5 -128t98.5 -54q81 0 149 41zM406 246q0 87 -32 143.5t-104 56.5t-104 -56.5t-32 -143.5t32 -143t104 -56
t104 56t32 143zM708 312l1 12q0 58 -25.5 92t-78.5 34q-103 0 -119 -162q189 16 222 16v8z" />
    <glyph glyph-name="Racute" unicode="&#x154;" horiz-adv-x="617" 
d="M136 705l184 10q104 0 162 -50.5t58 -147.5q0 -69 -41.5 -117t-109.5 -68q79 -157 106 -201q0 -1 50 -72l67 -11l-4 -52l-37 2q-42 2 -57.5 2t-51.5 -4l-6 4q-40 91 -55 116l-104 204q-60 0 -88 1v-154q0 -52 3 -73l4 -36l68 -7l-6 -55l-38 2q-46 2 -85 2t-77 -5l-41 -4
l-7 57l77 9q1 9 5.5 34.5t4.5 45.5v431q0 15 -4.5 40.5t-5.5 39.5l-77 12l5 50l32 -3q38 -2 63 -2h6zM277 371q77 0 121.5 37.5t44.5 109.5t-44 109.5t-121 37.5q-22 0 -62 -5v-2l-4 -41q-3 -24 -3 -79v-164q25 -3 68 -3zM413 927l30 -73l-68 -17q-14 -4 -34 -8.5t-32.5 -8
t-16.5 -4.5l-88 -37l-20 48z" />
    <glyph glyph-name="racute" unicode="&#x155;" horiz-adv-x="418" 
d="M193 284v-117q0 -53 3 -74l4 -36l99 -8l-6 -53l-55 2q-64 2 -101.5 2t-69.5 -2l-26 -2l-5 51l66 10q1 9 5.5 34.5t4.5 45.5v220q0 6 -5 34t-9 52l-72 12l5 51l31 -3q19 -3 50.5 -3t38.5 1l12 2l6 -6l15 -88q57 94 161 94q28 0 48 -5l20 -5l-10 -165l-57 3l-1 53
q0 8 -14 50q-70 0 -102.5 -37.5t-35.5 -112.5zM337 765l49 -62q-50 -28 -61 -35l-73 -43l-74 -61l-33 41z" />
    <glyph glyph-name="Rcaron" unicode="&#x158;" horiz-adv-x="617" 
d="M136 705l184 10q104 0 162 -50.5t58 -147.5q0 -69 -41.5 -117t-109.5 -68q79 -157 106 -201q0 -1 50 -72l67 -11l-4 -52l-37 2q-42 2 -57.5 2t-51.5 -4l-6 4q-40 91 -55 116l-104 204q-60 0 -88 1v-154q0 -52 3 -73l4 -36l68 -7l-6 -55l-38 2q-46 2 -85 2t-77 -5l-41 -4
l-7 57l77 9q1 9 5.5 34.5t4.5 45.5v431q0 15 -4.5 40.5t-5.5 39.5l-77 12l5 50l32 -3q38 -2 63 -2h6zM277 371q77 0 121.5 37.5t44.5 109.5t-44 109.5t-121 37.5q-22 0 -62 -5v-2l-4 -41q-3 -24 -3 -79v-164q25 -3 68 -3zM445 883l-174 -107l-174 107l23 39l88 -41l63 -25
l63 25l88 41z" />
    <glyph glyph-name="rcaron" unicode="&#x159;" horiz-adv-x="418" 
d="M193 284v-117q0 -53 3 -74l4 -36l99 -8l-6 -53l-55 2q-64 2 -101.5 2t-69.5 -2l-26 -2l-5 51l66 10q1 9 5.5 34.5t4.5 45.5v220q0 6 -5 34t-9 52l-72 12l5 51l31 -3q19 -3 50.5 -3t38.5 1l12 2l6 -6l15 -88q57 94 161 94q28 0 48 -5l20 -5l-10 -165l-57 3l-1 53
q0 8 -14 50q-70 0 -102.5 -37.5t-35.5 -112.5zM391 733l-166 -169l-166 169l33 32l74 -61l59 -43l59 43l74 61z" />
    <glyph glyph-name="Sacute" unicode="&#x15a;" horiz-adv-x="549" 
d="M349 263q-33 25 -75 46l-45 23l-6 2q-82 40 -127 84.5t-45 124t60.5 128.5t145.5 49t213 -32l-14 -147l-59 6v40q0 10 -14 56q-53 22 -110 22t-89.5 -29t-32.5 -82q0 -52 50 -90q35 -25 74.5 -44.5t41.5 -20.5q47 -24 74 -41t56 -42q57 -51 57 -140.5t-67 -140
t-160.5 -50.5t-171.5 26q-33 11 -60 27l15 154l66 -6v-48q0 -15 11 -66q63 -27 127 -27t99.5 32.5t35.5 90t-50 95.5zM438 927l30 -73l-68 -17q-14 -4 -34 -8.5t-32.5 -8t-16.5 -4.5l-88 -37l-20 48z" />
    <glyph glyph-name="sacute" unicode="&#x15b;" horiz-adv-x="417" 
d="M203 -10q-93 0 -165 39l11 136l58 -3v-38q0 -12 14 -60q28 -23 85 -23q91 0 91 76q0 29 -26.5 50.5t-63.5 38t-74.5 35t-64 51.5t-26.5 78q0 62 45.5 97.5t119 35.5t147.5 -17l-12 -143l-58 3v36q0 11 -14 57q-28 12 -66 12t-60 -17.5t-22 -46.5t26.5 -50.5t64 -38
t75.5 -35t64.5 -51t26.5 -76.5q0 -146 -176 -146zM331 765l49 -62q-50 -28 -61 -35l-73 -43l-74 -61l-33 41z" />
    <glyph glyph-name="Scircumflex" unicode="&#x15c;" horiz-adv-x="549" 
d="M349 263q-33 25 -75 46l-45 23l-6 2q-82 40 -127 84.5t-45 124t60.5 128.5t145.5 49t213 -32l-14 -147l-59 6v40q0 10 -14 56q-53 22 -110 22t-89.5 -29t-32.5 -82q0 -52 50 -90q35 -25 74.5 -44.5t41.5 -20.5q47 -24 74 -41t56 -42q57 -51 57 -140.5t-67 -140
t-160.5 -50.5t-171.5 26q-33 11 -60 27l15 154l66 -6v-48q0 -15 11 -66q63 -27 127 -27t99.5 32.5t35.5 90t-50 95.5zM296 922l174 -107l-23 -39l-88 41l-63 25l-63 -25l-88 -41l-23 39z" />
    <glyph glyph-name="scircumflex" unicode="&#x15d;" horiz-adv-x="417" 
d="M203 -10q-93 0 -165 39l11 136l58 -3v-38q0 -12 14 -60q28 -23 85 -23q91 0 91 76q0 29 -26.5 50.5t-63.5 38t-74.5 35t-64 51.5t-26.5 78q0 62 45.5 97.5t119 35.5t147.5 -17l-12 -143l-58 3v36q0 11 -14 57q-28 12 -66 12t-60 -17.5t-22 -46.5t26.5 -50.5t64 -38
t75.5 -35t64.5 -51t26.5 -76.5q0 -146 -176 -146zM220 765l166 -169l-33 -32l-74 61q-28 18 -59 42q-11 -8 -24.5 -18t-22.5 -16l-12 -8l-74 -61l-33 32z" />
    <glyph glyph-name="Scedilla" unicode="&#x15e;" horiz-adv-x="549" 
d="M349 263q-33 25 -75 46l-45 23l-6 2q-82 40 -127 84.5t-45 124t60.5 128.5t145.5 49t213 -32l-14 -147l-59 6v40q0 10 -14 56q-53 22 -110 22t-89.5 -29t-32.5 -82q0 -52 50 -90q35 -25 74.5 -44.5t41.5 -20.5q47 -24 74 -41t56 -42q57 -51 57 -140.5t-67 -140
t-160.5 -50.5t-171.5 26q-33 11 -60 27l15 154l66 -6v-48q0 -15 11 -66q63 -27 127 -27t99.5 32.5t35.5 90t-50 95.5zM270 -103l-13 -1h-8l-11 10l9 94h48l-14 -59q46 -1 73.5 -24t27.5 -63t-30.5 -64.5t-76 -24.5t-83.5 18l13 35q35 -11 59 -11t38.5 12t14.5 35
q0 43 -47 43z" />
    <glyph glyph-name="scedilla" unicode="&#x15f;" horiz-adv-x="417" 
d="M203 -10q-93 0 -165 39l11 136l58 -3v-38q0 -12 14 -60q28 -23 85 -23q91 0 91 76q0 29 -26.5 50.5t-63.5 38t-74.5 35t-64 51.5t-26.5 78q0 62 45.5 97.5t119 35.5t147.5 -17l-12 -143l-58 3v36q0 11 -14 57q-28 12 -66 12t-60 -17.5t-22 -46.5t26.5 -50.5t64 -38
t75.5 -35t64.5 -51t26.5 -76.5q0 -146 -176 -146zM209 -103l-13 -1h-8l-11 10l9 94h48l-14 -59q46 -1 73.5 -24t27.5 -63t-30.5 -64.5t-76 -24.5t-83.5 18l13 35q35 -11 59 -11t38.5 12t14.5 35q0 43 -47 43z" />
    <glyph glyph-name="Scaron" unicode="&#x160;" horiz-adv-x="549" 
d="M349 263q-33 25 -75 46l-45 23l-6 2q-82 40 -127 84.5t-45 124t60.5 128.5t145.5 49t213 -32l-14 -147l-59 6v40q0 10 -14 56q-53 22 -110 22t-89.5 -29t-32.5 -82q0 -52 50 -90q35 -25 74.5 -44.5t41.5 -20.5q47 -24 74 -41t56 -42q57 -51 57 -140.5t-67 -140
t-160.5 -50.5t-171.5 26q-33 11 -60 27l15 154l66 -6v-48q0 -15 11 -66q63 -27 127 -27t99.5 32.5t35.5 90t-50 95.5zM470 883l-174 -107l-174 107l23 39l88 -41l63 -25l63 25l88 41z" />
    <glyph glyph-name="scaron" unicode="&#x161;" horiz-adv-x="417" 
d="M203 -10q-93 0 -165 39l11 136l58 -3v-38q0 -12 14 -60q28 -23 85 -23q91 0 91 76q0 29 -26.5 50.5t-63.5 38t-74.5 35t-64 51.5t-26.5 78q0 62 45.5 97.5t119 35.5t147.5 -17l-12 -143l-58 3v36q0 11 -14 57q-28 12 -66 12t-60 -17.5t-22 -46.5t26.5 -50.5t64 -38
t75.5 -35t64.5 -51t26.5 -76.5q0 -146 -176 -146zM385 733l-166 -169l-166 169l33 32l74 -61l59 -43l59 43l74 61z" />
    <glyph glyph-name="tcedilla" unicode="&#x163;" horiz-adv-x="342" 
d="M230 54q-54 0 -54 78v308h135l5 54h-140v103l-40 4l-20 -41q-25 -48 -26 -49q-13 -9 -52 -21q-18 -5 -28 -8l3 -42h77v-284q0 -86 29 -126t98 -40q53 0 120 52l-28 41q-43 -29 -79 -29zM194 -103l-13 -1h-8l-11 10l9 94h48l-14 -59q46 -1 73.5 -24t27.5 -63t-30.5 -64.5
t-76 -24.5t-83.5 18l13 35q35 -11 59 -11t38.5 12t14.5 35q0 43 -47 43z" />
    <glyph glyph-name="Tcaron" unicode="&#x164;" horiz-adv-x="606" 
d="M355 649l-6 -111v-371q0 -52 3 -73l4 -35l88 -8l-6 -55l-58 2q-66 2 -100 2t-72 -2l-32 -2l-5 52l77 9q1 9 5.5 34.5t4.5 45.5v431q0 12 -4 43.5t-6 37.5h-78q-47 -2 -67 -5q-18 -26 -20 -35.5t-10 -52.5l-58 5l7 143l10 11q97 -10 123 -10h296q26 0 123 10l10 -11
l7 -143l-58 -5q-8 43 -12 56t-19 32q-19 3 -66 5h-81zM481 883l-174 -107l-174 107l23 39l88 -41l63 -25l63 25l88 41z" />
    <glyph glyph-name="Utilde" unicode="&#x168;" horiz-adv-x="749" 
d="M562 275v288q0 12 -5 41.5t-6 43.5l-76 8l5 54l24 -3q30 -2 78 -2t85 4l46 4l6 -59l-78 -6l-4 -39q-3 -23 -3 -76v-258q0 -132 -67 -211t-191.5 -79t-191.5 81t-67 214v283q0 18 -4.5 44.5t-5.5 40.5l-77 12l5 50l32 -3q38 -2 83.5 -2t86.5 4l54 4l6 -59l-78 -6l-4 -39
q-3 -23 -3 -76v-258q0 -100 45 -163t129 -63t130 63.5t46 162.5zM554 900q-47 -98 -83 -98q-20 0 -82 20.5t-79 20.5t-40 -27q-8 -10 -16 -27l-36 21q9 22 26 50q31 51 53.5 51t85 -20.5t80.5 -20.5t39 25q7 8 16 26z" />
    <glyph glyph-name="utilde" unicode="&#x169;" horiz-adv-x="589" 
d="M24 503q61 -9 94.5 -9t42.5 1l16 2l6 -6l-4 -63q-3 -35 -3 -101v-144q0 -129 101 -129q57 0 90.5 44t35.5 106v153q0 15 -4.5 40.5t-5.5 39.5l-86 12l5 51l48 -3q27 -3 63.5 -3t45.5 1l16 2l6 -6l-4 -63q-3 -35 -3 -101v-190q0 -23 10 -80l69 -5l-6 -56l-33 2
q-46 2 -97 2l-13 77q-50 -87 -155 -87q-101 0 -134 64q-30 57 -30 163v140q0 15 -4.5 40.5t-5.5 39.5l-66 12zM436 702q-47 -98 -83 -98q-21 0 -77 20.5t-73.5 20.5t-40.5 -27q-8 -10 -16 -27l-36 21q9 22 26 50q31 51 53.5 51t80 -20.5t75.5 -20.5t39 25q7 8 16 26z" />
    <glyph glyph-name="Umacron" unicode="&#x16a;" horiz-adv-x="749" 
d="M562 275v288q0 12 -5 41.5t-6 43.5l-76 8l5 54l24 -3q30 -2 78 -2t85 4l46 4l6 -59l-78 -6l-4 -39q-3 -23 -3 -76v-258q0 -132 -67 -211t-191.5 -79t-191.5 81t-67 214v283q0 18 -4.5 44.5t-5.5 40.5l-77 12l5 50l32 -3q38 -2 83.5 -2t86.5 4l54 4l6 -59l-78 -6l-4 -39
q-3 -23 -3 -76v-258q0 -100 45 -163t129 -63t130 63.5t46 162.5zM227 811v53h322l-5 -53h-317z" />
    <glyph glyph-name="umacron" unicode="&#x16b;" horiz-adv-x="589" 
d="M24 503q61 -9 94.5 -9t42.5 1l16 2l6 -6l-4 -63q-3 -35 -3 -101v-144q0 -129 101 -129q57 0 90.5 44t35.5 106v153q0 15 -4.5 40.5t-5.5 39.5l-86 12l5 51l48 -3q27 -3 63.5 -3t45.5 1l16 2l6 -6l-4 -63q-3 -35 -3 -101v-190q0 -23 10 -80l69 -5l-6 -56l-33 2
q-46 2 -97 2l-13 77q-50 -87 -155 -87q-101 0 -134 64q-30 57 -30 163v140q0 15 -4.5 40.5t-5.5 39.5l-66 12zM114 626v53h322l-5 -53h-317z" />
    <glyph glyph-name="Ubreve" unicode="&#x16c;" horiz-adv-x="749" 
d="M562 275v288q0 12 -5 41.5t-6 43.5l-76 8l5 54l24 -3q30 -2 78 -2t85 4l46 4l6 -59l-78 -6l-4 -39q-3 -23 -3 -76v-258q0 -132 -67 -211t-191.5 -79t-191.5 81t-67 214v283q0 18 -4.5 44.5t-5.5 40.5l-77 12l5 50l32 -3q38 -2 83.5 -2t86.5 4l54 4l6 -59l-78 -6l-4 -39
q-3 -23 -3 -76v-258q0 -100 45 -163t129 -63t130 63.5t46 162.5zM386 832q38 0 60.5 23t22.5 61h56q0 -68 -35.5 -104t-103.5 -36t-103.5 36t-35.5 104h56q0 -38 22.5 -61t60.5 -23z" />
    <glyph glyph-name="ubreve" unicode="&#x16d;" horiz-adv-x="589" 
d="M24 503q61 -9 94.5 -9t42.5 1l16 2l6 -6l-4 -63q-3 -35 -3 -101v-144q0 -129 101 -129q57 0 90.5 44t35.5 106v153q0 15 -4.5 40.5t-5.5 39.5l-86 12l5 51l48 -3q27 -3 63.5 -3t45.5 1l16 2l6 -6l-4 -63q-3 -35 -3 -101v-190q0 -23 10 -80l69 -5l-6 -56l-33 2
q-46 2 -97 2l-13 77q-50 -87 -155 -87q-101 0 -134 64q-30 57 -30 163v140q0 15 -4.5 40.5t-5.5 39.5l-66 12zM273 643q38 0 60.5 23t22.5 61h56q0 -68 -35.5 -104t-103.5 -36t-103.5 36t-35.5 104h56q0 -38 22.5 -61t60.5 -23z" />
    <glyph glyph-name="Uring" unicode="&#x16e;" horiz-adv-x="749" 
d="M562 275v288q0 12 -5 41.5t-6 43.5l-76 8l5 54l24 -3q30 -2 78 -2t85 4l46 4l6 -59l-78 -6l-4 -39q-3 -23 -3 -76v-258q0 -132 -67 -211t-191.5 -79t-191.5 81t-67 214v283q0 18 -4.5 44.5t-5.5 40.5l-77 12l5 50l32 -3q38 -2 83.5 -2t86.5 4l54 4l6 -59l-78 -6l-4 -39
q-3 -23 -3 -76v-258q0 -100 45 -163t129 -63t130 63.5t46 162.5zM452.5 913q22.5 -23 22.5 -62.5t-22.5 -62.5t-66.5 -23t-67 23t-23 62.5t23 62.5t67 23t66.5 -23zM428 850.5q0 47.5 -41.5 47.5t-41.5 -47.5t41.5 -47.5t41.5 47.5z" />
    <glyph glyph-name="uring" unicode="&#x16f;" horiz-adv-x="589" 
d="M24 503q61 -9 94.5 -9t42.5 1l16 2l6 -6l-4 -63q-3 -35 -3 -101v-144q0 -129 101 -129q57 0 90.5 44t35.5 106v153q0 15 -4.5 40.5t-5.5 39.5l-86 12l5 51l48 -3q27 -3 63.5 -3t45.5 1l16 2l6 -6l-4 -63q-3 -35 -3 -101v-190q0 -23 10 -80l69 -5l-6 -56l-33 2
q-46 2 -97 2l-13 77q-50 -87 -155 -87q-101 0 -134 64q-30 57 -30 163v140q0 15 -4.5 40.5t-5.5 39.5l-66 12zM339.5 728q22.5 -23 22.5 -62.5t-22.5 -62.5t-66.5 -23t-67 23t-23 62.5t23 62.5t67 23t66.5 -23zM315 665.5q0 47.5 -41.5 47.5t-41.5 -47.5t41.5 -47.5
t41.5 47.5z" />
    <glyph glyph-name="Uhungarumlaut" unicode="&#x170;" horiz-adv-x="749" 
d="M562 275v288q0 12 -5 41.5t-6 43.5l-76 8l5 54l24 -3q30 -2 78 -2t85 4l46 4l6 -59l-78 -6l-4 -39q-3 -23 -3 -76v-258q0 -132 -67 -211t-191.5 -79t-191.5 81t-67 214v283q0 18 -4.5 44.5t-5.5 40.5l-77 12l5 50l32 -3q38 -2 83.5 -2t86.5 4l54 4l6 -59l-78 -6l-4 -39
q-3 -23 -3 -76v-258q0 -100 45 -163t129 -63t130 63.5t46 162.5zM433 942l41 -67q-18 -9 -48.5 -22t-47.5 -21q-42 -18 -47 -19l-81 -50l-27 43zM673 942l41 -67q-18 -9 -48.5 -22t-47.5 -21q-42 -17 -47 -19l-81 -50l-27 43z" />
    <glyph glyph-name="uhungarumlaut" unicode="&#x171;" horiz-adv-x="589" 
d="M24 503q61 -9 94.5 -9t42.5 1l16 2l6 -6l-4 -63q-3 -35 -3 -101v-144q0 -129 101 -129q57 0 90.5 44t35.5 106v153q0 15 -4.5 40.5t-5.5 39.5l-86 12l5 51l48 -3q27 -3 63.5 -3t45.5 1l16 2l6 -6l-4 -63q-3 -35 -3 -101v-190q0 -23 10 -80l69 -5l-6 -56l-33 2
q-46 2 -97 2l-13 77q-50 -87 -155 -87q-101 0 -134 64q-30 57 -30 163v140q0 15 -4.5 40.5t-5.5 39.5l-66 12zM309 765l49 -62q-50 -28 -61 -35l-73 -43l-74 -61l-33 41zM510 765l49 -62q-50 -28 -61 -35l-73 -43l-74 -61l-33 41z" />
    <glyph glyph-name="Uogonek" unicode="&#x172;" horiz-adv-x="749" 
d="M562 275v288q0 12 -5 41.5t-6 43.5l-76 8l5 54l24 -3q30 -2 78 -2t85 4l46 4l6 -59l-78 -6l-4 -39q-3 -23 -3 -76v-258q0 -132 -67 -211t-191.5 -79t-191.5 81t-67 214v283q0 18 -4.5 44.5t-5.5 40.5l-77 12l5 50l32 -3q38 -2 83.5 -2t86.5 4l54 4l6 -59l-78 -6l-4 -39
q-3 -23 -3 -76v-258q0 -100 45 -163t129 -63t130 63.5t46 162.5zM386 0l47 -4q-28 -31 -39 -53t-11 -51q0 -47 54 -47q26 0 56 13l14 -33q-47 -22 -90 -22t-71 22.5t-28 60t15.5 59.5t52.5 55z" />
    <glyph glyph-name="uogonek" unicode="&#x173;" horiz-adv-x="589" 
d="M24 503q61 -9 94.5 -9t42.5 1l16 2l6 -6l-4 -63q-3 -35 -3 -101v-144q0 -129 101 -129q57 0 90.5 44t35.5 106v153q0 15 -4.5 40.5t-5.5 39.5l-86 12l5 51l48 -3q27 -3 63.5 -3t45.5 1l16 2l6 -6l-4 -63q-3 -35 -3 -101v-190q0 -23 10 -80l69 -5l-6 -56l-33 2
q-46 2 -97 2l-13 77q-50 -87 -155 -87q-101 0 -134 64q-30 57 -30 163v140q0 15 -4.5 40.5t-5.5 39.5l-66 12zM511 0l47 -4q-28 -31 -39 -53t-11 -51q0 -47 54 -47q26 0 56 13l14 -33q-47 -22 -90 -22t-71 22.5t-28 60t15.5 59.5t52.5 55z" />
    <glyph glyph-name="Wcircumflex" unicode="&#x174;" horiz-adv-x="995" 
d="M330 167l151 529h46l182 -529l108 411q4 19 10 66l-73 10l5 57l35 -3q19 -3 68.5 -3t87.5 3l39 4l1 -61l-57 -7q-46 -73 -50 -99l-162 -545h-51l-180 507q-21 -69 -69 -240.5t-80 -266.5h-51l-196 559q-33 60 -49 88l-40 4l4 59l40 -3q46 -2 85.5 -2t76.5 3l39 4l2 -63
l-75 -7q25 -104 30 -116zM494 922l174 -107l-23 -39l-88 41l-63 25l-63 -25l-88 -41l-23 39z" />
    <glyph glyph-name="wcircumflex" unicode="&#x175;" horiz-adv-x="800" 
d="M5 503q63 -9 104 -9t60 3l35 4l5 -55l-57 -7l27 -90l85 -244l125 389h40l137 -389l78 246q5 27 22 88l-64 10l5 54q70 -9 107 -9t53 3l29 3l4 -54l-52 -7q-48 -104 -50 -120l-107 -319h-67l-125 324l-109 -324h-67l-64 164q-65 166 -69.5 181t-42.5 95l-47 9zM403 765
l166 -169l-33 -32l-74 61q-28 18 -59 42q-11 -8 -24.5 -18t-22.5 -16l-12 -8l-74 -61l-33 32z" />
    <glyph glyph-name="Ycircumflex" unicode="&#x176;" horiz-adv-x="645" 
d="M184 48l77 9q1 9 5.5 34.5t4.5 45.5v133l-152 289q-25 33 -74 88l-40 4l4 59l40 -3q46 -2 85.5 -2t76.5 3l39 4l2 -63l-63 -6q36 -100 45 -117l92 -180l118 232q5 10 24 68l-64 8l5 57l35 -3q19 -3 68.5 -3t87.5 3l39 4l1 -61l-68 -9l-76 -96l-132 -254v-125q0 -53 3 -74
l4 -36l78 -6l-6 -55l-53 2q-62 2 -96.5 2t-72.5 -2l-32 -2zM325 922l174 -107l-23 -39l-88 41l-63 25l-63 -25l-88 -41l-23 39z" />
    <glyph glyph-name="ycircumflex" unicode="&#x177;" horiz-adv-x="539" 
d="M341 503q70 -9 107 -9t53 3l29 3l4 -54l-38 -5q-58 -117 -60 -122l-126 -319l-84 -235l-163 11l8 58q5 -1 16 -1h24q16 0 66 12q32 48 39 66l28 80l-148 353q-4 13 -51 97l-40 8l5 54q70 -9 108.5 -9t57.5 3l35 4l5 -55l-62 -8q16 -56 27 -89l102 -253l92 255
q15 44 26 88l-65 10zM282 765l166 -169l-33 -32l-74 61q-28 18 -59 42q-11 -8 -24.5 -18t-22.5 -16l-12 -8l-74 -61l-33 32z" />
    <glyph glyph-name="Ydieresis" unicode="&#x178;" horiz-adv-x="645" 
d="M184 48l77 9q1 9 5.5 34.5t4.5 45.5v133l-152 289q-25 33 -74 88l-40 4l4 59l40 -3q46 -2 85.5 -2t76.5 3l39 4l2 -63l-63 -6q36 -100 45 -117l92 -180l118 232q5 10 24 68l-64 8l5 57l35 -3q19 -3 68.5 -3t87.5 3l39 4l1 -61l-68 -9l-76 -96l-132 -254v-125q0 -53 3 -74
l4 -36l78 -6l-6 -55l-53 2q-62 2 -96.5 2t-72.5 -2l-32 -2zM202 912q54 0 54 -59.5t-54 -59.5t-54 59q0 28 14 44t40 16zM448 912q54 0 54 -59.5t-54 -59.5t-54 59q0 28 14 44t40 16z" />
    <glyph glyph-name="Zacute" unicode="&#x179;" horiz-adv-x="551" 
d="M61 715q98 -10 123 -10h331l7 -56q-84 -119 -109 -155l-186 -303l-70 -132h196q29 0 91 12q12 18 17 32l15 77l55 -5l-15 -168l-10 -11l-54 2q-56 2 -69 2h-356l-7 57l52 66q55 71 71 96l189 301l67 126h-185q-14 0 -86 -8q-14 -21 -15.5 -29t-5.5 -33.5t-5 -29.5l-58 5
l7 153zM439 927l30 -73l-68 -17q-14 -4 -34 -8.5t-32.5 -8t-16.5 -4.5l-88 -37l-20 48z" />
    <glyph glyph-name="zacute" unicode="&#x17a;" horiz-adv-x="457" 
d="M403 -3l-118 3h-243l-7 58l42 47q42 46 53 63l125 184q40 70 50 90h-122q-7 0 -53 -6q-24 -48 -24 -62l-4 -35l-58 4l6 146l8 8l44 -2q23 -1 60 -1h242l7 -58l-18 -22q-49 -60 -68 -87l-123 -185q-12 -14 -50 -90h125q11 0 59 6q20 41 22 52q4 20 6 39l58 -6l-9 -136z
M341 765l49 -62q-50 -28 -61 -35l-73 -43l-74 -61l-33 41z" />
    <glyph glyph-name="Zdotaccent" unicode="&#x17b;" horiz-adv-x="551" 
d="M61 715q98 -10 123 -10h331l7 -56q-84 -119 -109 -155l-186 -303l-70 -132h196q29 0 91 12q12 18 17 32l15 77l55 -5l-15 -168l-10 -11l-54 2q-56 2 -69 2h-356l-7 57l52 66q55 71 71 96l189 301l67 126h-185q-14 0 -86 -8q-14 -21 -15.5 -29t-5.5 -33.5t-5 -29.5l-58 5
l7 153zM253 887.5q15 17.5 43.5 17.5t44 -17t15.5 -47.5t-15 -47.5t-44 -17t-44 17t-15 47t15 47.5z" />
    <glyph glyph-name="zdotaccent" unicode="&#x17c;" horiz-adv-x="457" 
d="M403 -3l-118 3h-243l-7 58l42 47q42 46 53 63l125 184q40 70 50 90h-122q-7 0 -53 -6q-24 -48 -24 -62l-4 -35l-58 4l6 146l8 8l44 -2q23 -1 60 -1h242l7 -58l-18 -22q-49 -60 -68 -87l-123 -185q-12 -14 -50 -90h125q11 0 59 6q20 41 22 52q4 20 6 39l58 -6l-9 -136z
M185 702.5q15 17.5 43.5 17.5t44 -17t15.5 -47.5t-15 -47.5t-44 -17t-44 17t-15 47t15 47.5z" />
    <glyph glyph-name="Zcaron" unicode="&#x17d;" horiz-adv-x="551" 
d="M61 715q98 -10 123 -10h331l7 -56q-84 -119 -109 -155l-186 -303l-70 -132h196q29 0 91 12q12 18 17 32l15 77l55 -5l-15 -168l-10 -11l-54 2q-56 2 -69 2h-356l-7 57l52 66q55 71 71 96l189 301l67 126h-185q-14 0 -86 -8q-14 -21 -15.5 -29t-5.5 -33.5t-5 -29.5l-58 5
l7 153zM471 883l-174 -107l-174 107l23 39l88 -41l63 -25l63 25l88 41z" />
    <glyph glyph-name="zcaron" unicode="&#x17e;" horiz-adv-x="457" 
d="M403 -3l-118 3h-243l-7 58l42 47q42 46 53 63l125 184q40 70 50 90h-122q-7 0 -53 -6q-24 -48 -24 -62l-4 -35l-58 4l6 146l8 8l44 -2q23 -1 60 -1h242l7 -58l-18 -22q-49 -60 -68 -87l-123 -185q-12 -14 -50 -90h125q11 0 59 6q20 41 22 52q4 20 6 39l58 -6l-9 -136z
M395 733l-166 -169l-166 169l33 32l74 -61l59 -43l59 43l74 61z" />
    <glyph glyph-name="florin" unicode="&#x192;" horiz-adv-x="365" 
d="M96 10l15 430h-77l-2 42q26 8 40 11q23 7 41 18l3 86q3 81 50 127t132 46q32 0 61.5 -4.5t41.5 -5.5l-16 -135l-53 3l2 36q0 17 -12 51q-14 2 -33.5 2t-37.5 -7.5t-28.5 -19t-16.5 -33.5q-8 -35 -10 -91l-2 -72h140l-7 -54h-135l-16 -461q-3 -80 -49.5 -126.5
t-131.5 -46.5l2 53q61 0 78.5 35.5t20.5 115.5z" />
    <glyph glyph-name="Acaron" unicode="&#x1cd;" horiz-adv-x="686" 
d="M312 705l54 11l110 -286q24 -61 52 -136q60 -158 64 -166q8 -24 38 -74l51 -5l-3 -53l-69 2q-74 2 -93 2t-45 -2l-24 -2l-5 53l71 7q-7 49 -15 73l-40 104l-249 -3l-41 -115q-7 -31 -11 -58h1l78 -8l-6 -53l-62 2q-70 2 -94.5 2t-46.5 -2l-19 -2l-3 52l57 8
q55 101 56 105zM228 284q54 -2 77 -2t67.5 1.5t65.5 1.5l-109 284zM507 883l-174 -107l-174 107l23 39l88 -41l63 -25l63 25l88 41z" />
    <glyph glyph-name="acaron" unicode="&#x1ce;" horiz-adv-x="513" 
d="M80 344l-11 135q90 24 182.5 24t128 -52t35.5 -160v-154q0 -23 10 -80l69 -5l-6 -56l-33 2q-46 2 -97 2l-14 79q-20 -37 -67.5 -63t-105.5 -26t-94.5 35.5t-36.5 92t29 85.5t73 40.5t192 34.5v33q0 138 -94 138q-55 0 -93 -19q-9 -45 -9 -47v-36zM128 128q0 -74 81 -74
q43 0 80 32t45 81v60q-5 -1 -57.5 -10t-85.5 -17q-63 -16 -63 -72zM405 733l-166 -169l-166 169l33 32l74 -61l59 -43l59 43l74 61z" />
    <glyph glyph-name="Icaron" unicode="&#x1cf;" horiz-adv-x="343" 
d="M127 137v431q0 15 -4.5 40.5t-5.5 39.5l-77 9l5 53l32 -3q38 -2 82 -2t85 4l53 4l6 -59l-78 -6l-4 -36q-3 -21 -3 -74v-371q0 -53 3 -74l4 -36l78 -6l-6 -55l-53 2q-62 2 -95.5 2t-71.5 -2l-32 -2l-5 52l77 9q1 9 5.5 34.5t4.5 45.5zM354 883l-174 -107l-174 107l23 39
l88 -41l63 -25l63 25l88 41z" />
    <glyph glyph-name="icaron" unicode="&#x1d0;" horiz-adv-x="299" 
d="M32 503q70 -9 104 -9t43 1l16 2l6 -6l-4 -63q-3 -35 -3 -101v-160q0 -53 3 -74l4 -36l78 -6l-6 -55l-48 2q-56 2 -90 2t-72 -2l-32 -2l-5 49l77 12q1 9 5.5 34.5t4.5 45.5v220q0 15 -4.5 40.5t-5.5 39.5l-76 12zM291 733l-166 -169l-166 169l33 32l74 -61l59 -43l59 43
l74 61z" />
    <glyph glyph-name="Ocaron" unicode="&#x1d1;" horiz-adv-x="746" 
d="M616.5 620q84.5 -100 84.5 -267.5t-84.5 -267.5t-243.5 -100t-243.5 100t-84.5 267.5t84.5 267.5t243.5 100t243.5 -100zM152 352q0 -138 57 -226t164 -88t164 88t57 226t-57 226.5t-164 88.5t-164 -88.5t-57 -226.5zM548 883l-174 -107l-174 107l23 39l88 -41l63 -25
l63 25l88 41z" />
    <glyph glyph-name="ocaron" unicode="&#x1d2;" horiz-adv-x="540" 
d="M441.5 434q58.5 -69 58.5 -187t-59.5 -187.5t-170.5 -69.5t-170.5 69.5t-59.5 187t59.5 187t171.5 69.5t170.5 -69zM406 246q0 87 -32 143.5t-104 56.5t-104 -56.5t-32 -143.5t32 -143t104 -56t104 56t32 143zM436 733l-166 -169l-166 169l33 32l74 -61l59 -43l59 43
l74 61z" />
    <glyph glyph-name="Ucaron" unicode="&#x1d3;" horiz-adv-x="749" 
d="M562 275v288q0 12 -5 41.5t-6 43.5l-76 8l5 54l24 -3q30 -2 78 -2t85 4l46 4l6 -59l-78 -6l-4 -39q-3 -23 -3 -76v-258q0 -132 -67 -211t-191.5 -79t-191.5 81t-67 214v283q0 18 -4.5 44.5t-5.5 40.5l-77 12l5 50l32 -3q38 -2 83.5 -2t86.5 4l54 4l6 -59l-78 -6l-4 -39
q-3 -23 -3 -76v-258q0 -100 45 -163t129 -63t130 63.5t46 162.5zM560 883l-174 -107l-174 107l23 39l88 -41l63 -25l63 25l88 41z" />
    <glyph glyph-name="ucaron" unicode="&#x1d4;" horiz-adv-x="589" 
d="M24 503q61 -9 94.5 -9t42.5 1l16 2l6 -6l-4 -63q-3 -35 -3 -101v-144q0 -129 101 -129q57 0 90.5 44t35.5 106v153q0 15 -4.5 40.5t-5.5 39.5l-86 12l5 51l48 -3q27 -3 63.5 -3t45.5 1l16 2l6 -6l-4 -63q-3 -35 -3 -101v-190q0 -23 10 -80l69 -5l-6 -56l-33 2
q-46 2 -97 2l-13 77q-50 -87 -155 -87q-101 0 -134 64q-30 57 -30 163v140q0 15 -4.5 40.5t-5.5 39.5l-66 12zM439 733l-166 -169l-166 169l33 32l74 -61l59 -43l59 43l74 61z" />
    <glyph glyph-name="AEmacron" unicode="&#x1e2;" horiz-adv-x="913" 
d="M707 705q25 0 123 10l10 -11l7 -143l-58 -5q-8 43 -12 56t-19 32q-38 5 -81 5h-181q1 -5 4 -45.5t7 -62.5l24 -156l76 -3h48q24 0 60 9l9 66l46 -5q-1 -12 -1 -33v-47q0 -52 1 -73l2 -36l-48 -6l-9 67l-33 3l-47 3h-28q-31 0 -67 -4l24 -152q2 -18 12 -62.5t13 -54.5h121
q35 0 87 9q15 20 21 37q1 8 7.5 34.5t7.5 32.5l55 -5l-15 -158l-10 -11l-54 2q-56 2 -69 2h-261q-14 0 -40 -2l-24 -2l-5 53l70 7v11q0 50 -3 63l-19 123l-212 -3l-70 -148q-4 -11 -14 -46l74 -7l-6 -53l-62 2q-70 2 -94.5 2t-46.5 -2l-19 -2l-3 52l62 9q57 76 64 96
l236 495l-74 12l5 50l32 -3q38 -2 63 -2h314zM272 303q25 -1 66.5 -1t111.5 2l-38 252l-7 28zM378 811v53h322l-5 -53h-317z" />
    <glyph glyph-name="aemacron" unicode="&#x1e3;" horiz-adv-x="753" 
d="M727 50q-72 -60 -177 -60q-64 0 -113.5 28t-75.5 78q-68 -106 -186 -106q-62 0 -98.5 35.5t-36.5 92t29 85.5t73 40.5t192 34.5v33q0 138 -94 138q-55 0 -93 -19q-9 -45 -9 -47v-36l-58 -3l-11 135q90 24 187 24t132 -65q59 64 150 64q178 0 190 -192l-15 -38l-299 -33
q2 -76 37 -130t99 -54q81 0 149 41zM415 289l223 33v2q0 58 -25.5 92t-78.5 34q-103 0 -119 -161zM201 54q65 0 99 50t34 123q-5 -1 -57.5 -10t-85.5 -17q-63 -16 -63 -72q0 -35 19 -54.5t54 -19.5zM229 626v53h322l-5 -53h-317z" />
    <glyph glyph-name="Gcaron" unicode="&#x1e6;" horiz-adv-x="653" 
d="M618 330q-10 -105 -10 -164v-147q-144 -34 -229 -34q-162 0 -248 99t-86 267.5t86 268.5t248 100q81 0 161 -20q50 -12 59 -14l-11 -148l-58 6v45q0 15 -12 49q-81 24 -141 24q-112 0 -170.5 -86t-58.5 -223t58.5 -223.5t170.5 -86.5q64 0 139 20q12 46 12 65v68
q0 15 -4.5 40.5t-5.5 39.5l-86 8l5 57l49 -4q36 -4 68.5 -4t41.5 1l16 2zM561 883l-174 -107l-174 107l23 39l88 -41l63 -25l63 25l88 41z" />
    <glyph glyph-name="gcaron" unicode="&#x1e7;" horiz-adv-x="509" 
d="M247 141q-37 0 -68 9q-27 -34 -27 -43t8 -16t26.5 -11t35 -6t45.5 -5q126 -13 164 -26q45 -14 45 -93t-78.5 -132t-175.5 -53q-198 0 -198 145q0 31 93 100q-45 24 -45 74q0 21 71 81q-89 46 -89 157q0 84 54 132.5t139 48.5q55 0 100 -22l115 25l9 -51l-36 -12
q-6 -2 -25 -16q30 -43 30 -105q0 -84 -54 -132.5t-139 -48.5zM247 192q106 0 106 130t-106 130t-106 -130t106 -130zM383.5 -43.5q-7.5 8.5 -32 13.5t-102 14t-95.5 14q-44 -57 -44 -70q0 -60 35.5 -83t98.5 -23t105 27t42 76q0 23 -7.5 31.5zM434 733l-166 -169l-166 169
l33 32l74 -61l59 -43l59 43l74 61z" />
    <glyph glyph-name="Oogonek" unicode="&#x1ea;" horiz-adv-x="746" 
d="M616.5 620q84.5 -100 84.5 -267.5t-84.5 -267.5t-243.5 -100t-243.5 100t-84.5 267.5t84.5 267.5t243.5 100t243.5 -100zM152 352q0 -138 57 -226t164 -88t164 88t57 226t-57 226.5t-164 88.5t-164 -88.5t-57 -226.5zM374 0l47 -4q-28 -31 -39 -53t-11 -51q0 -47 54 -47
q26 0 56 13l14 -33q-47 -22 -90 -22t-71 22.5t-28 60t15.5 59.5t52.5 55z" />
    <glyph glyph-name="oogonek" unicode="&#x1eb;" horiz-adv-x="540" 
d="M441.5 434q58.5 -69 58.5 -187t-59.5 -187.5t-170.5 -69.5t-170.5 69.5t-59.5 187t59.5 187t171.5 69.5t170.5 -69zM406 246q0 87 -32 143.5t-104 56.5t-104 -56.5t-32 -143.5t32 -143t104 -56t104 56t32 143zM282 0l47 -4q-28 -31 -39 -53t-11 -51q0 -47 54 -47
q26 0 56 13l14 -33q-47 -22 -90 -22t-71 22.5t-28 60t15.5 59.5t52.5 55z" />
    <glyph glyph-name="Gacute" unicode="&#x1f4;" horiz-adv-x="653" 
d="M618 330q-10 -105 -10 -164v-147q-144 -34 -229 -34q-162 0 -248 99t-86 267.5t86 268.5t248 100q81 0 161 -20q50 -12 59 -14l-11 -148l-58 6v45q0 15 -12 49q-81 24 -141 24q-112 0 -170.5 -86t-58.5 -223t58.5 -223.5t170.5 -86.5q64 0 139 20q12 46 12 65v68
q0 15 -4.5 40.5t-5.5 39.5l-86 8l5 57l49 -4q36 -4 68.5 -4t41.5 1l16 2zM529 927l30 -73l-68 -17q-14 -4 -34 -8.5t-32.5 -8t-16.5 -4.5l-88 -37l-20 48z" />
    <glyph glyph-name="gacute" unicode="&#x1f5;" horiz-adv-x="509" 
d="M247 141q-37 0 -68 9q-27 -34 -27 -43t8 -16t26.5 -11t35 -6t45.5 -5q126 -13 164 -26q45 -14 45 -93t-78.5 -132t-175.5 -53q-198 0 -198 145q0 31 93 100q-45 24 -45 74q0 21 71 81q-89 46 -89 157q0 84 54 132.5t139 48.5q55 0 100 -22l115 25l9 -51l-36 -12
q-6 -2 -25 -16q30 -43 30 -105q0 -84 -54 -132.5t-139 -48.5zM247 192q106 0 106 130t-106 130t-106 -130t106 -130zM383.5 -43.5q-7.5 8.5 -32 13.5t-102 14t-95.5 14q-44 -57 -44 -70q0 -60 35.5 -83t98.5 -23t105 27t42 76q0 23 -7.5 31.5zM380 765l49 -62
q-50 -28 -61 -35l-73 -43l-74 -61l-33 41z" />
    <glyph glyph-name="AEacute" unicode="&#x1fc;" horiz-adv-x="913" 
d="M707 705q25 0 123 10l10 -11l7 -143l-58 -5q-8 43 -12 56t-19 32q-38 5 -81 5h-181q1 -5 4 -45.5t7 -62.5l24 -156l76 -3h48q24 0 60 9l9 66l46 -5q-1 -12 -1 -33v-47q0 -52 1 -73l2 -36l-48 -6l-9 67l-33 3l-47 3h-28q-31 0 -67 -4l24 -152q2 -18 12 -62.5t13 -54.5h121
q35 0 87 9q15 20 21 37q1 8 7.5 34.5t7.5 32.5l55 -5l-15 -158l-10 -11l-54 2q-56 2 -69 2h-261q-14 0 -40 -2l-24 -2l-5 53l70 7v11q0 50 -3 63l-19 123l-212 -3l-70 -148q-4 -11 -14 -46l74 -7l-6 -53l-62 2q-70 2 -94.5 2t-46.5 -2l-19 -2l-3 52l62 9q57 76 64 96
l236 495l-74 12l5 50l32 -3q38 -2 63 -2h314zM272 303q25 -1 66.5 -1t111.5 2l-38 252l-7 28zM679 927l30 -73l-68 -17q-14 -4 -34 -8.5t-32.5 -8t-16.5 -4.5l-88 -37l-20 48z" />
    <glyph glyph-name="aeacute" unicode="&#x1fd;" horiz-adv-x="753" 
d="M727 50q-72 -60 -177 -60q-64 0 -113.5 28t-75.5 78q-68 -106 -186 -106q-62 0 -98.5 35.5t-36.5 92t29 85.5t73 40.5t192 34.5v33q0 138 -94 138q-55 0 -93 -19q-9 -45 -9 -47v-36l-58 -3l-11 135q90 24 187 24t132 -65q59 64 150 64q178 0 190 -192l-15 -38l-299 -33
q2 -76 37 -130t99 -54q81 0 149 41zM415 289l223 33v2q0 58 -25.5 92t-78.5 34q-103 0 -119 -161zM201 54q65 0 99 50t34 123q-5 -1 -57.5 -10t-85.5 -17q-63 -16 -63 -72q0 -35 19 -54.5t54 -19.5zM500 765l49 -62q-50 -28 -61 -35l-73 -43l-74 -61l-33 41z" />
    <glyph glyph-name="Oslashacute" unicode="&#x1fe;" horiz-adv-x="756" 
d="M598 838l42 -23l-502 -951l-40 23zM520 927l30 -73l-68 -17q-14 -4 -34 -8.5t-32.5 -8t-16.5 -4.5l-88 -37l-20 48zM611.5 620q84.5 -100 84.5 -267.5t-84.5 -267.5t-243.5 -100t-243.5 100t-84.5 267.5t84.5 267.5t243.5 100t243.5 -100zM147 352q0 -138 57 -226
t164 -88t164 88t57 226t-57 226.5t-164 88.5t-164 -88.5t-57 -226.5z" />
    <glyph glyph-name="oslashacute" unicode="&#x1ff;" horiz-adv-x="540" 
d="M430 598l40 -20l-358 -677l-39 20zM441.5 434q58.5 -69 58.5 -187t-59.5 -187.5t-170.5 -69.5t-170.5 69.5t-59.5 187t59.5 187t171.5 69.5t170.5 -69zM406 246q0 87 -32 143.5t-104 56.5t-104 -56.5t-32 -143.5t32 -143t104 -56t104 56t32 143zM383 765l49 -62
q-50 -28 -61 -35l-73 -43l-74 -61l-33 41z" />
    <glyph glyph-name="circumflex" unicode="&#x2c6;" horiz-adv-x="333" 
d="M166 765l166 -169l-33 -32l-74 61q-28 18 -59 42q-11 -8 -24.5 -18t-22.5 -16l-12 -8l-74 -61l-33 32z" />
    <glyph glyph-name="caron" unicode="&#x2c7;" horiz-adv-x="333" 
d="M332 733l-166 -169l-166 169l33 32l74 -61l59 -43l59 43l74 61z" />
    <glyph glyph-name="breve" unicode="&#x2d8;" horiz-adv-x="279" 
d="M139 643q38 0 60.5 23t22.5 61h56q0 -68 -35.5 -104t-103.5 -36t-103.5 36t-35.5 104h56q0 -38 22.5 -61t60.5 -23z" />
    <glyph glyph-name="dotaccent" unicode="&#x2d9;" horiz-adv-x="118" 
d="M15 702.5q15 17.5 43.5 17.5t44 -17t15.5 -47.5t-15 -47.5t-44 -17t-44 17t-15 47t15 47.5z" />
    <glyph glyph-name="ring" unicode="&#x2da;" horiz-adv-x="179" 
d="M156.5 728q22.5 -23 22.5 -62.5t-22.5 -62.5t-66.5 -23t-67 23t-23 62.5t23 62.5t67 23t66.5 -23zM132 665.5q0 47.5 -41.5 47.5t-41.5 -47.5t41.5 -47.5t41.5 47.5z" />
    <glyph glyph-name="ogonek" unicode="&#x2db;" horiz-adv-x="190" 
d="M91 0l47 -4q-28 -31 -39 -53t-11 -51q0 -47 54 -47q26 0 56 13l14 -33q-47 -22 -90 -22t-71 22.5t-28 60t15.5 59.5t52.5 55z" />
    <glyph glyph-name="tilde" unicode="&#x2dc;" horiz-adv-x="326" 
d="M326 702q-47 -98 -83 -98q-21 0 -77 20.5t-73.5 20.5t-40.5 -27q-8 -10 -16 -27l-36 21q9 22 26 50q31 51 53.5 51t80 -20.5t75.5 -20.5t39 25q7 8 16 26z" />
    <glyph glyph-name="hungarumlaut" unicode="&#x2dd;" horiz-adv-x="482" 
d="M212 765l49 -62q-50 -28 -61 -35l-73 -43l-74 -61l-33 41zM413 765l49 -62q-50 -28 -61 -35l-73 -43l-74 -61l-33 41z" />
    <glyph glyph-name="pi" unicode="&#x3c0;" horiz-adv-x="608" 
d="M576 496q-70 -87 -106 -87q-4 -23 -4 -53l-2 -189q0 -69 10 -94t53 -46l-19 -42q-72 24 -96.5 45.5t-24.5 57.5l9 323l-200 11v-255l3 -163l-9 -8l-20 2q-22 2 -38 2h-22l-9 8l10 57q8 49 10 72q11 250 11 288q-13 1 -28 1q-25 0 -74 -49l-40 33q72 104 109 104l370 -17
q24 0 72 37z" />
    <glyph glyph-name="Gmacron" unicode="&#x1e20;" horiz-adv-x="653" 
d="M618 330q-10 -105 -10 -164v-147q-144 -34 -229 -34q-162 0 -248 99t-86 267.5t86 268.5t248 100q81 0 161 -20q50 -12 59 -14l-11 -148l-58 6v45q0 15 -12 49q-81 24 -141 24q-112 0 -170.5 -86t-58.5 -223t58.5 -223.5t170.5 -86.5q64 0 139 20q12 46 12 65v68
q0 15 -4.5 40.5t-5.5 39.5l-86 8l5 57l49 -4q36 -4 68.5 -4t41.5 1l16 2zM228 811v53h322l-5 -53h-317z" />
    <glyph glyph-name="gmacron" unicode="&#x1e21;" horiz-adv-x="509" 
d="M247 141q-37 0 -68 9q-27 -34 -27 -43t8 -16t26.5 -11t35 -6t45.5 -5q126 -13 164 -26q45 -14 45 -93t-78.5 -132t-175.5 -53q-198 0 -198 145q0 31 93 100q-45 24 -45 74q0 21 71 81q-89 46 -89 157q0 84 54 132.5t139 48.5q55 0 100 -22l115 25l9 -51l-36 -12
q-6 -2 -25 -16q30 -43 30 -105q0 -84 -54 -132.5t-139 -48.5zM247 192q106 0 106 130t-106 130t-106 -130t106 -130zM383.5 -43.5q-7.5 8.5 -32 13.5t-102 14t-95.5 14q-44 -57 -44 -70q0 -60 35.5 -83t98.5 -23t105 27t42 76q0 23 -7.5 31.5zM109 626v53h322l-5 -53h-317z
" />
    <glyph glyph-name="Macute" unicode="&#x1e3e;" horiz-adv-x="941" 
d="M716 57l5 105l-21 367l-227 -529h-37l-227 530l-18 -368q0 -19 2 -65l3 -40l78 -6l-6 -55l-44 2q-54 2 -87.5 2t-71.5 -2l-32 -2l-5 52l77 9q1 3 3.5 14t4.5 17.5t5 22t5 21.5l26 437q0 15 -4.5 40.5t-5.5 39.5l-76 8l5 56l47 -4q36 -4 62 -4t56 2l26 2l6 -6l23 -82
q26 -92 29 -100l157 -377l159 393q6 14 26.5 81t25.5 85l6 6l18 -2q22 -2 48.5 -2t59.5 4l45 4l6 -59l-78 -6l-3 -32q-3 -17 -3 -47l34 -437q1 -8 6.5 -29t8 -32t3.5 -14l77 -9l-5 -52l-33 2q-38 2 -72.5 2t-100.5 -2l-58 -2l-6 55zM622 927l30 -73l-68 -17q-14 -4 -34 -8.5
t-32.5 -8t-16.5 -4.5l-88 -37l-20 48z" />
    <glyph glyph-name="macute" unicode="&#x1e3f;" horiz-adv-x="890" 
d="M408 137v174q0 127 -95 127q-50 0 -85 -51t-35 -113v-107q0 -53 3 -74l4 -36l75 -6l-6 -55l-43 2q-54 2 -90.5 2t-68.5 -2l-26 -2l-5 51l66 10q1 9 5.5 34.5t4.5 45.5v220q0 6 -5 34t-9 52l-72 12l5 51l31 -3q19 -3 50.5 -3t38.5 1l12 2l6 -6l13 -79q50 85 155 85
t135 -96q18 38 57 67t100 29q92 0 124 -56.5t32 -169.5v-110q0 -53 3 -74l4 -36l79 -6l-6 -55l-44 2q-54 2 -91 2t-67 -2l-26 -2l-5 51l62 10q1 9 5.5 34.5t4.5 45.5v174q0 127 -95 127q-49 0 -83.5 -48.5t-36.5 -109.5v-113q0 -53 3 -74l4 -36l75 -6l-6 -55l-42 2
q-54 2 -90 2t-66 -2l-26 -2l-5 51l62 10q1 9 5.5 34.5t4.5 45.5zM571 765l49 -62q-50 -28 -61 -35l-73 -43l-74 -61l-33 41z" />
    <glyph glyph-name="Mdotaccent" unicode="&#x1e40;" horiz-adv-x="941" 
d="M716 57l5 105l-21 367l-227 -529h-37l-227 530l-18 -368q0 -19 2 -65l3 -40l78 -6l-6 -55l-44 2q-54 2 -87.5 2t-71.5 -2l-32 -2l-5 52l77 9q1 3 3.5 14t4.5 17.5t5 22t5 21.5l26 437q0 15 -4.5 40.5t-5.5 39.5l-76 8l5 56l47 -4q36 -4 62 -4t56 2l26 2l6 -6l23 -82
q26 -92 29 -100l157 -377l159 393q6 14 26.5 81t25.5 85l6 6l18 -2q22 -2 48.5 -2t59.5 4l45 4l6 -59l-78 -6l-3 -32q-3 -17 -3 -47l34 -437q1 -8 6.5 -29t8 -32t3.5 -14l77 -9l-5 -52l-33 2q-38 2 -72.5 2t-100.5 -2l-58 -2l-6 55zM436 887.5q15 17.5 43.5 17.5t44 -17
t15.5 -47.5t-15 -47.5t-44 -17t-44 17t-15 47t15 47.5z" />
    <glyph glyph-name="mdotaccent" unicode="&#x1e41;" horiz-adv-x="890" 
d="M408 137v174q0 127 -95 127q-50 0 -85 -51t-35 -113v-107q0 -53 3 -74l4 -36l75 -6l-6 -55l-43 2q-54 2 -90.5 2t-68.5 -2l-26 -2l-5 51l66 10q1 9 5.5 34.5t4.5 45.5v220q0 6 -5 34t-9 52l-72 12l5 51l31 -3q19 -3 50.5 -3t38.5 1l12 2l6 -6l13 -79q50 85 155 85
t135 -96q18 38 57 67t100 29q92 0 124 -56.5t32 -169.5v-110q0 -53 3 -74l4 -36l79 -6l-6 -55l-44 2q-54 2 -91 2t-67 -2l-26 -2l-5 51l62 10q1 9 5.5 34.5t4.5 45.5v174q0 127 -95 127q-49 0 -83.5 -48.5t-36.5 -109.5v-113q0 -53 3 -74l4 -36l75 -6l-6 -55l-42 2
q-54 2 -90 2t-66 -2l-26 -2l-5 51l62 10q1 9 5.5 34.5t4.5 45.5zM415 702.5q15 17.5 43.5 17.5t44 -17t15.5 -47.5t-15 -47.5t-44 -17t-44 17t-15 47t15 47.5z" />
    <glyph glyph-name="Ndotaccent" unicode="&#x1e44;" horiz-adv-x="764" 
d="M639 297l-1 -167v-137h-60l-394 563v-389q0 -53 3 -74l4 -36l78 -6l-6 -55l-36 2q-46 2 -82.5 2t-71.5 -5l-36 -4l-7 57l77 9q1 9 5.5 34.5t4.5 45.5v431q0 16 -4.5 43t-5.5 38l-76 8l5 53l42 -3q46 -2 68 -2t52 2l25 2l5 -6q15 -36 44.5 -99t37.5 -74l262 -367v395
q0 19 -4.5 47t-5.5 43l-77 8l5 54l32 -3q38 -2 81 -2t79 4l46 4l6 -59l-78 -6l-9 -41q-8 -48 -8 -79v-231zM321 887.5q15 17.5 43.5 17.5t44 -17t15.5 -47.5t-15 -47.5t-44 -17t-44 17t-15 47t15 47.5z" />
    <glyph glyph-name="ndotaccent" unicode="&#x1e45;" horiz-adv-x="610" 
d="M26 455l5 51l31 -3q19 -3 50.5 -3t38.5 1l12 2l6 -6l13 -79q19 33 58 59t99 26q97 0 131.5 -56.5t34.5 -169.5v-110q0 -53 3 -74l4 -36l79 -6l-6 -55l-44 2q-54 2 -91.5 2t-69.5 -2l-27 -2l-5 51l66 10q1 9 5.5 34.5t4.5 45.5v174q0 58 -25.5 92.5t-79 34.5t-88 -39.5
t-38.5 -96.5v-135q0 -53 3 -74l4 -36l79 -6l-6 -55l-45 2q-54 2 -91.5 2t-69.5 -2l-26 -2l-5 51l66 10q1 9 5.5 34.5t4.5 45.5v220q0 6 -5 34t-9 52zM269 702.5q15 17.5 43.5 17.5t44 -17t15.5 -47.5t-15 -47.5t-44 -17t-44 17t-15 47t15 47.5z" />
    <glyph glyph-name="rdotaccent" unicode="&#x1e59;" horiz-adv-x="418" 
d="M193 284v-117q0 -53 3 -74l4 -36l99 -8l-6 -53l-55 2q-64 2 -101.5 2t-69.5 -2l-26 -2l-5 51l66 10q1 9 5.5 34.5t4.5 45.5v220q0 6 -5 34t-9 52l-72 12l5 51l31 -3q19 -3 50.5 -3t38.5 1l12 2l6 -6l15 -88q57 94 161 94q28 0 48 -5l20 -5l-10 -165l-57 3l-1 53
q0 8 -14 50q-70 0 -102.5 -37.5t-35.5 -112.5zM181 702.5q15 17.5 43.5 17.5t44 -17t15.5 -47.5t-15 -47.5t-44 -17t-44 17t-15 47t15 47.5z" />
    <glyph glyph-name="Sdotaccent" unicode="&#x1e60;" horiz-adv-x="549" 
d="M349 263q-33 25 -75 46l-45 23l-6 2q-82 40 -127 84.5t-45 124t60.5 128.5t145.5 49t213 -32l-14 -147l-59 6v40q0 10 -14 56q-53 22 -110 22t-89.5 -29t-32.5 -82q0 -52 50 -90q35 -25 74.5 -44.5t41.5 -20.5q47 -24 74 -41t56 -42q57 -51 57 -140.5t-67 -140
t-160.5 -50.5t-171.5 26q-33 11 -60 27l15 154l66 -6v-48q0 -15 11 -66q63 -27 127 -27t99.5 32.5t35.5 90t-50 95.5zM252 887.5q15 17.5 43.5 17.5t44 -17t15.5 -47.5t-15 -47.5t-44 -17t-44 17t-15 47t15 47.5z" />
    <glyph glyph-name="sdotaccent" unicode="&#x1e61;" horiz-adv-x="417" 
d="M203 -10q-93 0 -165 39l11 136l58 -3v-38q0 -12 14 -60q28 -23 85 -23q91 0 91 76q0 29 -26.5 50.5t-63.5 38t-74.5 35t-64 51.5t-26.5 78q0 62 45.5 97.5t119 35.5t147.5 -17l-12 -143l-58 3v36q0 11 -14 57q-28 12 -66 12t-60 -17.5t-22 -46.5t26.5 -50.5t64 -38
t75.5 -35t64.5 -51t26.5 -76.5q0 -146 -176 -146zM175 702.5q15 17.5 43.5 17.5t44 -17t15.5 -47.5t-15 -47.5t-44 -17t-44 17t-15 47t15 47.5z" />
    <glyph glyph-name="Tdotaccent" unicode="&#x1e6a;" horiz-adv-x="606" 
d="M355 649l-6 -111v-371q0 -52 3 -73l4 -35l88 -8l-6 -55l-58 2q-66 2 -100 2t-72 -2l-32 -2l-5 52l77 9q1 9 5.5 34.5t4.5 45.5v431q0 12 -4 43.5t-6 37.5h-78q-47 -2 -67 -5q-18 -26 -20 -35.5t-10 -52.5l-58 5l7 143l10 11q97 -10 123 -10h296q26 0 123 10l10 -11
l7 -143l-58 -5q-8 43 -12 56t-19 32q-19 3 -66 5h-81zM263 887.5q15 17.5 43.5 17.5t44 -17t15.5 -47.5t-15 -47.5t-44 -17t-44 17t-15 47t15 47.5z" />
    <glyph glyph-name="Wgrave" unicode="&#x1e80;" horiz-adv-x="995" 
d="M330 167l151 529h46l182 -529l108 411q4 19 10 66l-73 10l5 57l35 -3q19 -3 68.5 -3t87.5 3l39 4l1 -61l-57 -7q-46 -73 -50 -99l-162 -545h-51l-180 507q-21 -69 -69 -240.5t-80 -266.5h-51l-196 559q-33 60 -49 88l-40 4l4 59l40 -3q46 -2 85.5 -2t76.5 3l39 4l2 -63
l-75 -7q25 -104 30 -116zM322 854l30 73l229 -100l-20 -48l-88 37z" />
    <glyph glyph-name="wgrave" unicode="&#x1e81;" horiz-adv-x="800" 
d="M5 503q63 -9 104 -9t60 3l35 4l5 -55l-57 -7l27 -90l85 -244l125 389h40l137 -389l78 246q5 27 22 88l-64 10l5 54q70 -9 107 -9t53 3l29 3l4 -54l-52 -7q-48 -104 -50 -120l-107 -319h-67l-125 324l-109 -324h-67l-64 164q-65 166 -69.5 181t-42.5 95l-47 9zM241 703
l49 62l192 -160l-33 -41l-74 61q-15 7 -73 43z" />
    <glyph glyph-name="Wacute" unicode="&#x1e82;" horiz-adv-x="995" 
d="M330 167l151 529h46l182 -529l108 411q4 19 10 66l-73 10l5 57l35 -3q19 -3 68.5 -3t87.5 3l39 4l1 -61l-57 -7q-46 -73 -50 -99l-162 -545h-51l-180 507q-21 -69 -69 -240.5t-80 -266.5h-51l-196 559q-33 60 -49 88l-40 4l4 59l40 -3q46 -2 85.5 -2t76.5 3l39 4l2 -63
l-75 -7q25 -104 30 -116zM636 927l30 -73l-68 -17q-14 -4 -34 -8.5t-32.5 -8t-16.5 -4.5l-88 -37l-20 48z" />
    <glyph glyph-name="wacute" unicode="&#x1e83;" horiz-adv-x="800" 
d="M5 503q63 -9 104 -9t60 3l35 4l5 -55l-57 -7l27 -90l85 -244l125 389h40l137 -389l78 246q5 27 22 88l-64 10l5 54q70 -9 107 -9t53 3l29 3l4 -54l-52 -7q-48 -104 -50 -120l-107 -319h-67l-125 324l-109 -324h-67l-64 164q-65 166 -69.5 181t-42.5 95l-47 9zM514 765
l49 -62q-50 -28 -61 -35l-73 -43l-74 -61l-33 41z" />
    <glyph glyph-name="Wdieresis" unicode="&#x1e84;" horiz-adv-x="995" 
d="M330 167l151 529h46l182 -529l108 411q4 19 10 66l-73 10l5 57l35 -3q19 -3 68.5 -3t87.5 3l39 4l1 -61l-57 -7q-46 -73 -50 -99l-162 -545h-51l-180 507q-21 -69 -69 -240.5t-80 -266.5h-51l-196 559q-33 60 -49 88l-40 4l4 59l40 -3q46 -2 85.5 -2t76.5 3l39 4l2 -63
l-75 -7q25 -104 30 -116zM371 912q54 0 54 -59.5t-54 -59.5t-54 59q0 28 14 44t40 16zM617 912q54 0 54 -59.5t-54 -59.5t-54 59q0 28 14 44t40 16z" />
    <glyph glyph-name="wdieresis" unicode="&#x1e85;" horiz-adv-x="800" 
d="M5 503q63 -9 104 -9t60 3l35 4l5 -55l-57 -7l27 -90l85 -244l125 389h40l137 -389l78 246q5 27 22 88l-64 10l5 54q70 -9 107 -9t53 3l29 3l4 -54l-52 -7q-48 -104 -50 -120l-107 -319h-67l-125 324l-109 -324h-67l-64 164q-65 166 -69.5 181t-42.5 95l-47 9zM284 713
q54 0 54 -59.5t-54 -59.5t-54 59q0 28 14 44t40 16zM520 713q54 0 54 -59.5t-54 -59.5t-54 59q0 28 14 44t40 16z" />
    <glyph glyph-name="Wdotaccent" unicode="&#x1e86;" horiz-adv-x="995" 
d="M330 167l151 529h46l182 -529l108 411q4 19 10 66l-73 10l5 57l35 -3q19 -3 68.5 -3t87.5 3l39 4l1 -61l-57 -7q-46 -73 -50 -99l-162 -545h-51l-180 507q-21 -69 -69 -240.5t-80 -266.5h-51l-196 559q-33 60 -49 88l-40 4l4 59l40 -3q46 -2 85.5 -2t76.5 3l39 4l2 -63
l-75 -7q25 -104 30 -116zM450 887.5q15 17.5 43.5 17.5t44 -17t15.5 -47.5t-15 -47.5t-44 -17t-44 17t-15 47t15 47.5z" />
    <glyph glyph-name="wdotaccent" unicode="&#x1e87;" horiz-adv-x="800" 
d="M5 503q63 -9 104 -9t60 3l35 4l5 -55l-57 -7l27 -90l85 -244l125 389h40l137 -389l78 246q5 27 22 88l-64 10l5 54q70 -9 107 -9t53 3l29 3l4 -54l-52 -7q-48 -104 -50 -120l-107 -319h-67l-125 324l-109 -324h-67l-64 164q-65 166 -69.5 181t-42.5 95l-47 9zM358 702.5
q15 17.5 43.5 17.5t44 -17t15.5 -47.5t-15 -47.5t-44 -17t-44 17t-15 47t15 47.5z" />
    <glyph glyph-name="Ydotaccent" unicode="&#x1e8e;" horiz-adv-x="645" 
d="M184 48l77 9q1 9 5.5 34.5t4.5 45.5v133l-152 289q-25 33 -74 88l-40 4l4 59l40 -3q46 -2 85.5 -2t76.5 3l39 4l2 -63l-63 -6q36 -100 45 -117l92 -180l118 232q5 10 24 68l-64 8l5 57l35 -3q19 -3 68.5 -3t87.5 3l39 4l1 -61l-68 -9l-76 -96l-132 -254v-125q0 -53 3 -74
l4 -36l78 -6l-6 -55l-53 2q-62 2 -96.5 2t-72.5 -2l-32 -2zM281 887.5q15 17.5 43.5 17.5t44 -17t15.5 -47.5t-15 -47.5t-44 -17t-44 17t-15 47t15 47.5z" />
    <glyph glyph-name="ydotaccent" unicode="&#x1e8f;" horiz-adv-x="539" 
d="M341 503q70 -9 107 -9t53 3l29 3l4 -54l-38 -5q-58 -117 -60 -122l-126 -319l-84 -235l-163 11l8 58q5 -1 16 -1h24q16 0 66 12q32 48 39 66l28 80l-148 353q-4 13 -51 97l-40 8l5 54q70 -9 108.5 -9t57.5 3l35 4l5 -55l-62 -8q16 -56 27 -89l102 -253l92 255
q15 44 26 88l-65 10zM237 702.5q15 17.5 43.5 17.5t44 -17t15.5 -47.5t-15 -47.5t-44 -17t-44 17t-15 47t15 47.5z" />
    <glyph glyph-name="Zcircumflex" unicode="&#x1e90;" horiz-adv-x="551" 
d="M61 715q98 -10 123 -10h331l7 -56q-84 -119 -109 -155l-186 -303l-70 -132h196q29 0 91 12q12 18 17 32l15 77l55 -5l-15 -168l-10 -11l-54 2q-56 2 -69 2h-356l-7 57l52 66q55 71 71 96l189 301l67 126h-185q-14 0 -86 -8q-14 -21 -15.5 -29t-5.5 -33.5t-5 -29.5l-58 5
l7 153zM297 922l174 -107l-23 -39l-88 41l-63 25l-63 -25l-88 -41l-23 39z" />
    <glyph glyph-name="zcircumflex" unicode="&#x1e91;" horiz-adv-x="457" 
d="M403 -3l-118 3h-243l-7 58l42 47q42 46 53 63l125 184q40 70 50 90h-122q-7 0 -53 -6q-24 -48 -24 -62l-4 -35l-58 4l6 146l8 8l44 -2q23 -1 60 -1h242l7 -58l-18 -22q-49 -60 -68 -87l-123 -185q-12 -14 -50 -90h125q11 0 59 6q20 41 22 52q4 20 6 39l58 -6l-9 -136z
M230 765l166 -169l-33 -32l-74 61q-28 18 -59 42q-11 -8 -24.5 -18t-22.5 -16l-12 -8l-74 -61l-33 32z" />
    <glyph glyph-name="wring" unicode="&#x1e98;" horiz-adv-x="800" 
d="M5 503q63 -9 104 -9t60 3l35 4l5 -55l-57 -7l27 -90l85 -244l125 389h40l137 -389l78 246q5 27 22 88l-64 10l5 54q70 -9 107 -9t53 3l29 3l4 -54l-52 -7q-48 -104 -50 -120l-107 -319h-67l-125 324l-109 -324h-67l-64 164q-65 166 -69.5 181t-42.5 95l-47 9zM468.5 728
q22.5 -23 22.5 -62.5t-22.5 -62.5t-66.5 -23t-67 23t-23 62.5t23 62.5t67 23t66.5 -23zM444 665.5q0 47.5 -41.5 47.5t-41.5 -47.5t41.5 -47.5t41.5 47.5z" />
    <glyph glyph-name="yring" unicode="&#x1e99;" horiz-adv-x="539" 
d="M341 503q70 -9 107 -9t53 3l29 3l4 -54l-38 -5q-58 -117 -60 -122l-126 -319l-84 -235l-163 11l8 58q5 -1 16 -1h24q16 0 66 12q32 48 39 66l28 80l-148 353q-4 13 -51 97l-40 8l5 54q70 -9 108.5 -9t57.5 3l35 4l5 -55l-62 -8q16 -56 27 -89l102 -253l92 255
q15 44 26 88l-65 10zM347.5 728q22.5 -23 22.5 -62.5t-22.5 -62.5t-66.5 -23t-67 23t-23 62.5t23 62.5t67 23t66.5 -23zM323 665.5q0 47.5 -41.5 47.5t-41.5 -47.5t41.5 -47.5t41.5 47.5z" />
    <glyph glyph-name="Etilde" unicode="&#x1ebc;" horiz-adv-x="562" 
d="M351 337l-47 3h-53q-10 0 -42 -2v-171q0 -68 6 -110h144q41 0 87 8q14 19 21 38q1 8 7.5 34.5t7.5 32.5l55 -5l-15 -158l-10 -11l-54 2q-56 2 -69 2h-239q-34 0 -72 -5l-41 -4l-7 57l77 9q1 9 5.5 34.5t4.5 45.5v431q0 15 -4.5 40.5t-5.5 39.5l-77 12l5 50l28 -3
q32 -2 57 -2h256q26 0 123 10l10 -11l7 -143l-58 -5q-8 43 -12 56t-19 32q-38 5 -81 5h-131q-6 -40 -6 -111v-144q34 -2 42 -2h73q24 0 60 9l9 66l46 -5q-1 -12 -1 -33v-47q0 -52 1 -73l2 -36l-48 -6l-9 67zM490 900q-47 -98 -83 -98q-20 0 -82 20.5t-79 20.5t-40 -27
q-7 -10 -16 -27l-36 21q9 22 26 50q31 51 53.5 51t85 -20.5t80.5 -20.5t39 25q7 8 16 26z" />
    <glyph glyph-name="etilde" unicode="&#x1ebd;" horiz-adv-x="475" 
d="M447 50q-72 -60 -180 -60t-167.5 69t-59.5 186t55.5 187t162.5 70q192 0 192 -232l-17 -33h-299q2 -74 37.5 -128t98.5 -54q81 0 149 41zM357 312l1 12q0 58 -25.5 92t-78.5 34q-103 0 -119 -162q189 16 222 16v8zM427 702q-47 -98 -83 -98q-20 0 -77 20.5t-74 20.5
t-40 -27q-8 -10 -16 -27l-36 21q9 22 26 50q31 51 53.5 51t80 -20.5t75.5 -20.5t39 25q7 8 16 26z" />
    <glyph glyph-name="Ygrave" unicode="&#x1ef2;" horiz-adv-x="645" 
d="M184 48l77 9q1 9 5.5 34.5t4.5 45.5v133l-152 289q-25 33 -74 88l-40 4l4 59l40 -3q46 -2 85.5 -2t76.5 3l39 4l2 -63l-63 -6q36 -100 45 -117l92 -180l118 232q5 10 24 68l-64 8l5 57l35 -3q19 -3 68.5 -3t87.5 3l39 4l1 -61l-68 -9l-76 -96l-132 -254v-125q0 -53 3 -74
l4 -36l78 -6l-6 -55l-53 2q-62 2 -96.5 2t-72.5 -2l-32 -2zM153 854l30 73l229 -100l-20 -48l-88 37z" />
    <glyph glyph-name="ygrave" unicode="&#x1ef3;" horiz-adv-x="539" 
d="M341 503q70 -9 107 -9t53 3l29 3l4 -54l-38 -5q-58 -117 -60 -122l-126 -319l-84 -235l-163 11l8 58q5 -1 16 -1h24q16 0 66 12q32 48 39 66l28 80l-148 353q-4 13 -51 97l-40 8l5 54q70 -9 108.5 -9t57.5 3l35 4l5 -55l-62 -8q16 -56 27 -89l102 -253l92 255
q15 44 26 88l-65 10zM120 703l49 62l192 -160l-33 -41l-74 61q-15 7 -73 43z" />
    <glyph glyph-name="Ytilde" unicode="&#x1ef8;" horiz-adv-x="645" 
d="M184 48l77 9q1 9 5.5 34.5t4.5 45.5v133l-152 289q-25 33 -74 88l-40 4l4 59l40 -3q46 -2 85.5 -2t76.5 3l39 4l2 -63l-63 -6q36 -100 45 -117l92 -180l118 232q5 10 24 68l-64 8l5 57l35 -3q19 -3 68.5 -3t87.5 3l39 4l1 -61l-68 -9l-76 -96l-132 -254v-125q0 -53 3 -74
l4 -36l78 -6l-6 -55l-53 2q-62 2 -96.5 2t-72.5 -2l-32 -2zM493 900q-47 -98 -83 -98q-20 0 -82 20.5t-79 20.5t-40 -27q-7 -10 -16 -27l-36 21q9 22 26 50q31 51 53.5 51t85 -20.5t80.5 -20.5t39 25q7 8 16 26z" />
    <glyph glyph-name="ytilde" unicode="&#x1ef9;" horiz-adv-x="539" 
d="M341 503q70 -9 107 -9t53 3l29 3l4 -54l-38 -5q-58 -117 -60 -122l-126 -319l-84 -235l-163 11l8 58q5 -1 16 -1h24q16 0 66 12q32 48 39 66l28 80l-148 353q-4 13 -51 97l-40 8l5 54q70 -9 108.5 -9t57.5 3l35 4l5 -55l-62 -8q16 -56 27 -89l102 -253l92 255
q15 44 26 88l-65 10zM444 702q-47 -98 -83 -98q-21 0 -77.5 20.5t-73.5 20.5t-40 -27q-7 -10 -16 -27l-36 21q9 22 26 50q31 51 53.5 51t80 -20.5t75.5 -20.5t39 25q7 8 16 26z" />
    <glyph glyph-name="endash" unicode="&#x2013;" horiz-adv-x="504" 
d="M2 216l-2 75h504l-5 -75h-497z" />
    <glyph glyph-name="emdash" unicode="&#x2014;" horiz-adv-x="1006" 
d="M2 216l-2 75h1006l-5 -75h-999z" />
    <glyph glyph-name="quoteleft" unicode="&#x2018;" horiz-adv-x="192" 
d="M97 651q27 0 44 -18t17 -45.5t-18.5 -48t-47.5 -20.5t-46 24.5t-17 59.5q0 56 35 105t95 62l7 -24q-69 -30 -69 -95z" />
    <glyph glyph-name="quoteright" unicode="&#x2019;" horiz-adv-x="192" 
d="M95 638q-27 0 -44 18t-17 45.5t18.5 48t47.5 20.5t46 -24.5t17 -59.5q0 -56 -35 -104.5t-95 -62.5l-7 24q69 30 69 95z" />
    <glyph glyph-name="quotesinglbase" unicode="&#x201a;" horiz-adv-x="216" 
d="M103 -10q-27 0 -44 18t-17 45.5t18.5 48t47.5 20.5t46 -24.5t17 -59.5q0 -56 -35 -104.5t-95 -62.5l-7 24q69 30 69 95z" />
    <glyph glyph-name="quotedblleft" unicode="&#x201c;" horiz-adv-x="360" 
d="M103 651q27 0 44 -18t17 -45.5t-18.5 -48t-47.5 -20.5t-46 24.5t-17 59.5q0 56 35 105t95 62l7 -24q-69 -30 -69 -95zM263 651q27 0 44 -18t17 -45.5t-18.5 -48t-47.5 -20.5t-46 24.5t-17 59.5q0 56 35 105t95 62l7 -24q-69 -30 -69 -95z" />
    <glyph glyph-name="quotedblright" unicode="&#x201d;" horiz-adv-x="370" 
d="M105 633q-27 0 -44 18t-17 45.5t18.5 48t47.5 20.5t46 -24.5t17 -59.5q0 -56 -35 -104.5t-95 -62.5l-7 24q69 30 69 95zM266 633q-27 0 -44 18t-17 45.5t18.5 48t47.5 20.5t46 -24.5t17 -59.5q0 -56 -35 -104.5t-95 -62.5l-7 24q69 30 69 95z" />
    <glyph glyph-name="quotedblbase" unicode="&#x201e;" horiz-adv-x="377" 
d="M103 -10q-27 0 -44 18t-17 45.5t18.5 48t47.5 20.5t46 -24.5t17 -59.5q0 -56 -35 -104.5t-95 -62.5l-7 24q69 30 69 95zM264 -10q-27 0 -44 18t-17 45.5t18.5 48t47.5 20.5t46 -24.5t17 -59.5q0 -56 -35 -104.5t-95 -62.5l-7 24q69 30 69 95z" />
    <glyph glyph-name="dagger" unicode="&#x2020;" horiz-adv-x="504" 
d="M289 440h-2v-394q0 -32 4 -73l5 -57l-6 -6h-30q-14 0 -30 -2l-14 -2l-6 6l3 63q4 47 4 101v364h-32q-21 0 -73 -5l-57 -4l-6 6v10q0 13 -2 31l-2 16l6 6l63 -4q35 -3 101 -3h2v127q0 20 -5 72l-4 58l6 6h30q11 0 29 2l15 2l6 -6l-4 -63q-3 -35 -3 -101v-97h32q31 0 72 4
l58 5l6 -6v-10q0 -13 2 -31l2 -16l-6 -6l-63 3q-47 4 -101 4z" />
    <glyph glyph-name="daggerdbl" unicode="&#x2021;" horiz-adv-x="459" 
d="M195 237h2v203h-32q-21 0 -73 -5l-57 -4l-6 6v10q0 13 -2 31l-2 16l6 6l63 -4q35 -3 101 -3h2v127q0 20 -5 72l-4 58l6 6h30q11 0 29 2l15 2l6 -6l-4 -63q-3 -35 -3 -101v-97h32q31 0 72 4l58 5l6 -6v-10q0 -13 2 -31l2 -16l-6 -6l-63 3q-47 4 -101 4h-2v-203h32
q31 0 72 4l58 5l6 -6v-10q0 -13 2 -31l2 -16l-6 -6l-63 3q-47 4 -101 4h-2v-138q0 -32 4 -73l5 -57l-6 -6h-30q-14 0 -30 -2l-14 -2l-6 6l3 63q4 47 4 101v108h-32q-21 0 -73 -5l-57 -4l-6 6v10q0 13 -2 31l-2 16l6 6l63 -4q35 -3 101 -3z" />
    <glyph glyph-name="bullet" unicode="&#x2022;" horiz-adv-x="229" 
d="M104 340q38 0 59 -22.5t21 -63t-21 -64t-59 -23.5t-59 23.5t-21 62.5t21 63t59 24z" />
    <glyph glyph-name="ellipsis" unicode="&#x2026;" horiz-adv-x="603" 
d="M101 126q61 0 61 -67q0 -30 -16 -48t-45 -18t-45 18t-16 48t16 48.5t45 18.5zM299 126q61 0 61 -67q0 -30 -16 -48t-45 -18t-45 18t-16 48t16 48.5t45 18.5zM497 126q61 0 61 -67q0 -30 -16 -48t-45 -18t-45 18t-16 48t16 48.5t45 18.5z" />
    <glyph glyph-name="perthousand" unicode="&#x2030;" horiz-adv-x="1125" 
d="M195 -49l-51 32l434 738l50 -32zM341 493v-1q0 -75 -40 -124t-110 -49t-110 49t-40 124.5t40 124.5t110 49t110 -49t40 -124zM133.5 578q-17.5 -35 -17.5 -85.5t17.5 -85.5t57.5 -35q75 0 75 121q0 50 -17.5 85t-57.5 35t-57.5 -35zM723 163v-1q0 -75 -40 -124t-110 -49
t-110 49t-40 124.5t40 124.5t110 49t110 -49t40 -124zM515.5 248q-17.5 -35 -17.5 -85.5t17.5 -85.5t57.5 -35q75 0 75 121q0 50 -17.5 85t-57.5 35t-57.5 -35zM1063 163v-1q0 -75 -40 -124t-110 -49t-110 49t-40 124.5t40 124.5t110 49t110 -49t40 -124zM855.5 248
q-17.5 -35 -17.5 -85.5t17.5 -85.5t57.5 -35q75 0 75 121q0 50 -17.5 85t-57.5 35t-57.5 -35z" />
    <glyph glyph-name="guilsinglleft" unicode="&#x2039;" horiz-adv-x="257" 
d="M25 242l153 222l37 -25l-107 -197l107 -197l-37 -25z" />
    <glyph glyph-name="guilsinglright" unicode="&#x203a;" horiz-adv-x="257" 
d="M232 241l-153 -222l-37 25l106 197l-106 197l37 25z" />
    <glyph glyph-name="fraction" unicode="&#x2044;" horiz-adv-x="393" 
d="M-1 -49l-51 32l434 738l50 -32z" />
    <glyph glyph-name="zerosuperior" unicode="&#x2070;" horiz-adv-x="360" 
d="M330 493v-1q0 -75 -40 -124t-110 -49t-110 49t-40 124.5t40 124.5t110 49t110 -49t40 -124zM122.5 578q-17.5 -35 -17.5 -85.5t17.5 -85.5t57.5 -35q75 0 75 121q0 50 -17.5 85t-57.5 35t-57.5 -35z" />
    <glyph glyph-name="foursuperior" unicode="&#x2074;" horiz-adv-x="327" 
d="M236 474l56 3v-48h-56v-6q0 -31 0.5 -40.5t1.5 -12.5l54 -5l-5 -43l-35 2q-42 2 -65 2t-49 -2l-23 -2l-4 40l63 8l2 15q2 16 2 23v21h-137l-26 31l149 233l49 -36l-22 -26q-6 -8 -15.5 -19.5t-10.5 -13.5l-72 -127h38q24 0 47 1v59l56 18z" />
    <glyph glyph-name="Euro" unicode="&#x20ac;" horiz-adv-x="689" 
d="M52 267l-2 35l92 4q-1 15 -1 46v25l-94 -4l-2 35l98 4q15 143 91.5 225.5t210.5 82.5q33 0 58 -3.5t34 -4.5t29.5 -6t25 -6t28.5 -7.5t25 -6.5l-11 -148l-61 4v47q0 10 -10 50q-65 23 -117 23q-83 0 -134 -67.5t-61 -177.5l204 9l2 -34l-209 -10v-29q0 -28 1 -43l211 10
l2 -34l-210 -10q13 -106 62.5 -169.5t132.5 -63.5q59 0 125 22q13 43 14 56.5t1 26.5v20l61 2l6 -151q-134 -34 -209 -34q-128 0 -204 76.5t-95 209.5z" />
    <glyph glyph-name="trademark" unicode="&#x2122;" horiz-adv-x="945" 
d="M158 340l3 29v250l-5 48h-43q-26 -2 -35 -2q-16 -22 -18 -49l-40 3l5 86l6 6l32 -3q17 -3 41 -3h178q24 0 41 3l33 3l6 -6l4 -86l-39 -3q-4 35 -18 49q-10 0 -36 2h-44l-3 -66v-214q0 -19 2 -43l2 -21l53 -5l-4 -38q-24 0 -36 1l-73 1l-38 -1q-7 -1 -20 -1l-3 36l46 5z
M437 619l-3 28l-3 20l-45 4l3 39l28 -3q32 -2 49.5 -2t26.5 1l17 2l4 -4l15 -49q15 -51 19 -60l89 -216l91 225l20 55q3 8 14 45l4 4l12 -2q7 -1 23.5 -1t46.5 2l27 3l4 -40l-47 -4l-2 -19q-2 -22 -2 -28l21 -253q0 -15 10 -45l47 -5l-3 -36q-13 0 -20 1l-38 1l-74 -1
q-13 -1 -37 -1l-3 38l46 3l3 63l-11 216l-127 -318h-33l-49 122q-13 31 -78 196l-10 -216q0 -26 1 -39l2 -24l47 -3l-3 -38q-17 0 -27 1l-66 1l-38 -1q-7 -1 -20 -1l-3 36l46 5q1 6 5 20.5t6 24.5z" />
    <glyph glyph-name="Omega" unicode="&#x2126;" horiz-adv-x="794" 
d="M203 57l77 -4v13q-201 79 -201 316q0 156 83.5 247t234.5 91t234.5 -91t83.5 -247q0 -236 -201 -316v-13l77 4q35 0 87 9q15 20 21 37q1 8 7.5 34.5t7.5 32.5l55 -5l-15 -158l-10 -11l-54 2q-56 2 -69 2h-64q-24 0 -62 -2l-32 -2l-10 97q81 37 118 106t37 187t-53 199.5
t-158 81.5t-158 -81.5t-53 -199.5t37 -187t118 -106l-10 -97l-32 2q-38 2 -62 2h-64q-13 0 -69 -2l-54 -2l-10 11l-15 158l55 5q9 -50 15 -67t21 -37q52 -9 87 -9z" />
    <glyph glyph-name="onethird" unicode="&#x2153;" horiz-adv-x="743" 
d="M164 -49l-51 32l434 738l50 -32zM115 370l5 45v149l-67 -32l-21 34l37 27q11 9 27.5 21t17.5 13l21 21l16 18l39 -7l-4 -51q-3 -27 -3 -69v-109q0 -15 2 -39l3 -21l52 -5l-5 -43l-35 2q-42 2 -66 2t-54 -2l-25 -2l-4 40zM550 149l-21 -1h-9l-7 32q47 5 66.5 21.5
t19.5 46.5q0 45 -49 45q-20 0 -35 -7q-3 -9 -3 -28v-34l-48 -2l-8 94q59 18 104.5 18t76 -22t30.5 -64q0 -53 -57 -74q73 -19 73 -84q0 -48 -36 -73.5t-93.5 -25.5t-102.5 17l7 90l50 -2q-1 -5 -1.5 -12.5t-0.5 -19.5t3 -25q15 -7 43.5 -7t43 16t14.5 42.5t-17 42.5t-43 16z
" />
    <glyph glyph-name="twothirds" unicode="&#x2154;" horiz-adv-x="796" 
d="M208 -49l-51 32l434 738l50 -32zM603 149l-21 -1h-9l-7 32q47 5 66.5 21.5t19.5 46.5q0 45 -49 45q-20 0 -35 -7q-3 -9 -3 -28v-34l-48 -2l-8 94q59 18 104.5 18t76 -22t30.5 -64q0 -53 -57 -74q73 -19 73 -84q0 -48 -36 -73.5t-93.5 -25.5t-102.5 17l7 90l50 -2
q-1 -5 -1.5 -12.5t-0.5 -19.5t3 -25q15 -7 43.5 -7t43 16t14.5 42.5t-17 42.5t-43 16zM196 372l38 4l2 11q3 12 3 14l2 33l49 -2l-5 -103l-5 -5q-23 0 -34 1l-43 1h-151l-7 41q12 12 38.5 35.5t38.5 35t30.5 31.5t26.5 33q22 38 22 64t-15 40t-35.5 14t-39.5 -12
q-5 -18 -5 -28v-33l-50 -1l-7 99q60 17 108 17t81.5 -22.5t33.5 -68.5q0 -37 -24 -81q-12 -21 -45.5 -53t-70.5 -65h64z" />
    <glyph glyph-name="uni215F" unicode="&#x215f;" horiz-adv-x="525" 
d="M164 -49l-51 32l434 738l50 -32zM115 370l5 45v149l-67 -32l-21 34l37 27q11 9 27.5 21t17.5 13l21 21l16 18l39 -7l-4 -51q-3 -27 -3 -69v-109q0 -15 2 -39l3 -21l52 -5l-5 -43l-35 2q-42 2 -66 2t-54 -2l-25 -2l-4 40z" />
    <glyph glyph-name="partialdiff" unicode="&#x2202;" horiz-adv-x="552" 
d="M259 403q47 0 99 -19l-6 -48q-56 8 -84 8q-55 0 -89 -43.5t-34 -105t30.5 -105.5t87.5 -44q43 0 73 28.5t45 76.5q27 86 27 201q0 113 -28 204q-15 48 -45 77t-73 29q-40 0 -61 -7l-37 -13q-17 -5 -19 -6l-16 44q68 40 132.5 40t112.5 -30t75 -82.5t40 -116.5t13 -139
t-12.5 -138t-39.5 -115t-75 -81t-112 -29q-93 0 -153 58.5t-60 150.5t58 148.5t151 56.5z" />
    <glyph glyph-name="Delta" unicode="&#x2206;" horiz-adv-x="680" 
d="M631 -15h-578l-28 65q53 80 66 116l216 537l54 13l121 -282q34 -78 80 -186t51.5 -121t22.5 -42l19 -32zM513 134l-192 451l-184 -467q-12 -48 -19 -72q82 -2 133.5 -2t285.5 6q-17 68 -24 84z" />
    <glyph glyph-name="product" unicode="&#x220f;" 
d="M141 630l5 -858h-75v857h-81v75h579v-70l-80 -1v-861h-70l-5 860z" />
    <glyph glyph-name="summation" unicode="&#x2211;" 
d="M410 244l-278 -407l382 5v-70h-475l-10 57l291 414l-281 406l10 56h438v-70l-345 5z" />
    <glyph glyph-name="minus" unicode="&#x2212;" 
d="M508 223l-455 -5v76h455v-71z" />
    <glyph glyph-name="periodcenter" unicode="&#x2219;" horiz-adv-x="213" 
d="M104 323q30 0 47 -18.5t17 -50.5t-17 -51t-47 -19t-47 19t-17 50t17 50.5t47 19.5z" />
    <glyph glyph-name="radical" unicode="&#x221a;" horiz-adv-x="646" 
d="M378 39l180 682l73 -21l-223 -790h-60l-146 514l-183 -52l-19 74l256 67z" />
    <glyph glyph-name="infinity" unicode="&#x221e;" horiz-adv-x="750" 
d="M303 169q-38 -31 -106.5 -31t-112.5 58t-44 139.5t44 140t119 58.5q96 0 171 -123q33 60 71.5 91t107.5 31t113 -58t44 -139.5t-44 -140t-119 -58.5q-97 0 -172 123q-34 -60 -72 -91zM203 447q-50 0 -83 -31.5t-33 -77.5t33.5 -79.5t82 -33.5t80.5 35t67 104v1
q-70 82 -147 82zM399.5 306q-0.5 0 -0.5 -1q24 -32 63 -56.5t87 -24.5t81 31.5t33 78t-33.5 79.5t-78.5 33q-61 0 -103 -60q-24 -33 -36 -56.5t-12.5 -23.5z" />
    <glyph glyph-name="integral" unicode="&#x222b;" 
d="M309 544q0 -67 21.5 -293t21.5 -309.5t-40.5 -130t-116.5 -46.5q-28 0 -52 9l11 53q19 -7 41 -7q86 0 86 116q0 66 -21.5 292.5t-21.5 310t40.5 130t116.5 46.5q28 0 52 -9l-11 -53q-19 7 -41 7q-86 0 -86 -116z" />
    <glyph glyph-name="approxequal" unicode="&#x2248;" 
d="M284 206q92 -30 118 -30t71 55l40 -33q-21 -33 -36 -52q-40 -52 -72 -52t-126 30t-116.5 30t-50.5 -28l-25 -27l-40 33q21 33 36 52q40 52 74.5 52t126.5 -30zM284 376q92 -30 119.5 -30t69.5 55l40 -33q-21 -33 -36 -52q-40 -52 -72 -52t-126 30t-116.5 30t-50.5 -28
l-25 -27l-40 33q21 33 36 52q40 52 74.5 52t126.5 -30z" />
    <glyph glyph-name="notequal" unicode="&#x2260;" 
d="M287 187l220 3v-71h-252l-63 -136l-70 12l57 124h-127v66l159 1l57 123l-216 -2v71h248l62 134l70 -12l-57 -122h132v-66l-163 -2z" />
    <glyph glyph-name="lessequal" unicode="&#x2264;" 
d="M52 66l455 5v-71h-455v66zM100 335l310 235l45 -61l-236 -174l237 -174l-46 -61z" />
    <glyph glyph-name="greaterequal" unicode="&#x2265;" 
d="M52 66l455 5v-71h-455v66zM456 335l-310 -235l-45 61l236 174l-237 174l46 61z" />
    <glyph glyph-name="lozenge" unicode="&#x25ca;" 
d="M280 570l262 -286l-262 -282l-262 282zM280 110l163 175l-163 177l-163 -177z" />
    <glyph glyph-name="CR" horiz-adv-x="230" 
 />
    <glyph glyph-name="AE.alt" horiz-adv-x="903" 
d="M697 705q25 0 123 10l10 -11l14 -143l-58 -7q-5 25 -11 43.5t-27 46.5q-38 5 -81 5h-171q1 -5 4 -45.5t7 -62.5l28 -179l124 19q8 1 36 10l21 7v67l46 2l4 -32q1 -7 3 -24t4 -23q3 -27 8.5 -54.5t10.5 -53.5l-47 -13l-19 65q-23 0 -34 -1l-48 -3l-102 -15l22 -139
q2 -18 12 -62.5t13 -54.5h121q39 0 85 8q16 28 20 50.5t6 33.5t2 18l55 -1l-5 -159l-10 -11l-54 2q-56 2 -69 2h-261q-14 0 -40 -2l-24 -2l-5 53l70 7v11q0 50 -3 63l-26 170l-195 -28l-80 -170q-4 -11 -14 -46l74 -7l-6 -53l-62 2q-70 2 -94.5 2t-46.5 -2l-19 -2l-3 52
l62 9q57 76 64 96l236 495l-74 12l5 50l32 -3q38 -2 63 -2h304zM412 556l-7 28l-121 -255l69 8l90 12z" />
    <glyph glyph-name="Gtilde" horiz-adv-x="653" 
d="M618 330q-10 -105 -10 -164v-147q-144 -34 -229 -34q-162 0 -248 99t-86 267.5t86 268.5t248 100q81 0 161 -20q50 -12 59 -14l-11 -148l-58 6v45q0 15 -12 49q-81 24 -141 24q-112 0 -170.5 -86t-58.5 -223t58.5 -223.5t170.5 -86.5q64 0 139 20q12 46 12 65v68
q0 15 -4.5 40.5t-5.5 39.5l-86 8l5 57l49 -4q36 -4 68.5 -4t41.5 1l16 2zM555 900q-47 -98 -83 -98q-20 0 -82 20.5t-79 20.5t-40 -27q-7 -10 -16 -27l-36 21q9 22 26 50q31 51 53.5 51t85 -20.5t80.5 -20.5t39 25q7 8 16 26z" />
    <glyph glyph-name="e.superior" horiz-adv-x="324" 
d="M299 417q-52 -44 -122.5 -44t-111 46t-40.5 124t37.5 124.5t110 46.5t102 -40.5t29.5 -120.5l-11 -21h-198q3 -51 23.5 -83.5t60 -32.5t63.5 12.5t34 22.5zM170 675q-69 0 -75 -106q105 7 139 7v20q0 79 -64 79z" />
    <glyph glyph-name="graveMay" horiz-adv-x="259" 
d="M0 854l30 73l229 -100l-20 -48l-88 37z" />
    <glyph glyph-name="dieresisi" horiz-adv-x="298" 
d="M61 713q54 0 54 -59.5t-54 -59.5t-54 59q0 28 14 44t40 16zM237 713q54 0 54 -59.5t-54 -59.5t-54 59q0 28 14 44t40 16z" />
    <glyph glyph-name="tildei" horiz-adv-x="296" 
d="M265 653q-31 -49 -52.5 -49t-61.5 20.5t-55.5 20.5t-31 -18.5t-23.5 -35.5l-36 21q9 22 26 50q31 51 56 51q17 0 57 -20.5t57 -20.5t38 25q7 8 16 26l36 -21q-10 -25 -26 -49z" />
    <glyph glyph-name="gtilde" horiz-adv-x="509" 
d="M247 141q-37 0 -68 9q-27 -34 -27 -43t8 -16t26.5 -11t35 -6t45.5 -5q126 -13 164 -26q45 -14 45 -93t-78.5 -132t-175.5 -53q-198 0 -198 145q0 31 93 100q-45 24 -45 74q0 21 71 81q-89 46 -89 157q0 84 54 132.5t139 48.5q55 0 100 -22l115 25l9 -51l-36 -12
q-6 -2 -25 -16q30 -43 30 -105q0 -84 -54 -132.5t-139 -48.5zM247 192q106 0 106 130t-106 130t-106 -130t106 -130zM383.5 -43.5q-7.5 8.5 -32 13.5t-102 14t-95.5 14q-44 -57 -44 -70q0 -60 35.5 -83t98.5 -23t105 27t42 76q0 23 -7.5 31.5zM431 702q-47 -98 -83 -98
q-20 0 -77 20.5t-74 20.5t-40 -27q-7 -10 -16 -27l-36 21q9 22 26 50q31 51 53.5 51t80 -20.5t75.5 -20.5t39 25q7 8 16 26z" />
    <glyph glyph-name="dieresisMayI" horiz-adv-x="298" 
d="M56 912q54 0 54 -59.5t-54 -59.5t-54 59q0 28 14 44t40 16zM242 912q54 0 54 -59.5t-54 -59.5t-54 59q0 28 14 44t40 16z" />
    <glyph glyph-name="dieresisMay" horiz-adv-x="358" 
d="M56 912q54 0 54 -59.5t-54 -59.5t-54 59q0 28 14 44t40 16zM302 912q54 0 54 -59.5t-54 -59.5t-54 59q0 28 14 44t40 16z" />
    <glyph glyph-name="breveMay" horiz-adv-x="279" 
d="M139 832q38 0 60.5 23t22.5 61h56q0 -68 -35.5 -104t-103.5 -36t-103.5 36t-35.5 104h56q0 -38 22.5 -61t60.5 -23z" />
    <glyph glyph-name="cuadratin" horiz-adv-x="516" 
d="M50 40v414h416v-414h-416z" />
    <glyph glyph-name="circumflexMay" horiz-adv-x="348" 
d="M174 922l174 -107l-23 -39l-88 41l-63 25l-63 -25l-88 -41l-23 39z" />
    <glyph glyph-name="caronMay" horiz-adv-x="348" 
d="M348 883l-174 -107l-174 107l23 39l88 -41l63 -25l63 25l88 41z" />
    <glyph glyph-name="percent" horiz-adv-x="785" 
d="M195 -49l-51 32l434 738l50 -32zM341 493v-1q0 -75 -40 -124t-110 -49t-110 49t-40 124.5t40 124.5t110 49t110 -49t40 -124zM133.5 578q-17.5 -35 -17.5 -85.5t17.5 -85.5t57.5 -35q75 0 75 121q0 50 -17.5 85t-57.5 35t-57.5 -35zM723 163v-1q0 -75 -40 -124t-110 -49
t-110 49t-40 124.5t40 124.5t110 49t110 -49t40 -124zM515.5 248q-17.5 -35 -17.5 -85.5t17.5 -85.5t57.5 -35q75 0 75 121q0 50 -17.5 85t-57.5 35t-57.5 -35z" />
    <glyph glyph-name="three.tf" horiz-adv-x="530" 
d="M233 297l-66 -3l-14 50q183 23 183 150q0 52 -29 83t-78 31t-81 -23q-9 -36 -9 -49l2 -45l-55 -3l-13 145q87 29 166.5 29t135 -43t55.5 -124q0 -53 -32.5 -92.5t-90.5 -60.5q69 -17 110 -58.5t41 -117.5t-65.5 -128.5t-154 -52.5t-165.5 28l13 145l55 -3l-2 -45
q0 -19 11 -55q36 -17 88.5 -17t88.5 36t36 95t-36.5 93.5t-93.5 34.5z" />
    <glyph glyph-name="hungarumlautMay" horiz-adv-x="491" 
d="M210 942l41 -67q-18 -9 -48.5 -22t-48.5 -21q-42 -18 -46 -19l-81 -50l-27 43zM450 942l41 -67q-18 -9 -48.5 -22t-48.5 -21q-42 -18 -46 -19l-81 -50l-27 43z" />
    <glyph glyph-name="_0000" horiz-adv-x="0" 
 />
    <glyph glyph-name="zero.numerator" horiz-adv-x="360" 
d="M330 493v-1q0 -75 -40 -124t-110 -49t-110 49t-40 124.5t40 124.5t110 49t110 -49t40 -124zM122.5 578q-17.5 -35 -17.5 -85.5t17.5 -85.5t57.5 -35q75 0 75 121q0 50 -17.5 85t-57.5 35t-57.5 -35z" />
    <glyph glyph-name="one.numerator" horiz-adv-x="293" 
d="M123 370l5 45v149l-67 -32l-21 34l37 27q11 9 27.5 21t17.5 13l21 21l16 18l39 -7l-4 -51q-3 -27 -3 -69v-109q0 -15 2 -39l3 -21l52 -5l-5 -43l-35 2q-42 2 -66 2t-54 -2l-25 -2l-4 40z" />
    <glyph glyph-name="two.numerator" horiz-adv-x="325" 
d="M191 372l38 4l2 11q3 12 3 14l2 33l49 -2l-5 -103l-5 -5q-23 0 -34 1l-43 1h-151l-7 41q12 12 38.5 35.5t38.5 35t30.5 31.5t26.5 33q22 38 22 64t-15 40t-35 14t-40 -12q-5 -18 -5 -28v-33l-50 -1l-7 99q60 17 108 17t81.5 -22.5t33.5 -68.5q0 -37 -24 -81
q-12 -21 -45.5 -53t-70.5 -65h64z" />
    <glyph glyph-name="three.numerator" horiz-adv-x="332" 
d="M154 476l-21 -1h-9l-7 32q47 5 66.5 21.5t19.5 46.5q0 45 -49 45q-20 0 -35 -7q-3 -9 -3 -28v-34l-48 -2l-8 94q59 18 104.5 18t76 -22t30.5 -64q0 -53 -57 -74q73 -19 73 -84q0 -48 -36 -73.5t-93.5 -25.5t-102.5 17l7 90l50 -2q-1 -5 -1.5 -12.5t-0.5 -18.5
q0 -12 3 -26q15 -7 43.5 -7t43 16t14.5 42.5t-17 42.5t-43 16z" />
    <glyph glyph-name="four.numerator" horiz-adv-x="327" 
d="M236 474l56 3v-48h-56v-6q0 -31 0.5 -40.5t1.5 -12.5l54 -5l-5 -43l-35 2q-42 2 -65 2t-49 -2l-23 -2l-4 40l63 8l2 15q2 16 2 23v21h-137l-26 31l149 233l49 -36l-22 -26q-6 -8 -15.5 -19.5t-10.5 -13.5l-72 -127h38q24 0 47 1v59l56 18z" />
    <glyph glyph-name="zero.denominator" horiz-adv-x="360" 
d="M330 163v-1q0 -75 -40 -124t-110 -49t-110 49t-40 124.5t40 124.5t110 49t110 -49t40 -124zM122.5 248q-17.5 -35 -17.5 -85.5t17.5 -85.5t57.5 -35q75 0 75 121q0 50 -17.5 85t-57.5 35t-57.5 -35z" />
    <glyph glyph-name="one.denominator" horiz-adv-x="280" 
d="M123 44l5 45v149l-67 -32l-21 34l37 27q11 9 27.5 21t17.5 13l21 21l16 18l39 -7l-4 -51q-3 -27 -3 -69v-109q0 -15 2 -39l3 -21l52 -5l-5 -43l-35 2q-42 2 -66 2t-54 -2l-25 -2l-4 40z" />
    <glyph glyph-name="two.denominator" horiz-adv-x="325" 
d="M191 47l38 4l2 11q3 12 3 14l2 33l49 -2l-5 -103l-5 -5q-23 0 -34 1l-43 1h-151l-7 41q12 12 38.5 35.5t38.5 35t30.5 31.5t26.5 34q22 37 22 63t-15 40t-35 14t-40 -12q-5 -18 -5 -28v-33l-50 -1l-7 99q60 17 108 17t81.5 -22.5t33.5 -68.5q0 -37 -24 -80
q-12 -22 -45.5 -54t-70.5 -65h64z" />
    <glyph glyph-name="three.denominator" horiz-adv-x="332" 
d="M154 149l-21 -1h-9l-7 32q47 5 66.5 21.5t19.5 46.5q0 45 -49 45q-20 0 -35 -7q-3 -9 -3 -28v-34l-48 -2l-8 94q59 18 104.5 18t76 -22t30.5 -64q0 -53 -57 -74q73 -19 73 -84q0 -48 -36 -73.5t-93.5 -25.5t-102.5 17l7 90l50 -2q-1 -5 -1.5 -12.5t-0.5 -19.5t3 -25
q15 -7 43.5 -7t43 16t14.5 42.5t-17 42.5t-43 16z" />
    <glyph glyph-name="four.denominator" horiz-adv-x="327" 
d="M236 147l56 3v-48h-56v-6q0 -31 0.5 -40.5t1.5 -12.5l54 -5l-5 -43l-35 2q-42 2 -65 2t-49 -2l-23 -2l-4 40l63 8l2 15q2 16 2 23v21h-137l-26 31l149 233l49 -36l-22 -26q-6 -8 -15.5 -19.5t-10.5 -13.5l-72 -127h38q24 0 47 1v59l56 18z" />
    <glyph glyph-name="acuteMay" horiz-adv-x="259" 
d="M229 927l30 -73l-68 -17q-14 -4 -34 -8.5t-32.5 -8t-16.5 -4.5l-88 -37l-20 48z" />
    <glyph glyph-name="tildeMay" horiz-adv-x="336" 
d="M336 900q-47 -98 -83 -98q-20 0 -82 20.5t-79 20.5t-40 -27q-8 -10 -16 -27l-36 21q9 22 26 50q31 51 53.5 51t85 -20.5t80.5 -20.5t39 25q7 8 16 26z" />
    <glyph glyph-name="macroni" horiz-adv-x="282" 
d="M12 626v53h258l-5 -53h-253z" />
    <glyph glyph-name="cmacron" horiz-adv-x="483" 
d="M167 109q33 -54 103.5 -54t139.5 36l28 -47q-19 -16 -46 -27q-52 -27 -123 -27q-111 0 -170 69t-59 187t59 187.5t171 69.5q36 0 61 -6q32 -8 96 -29l-10 -125l-58 3v36q0 8 -7 34q-36 30 -82 30q-70 0 -103 -58t-33 -141.5t33 -137.5zM111 626v53h322l-5 -53h-317z" />
    <glyph glyph-name="ymacron" horiz-adv-x="539" 
d="M341 503q70 -9 107 -9t53 3l29 3l4 -54l-38 -5q-58 -117 -60 -122l-126 -319l-84 -235l-163 11l8 58q5 -1 16 -1h24q16 0 66 12q32 48 39 66l28 80l-148 353q-4 13 -51 97l-40 8l5 54q70 -9 108.5 -9t57.5 3l35 4l5 -55l-62 -8q16 -56 27 -89l102 -253l92 255
q15 44 26 88l-65 10zM122 626v53h322l-5 -53h-317z" />
    <glyph glyph-name="Cmacron" horiz-adv-x="643" 
d="M602 170l6 -151q-144 -34 -229 -34q-162 0 -248 99t-86 267.5t86 268.5t248 100q81 0 161 -20q50 -12 59 -14l-11 -148l-61 4v47q0 16 -12 50q-76 23 -135 23q-110 0 -169 -86.5t-59 -222.5t59 -223t169 -87q68 0 144 22q15 43 16 56.5t1 26.5v20zM234 811v53h322l-5 -53
h-317z" />
    <glyph glyph-name="hungarumlauti" horiz-adv-x="482" 
d="M232 765l42 -53l-58 -39q-18 -12 -42.5 -29.5t-26.5 -18.5l-74 -61l-33 41zM393 765l49 -62q-50 -28 -61 -35l-73 -43l-74 -61l-33 41z" />
    <glyph glyph-name="Ering" horiz-adv-x="562" 
d="M351 337l-47 3h-53q-10 0 -42 -2v-171q0 -68 6 -110h144q41 0 87 8q14 19 21 38q1 8 7.5 34.5t7.5 32.5l55 -5l-15 -158l-10 -11l-54 2q-56 2 -69 2h-239q-34 0 -72 -5l-41 -4l-7 57l77 9q1 9 5.5 34.5t4.5 45.5v431q0 15 -4.5 40.5t-5.5 39.5l-77 12l5 50l28 -3
q32 -2 57 -2h256q26 0 123 10l10 -11l7 -143l-58 -5q-8 43 -12 56t-19 32q-38 5 -81 5h-131q-6 -40 -6 -111v-144q34 -2 42 -2h73q24 0 60 9l9 66l46 -5q-1 -12 -1 -33v-47q0 -52 1 -73l2 -36l-48 -6l-9 67zM388.5 913q22.5 -23 22.5 -62.5t-22.5 -62.5t-66.5 -23t-67 23
t-23 62.5t23 62.5t67 23t66.5 -23zM364 850.5q0 47.5 -41.5 47.5t-41.5 -47.5t41.5 -47.5t41.5 47.5z" />
    <glyph glyph-name="Ehungarumlaut" horiz-adv-x="562" 
d="M351 337l-47 3h-53q-10 0 -42 -2v-171q0 -68 6 -110h144q41 0 87 8q14 19 21 38q1 8 7.5 34.5t7.5 32.5l55 -5l-15 -158l-10 -11l-54 2q-56 2 -69 2h-239q-34 0 -72 -5l-41 -4l-7 57l77 9q1 9 5.5 34.5t4.5 45.5v431q0 15 -4.5 40.5t-5.5 39.5l-77 12l5 50l28 -3
q32 -2 57 -2h256q26 0 123 10l10 -11l7 -143l-58 -5q-8 43 -12 56t-19 32q-38 5 -81 5h-131q-6 -40 -6 -111v-144q34 -2 42 -2h73q24 0 60 9l9 66l46 -5q-1 -12 -1 -33v-47q0 -52 1 -73l2 -36l-48 -6l-9 67zM369 942l41 -67q-18 -9 -48.5 -22t-47.5 -21q-42 -17 -47 -19
l-81 -50l-27 43zM609 942l41 -67q-18 -9 -48.5 -22t-47.5 -21q-43 -18 -47 -19l-81 -50l-27 43z" />
    <glyph glyph-name="Adotaccent" horiz-adv-x="686" 
d="M312 705l54 11l110 -286q24 -61 52 -136q60 -158 64 -166q8 -24 38 -74l51 -5l-3 -53l-69 2q-74 2 -93 2t-45 -2l-24 -2l-5 53l71 7q-7 49 -15 73l-40 104l-249 -3l-41 -115q-7 -31 -11 -58h1l78 -8l-6 -53l-62 2q-70 2 -94.5 2t-46.5 -2l-19 -2l-3 52l57 8
q55 101 56 105zM228 284q54 -2 77 -2t67.5 1.5t65.5 1.5l-109 284zM289 887.5q15 17.5 43.5 17.5t44 -17t15.5 -47.5t-15 -47.5t-44 -17t-44 17t-15 47t15 47.5z" />
    <glyph glyph-name="Ahungarumlaut" horiz-adv-x="686" 
d="M312 705l54 11l110 -286q24 -61 52 -136q60 -158 64 -166q8 -24 38 -74l51 -5l-3 -53l-69 2q-74 2 -93 2t-45 -2l-24 -2l-5 53l71 7q-7 49 -15 73l-40 104l-249 -3l-41 -115q-7 -31 -11 -58h1l78 -8l-6 -53l-62 2q-70 2 -94.5 2t-46.5 -2l-19 -2l-3 52l57 8
q55 101 56 105zM228 284q54 -2 77 -2t67.5 1.5t65.5 1.5l-109 284zM380 942l41 -67q-18 -9 -48.5 -22t-48.5 -21q-41 -17 -46 -19l-81 -50l-27 43zM620 942l41 -67q-18 -9 -48.5 -22t-48.5 -21q-41 -17 -46 -19l-81 -50l-27 43z" />
    <glyph glyph-name="Cring" horiz-adv-x="643" 
d="M602 170l6 -151q-144 -34 -229 -34q-162 0 -248 99t-86 267.5t86 268.5t248 100q81 0 161 -20q50 -12 59 -14l-11 -148l-61 4v47q0 16 -12 50q-76 23 -135 23q-110 0 -169 -86.5t-59 -222.5t59 -223t169 -87q68 0 144 22q15 43 16 56.5t1 26.5v20zM459.5 913
q22.5 -23 22.5 -62.5t-22.5 -62.5t-66.5 -23t-67 23t-23 62.5t23 62.5t67 23t66.5 -23zM435 850.5q0 47.5 -41.5 47.5t-41.5 -47.5t41.5 -47.5t41.5 47.5z" />
    <glyph glyph-name="Cgrave" horiz-adv-x="643" 
d="M602 170l6 -151q-144 -34 -229 -34q-162 0 -248 99t-86 267.5t86 268.5t248 100q81 0 161 -20q50 -12 59 -14l-11 -148l-61 4v47q0 16 -12 50q-76 23 -135 23q-110 0 -169 -86.5t-59 -222.5t59 -223t169 -87q68 0 144 22q15 43 16 56.5t1 26.5v20zM221 854l30 73
l229 -100l-20 -48l-88 37z" />
    <glyph glyph-name="Cdieresis" horiz-adv-x="643" 
d="M602 170l6 -151q-144 -34 -229 -34q-162 0 -248 99t-86 267.5t86 268.5t248 100q81 0 161 -20q50 -12 59 -14l-11 -148l-61 4v47q0 16 -12 50q-76 23 -135 23q-110 0 -169 -86.5t-59 -222.5t59 -223t169 -87q68 0 144 22q15 43 16 56.5t1 26.5v20zM270 912q54 0 54 -59.5
t-54 -59.5t-54 59q0 28 14 44t40 16zM516 912q54 0 54 -59.5t-54 -59.5t-54 59q0 28 14 44t40 16z" />
    <glyph glyph-name="Cbreve" horiz-adv-x="643" 
d="M602 170l6 -151q-144 -34 -229 -34q-162 0 -248 99t-86 267.5t86 268.5t248 100q81 0 161 -20q50 -12 59 -14l-11 -148l-61 4v47q0 16 -12 50q-76 23 -135 23q-110 0 -169 -86.5t-59 -222.5t59 -223t169 -87q68 0 144 22q15 43 16 56.5t1 26.5v20zM393 832q38 0 60.5 23
t22.5 61h56q0 -68 -35.5 -104t-103.5 -36t-103.5 36t-35.5 104h56q0 -38 22.5 -61t60.5 -23z" />
    <glyph glyph-name="Chungarumlaut" horiz-adv-x="643" 
d="M602 170l6 -151q-144 -34 -229 -34q-162 0 -248 99t-86 267.5t86 268.5t248 100q81 0 161 -20q50 -12 59 -14l-11 -148l-61 4v47q0 16 -12 50q-76 23 -135 23q-110 0 -169 -86.5t-59 -222.5t59 -223t169 -87q68 0 144 22q15 43 16 56.5t1 26.5v20zM440 942l41 -67
q-18 -9 -48.5 -22t-48.5 -21q-42 -18 -46 -19l-81 -50l-27 43zM680 942l41 -67q-18 -9 -48.5 -22t-48.5 -21q-41 -18 -46 -19l-81 -50l-27 43z" />
    <glyph glyph-name="Ctilde" horiz-adv-x="643" 
d="M602 170l6 -151q-144 -34 -229 -34q-162 0 -248 99t-86 267.5t86 268.5t248 100q81 0 161 -20q50 -12 59 -14l-11 -148l-61 4v47q0 16 -12 50q-76 23 -135 23q-110 0 -169 -86.5t-59 -222.5t59 -223t169 -87q68 0 144 22q15 43 16 56.5t1 26.5v20zM561 900
q-47 -98 -83 -98q-20 0 -82 20.5t-79 20.5t-40 -27q-7 -10 -16 -27l-36 21q9 22 26 50q31 51 53.5 51t85 -20.5t80.5 -20.5t39 25q7 8 16 26z" />
    <glyph glyph-name="Gring" horiz-adv-x="653" 
d="M618 330q-10 -105 -10 -164v-147q-144 -34 -229 -34q-162 0 -248 99t-86 267.5t86 268.5t248 100q81 0 161 -20q50 -12 59 -14l-11 -148l-58 6v45q0 15 -12 49q-81 24 -141 24q-112 0 -170.5 -86t-58.5 -223t58.5 -223.5t170.5 -86.5q64 0 139 20q12 46 12 65v68
q0 15 -4.5 40.5t-5.5 39.5l-86 8l5 57l49 -4q36 -4 68.5 -4t41.5 1l16 2zM453.5 913q22.5 -23 22.5 -62.5t-22.5 -62.5t-66.5 -23t-67 23t-23 62.5t23 62.5t67 23t66.5 -23zM429 850.5q0 47.5 -41.5 47.5t-41.5 -47.5t41.5 -47.5t41.5 47.5z" />
    <glyph glyph-name="Ggrave" horiz-adv-x="653" 
d="M618 330q-10 -105 -10 -164v-147q-144 -34 -229 -34q-162 0 -248 99t-86 267.5t86 268.5t248 100q81 0 161 -20q50 -12 59 -14l-11 -148l-58 6v45q0 15 -12 49q-81 24 -141 24q-112 0 -170.5 -86t-58.5 -223t58.5 -223.5t170.5 -86.5q64 0 139 20q12 46 12 65v68
q0 15 -4.5 40.5t-5.5 39.5l-86 8l5 57l49 -4q36 -4 68.5 -4t41.5 1l16 2zM215 854l30 73l229 -100l-20 -48l-88 37z" />
    <glyph glyph-name="Gdieresis" horiz-adv-x="653" 
d="M618 330q-10 -105 -10 -164v-147q-144 -34 -229 -34q-162 0 -248 99t-86 267.5t86 268.5t248 100q81 0 161 -20q50 -12 59 -14l-11 -148l-58 6v45q0 15 -12 49q-81 24 -141 24q-112 0 -170.5 -86t-58.5 -223t58.5 -223.5t170.5 -86.5q64 0 139 20q12 46 12 65v68
q0 15 -4.5 40.5t-5.5 39.5l-86 8l5 57l49 -4q36 -4 68.5 -4t41.5 1l16 2zM264 912q54 0 54 -59.5t-54 -59.5t-54 59q0 28 14 44t40 16zM510 912q54 0 54 -59.5t-54 -59.5t-54 59q0 28 14 44t40 16z" />
    <glyph glyph-name="Ghungarumlaut" horiz-adv-x="653" 
d="M618 330q-10 -105 -10 -164v-147q-144 -34 -229 -34q-162 0 -248 99t-86 267.5t86 268.5t248 100q81 0 161 -20q50 -12 59 -14l-11 -148l-58 6v45q0 15 -12 49q-81 24 -141 24q-112 0 -170.5 -86t-58.5 -223t58.5 -223.5t170.5 -86.5q64 0 139 20q12 46 12 65v68
q0 15 -4.5 40.5t-5.5 39.5l-86 8l5 57l49 -4q36 -4 68.5 -4t41.5 1l16 2zM434 942l41 -67q-18 -9 -48.5 -22t-48.5 -21q-42 -18 -46 -19l-81 -50l-27 43zM674 942l41 -67q-18 -9 -48.5 -22t-48.5 -21q-41 -17 -46 -19l-81 -50l-27 43z" />
    <glyph glyph-name="Iring" horiz-adv-x="343" 
d="M127 137v431q0 15 -4.5 40.5t-5.5 39.5l-77 9l5 53l32 -3q38 -2 82 -2t85 4l53 4l6 -59l-78 -6l-4 -36q-3 -21 -3 -74v-371q0 -53 3 -74l4 -36l78 -6l-6 -55l-53 2q-62 2 -95.5 2t-71.5 -2l-32 -2l-5 52l77 9q1 9 5.5 34.5t4.5 45.5zM246.5 913q22.5 -23 22.5 -62.5
t-22.5 -62.5t-66.5 -23t-67 23t-23 62.5t23 62.5t67 23t66.5 -23zM222 850.5q0 47.5 -41.5 47.5t-41.5 -47.5t41.5 -47.5t41.5 47.5z" />
    <glyph glyph-name="Ihungarumlaut" horiz-adv-x="343" 
d="M127 137v431q0 15 -4.5 40.5t-5.5 39.5l-77 9l5 53l32 -3q38 -2 82 -2t85 4l53 4l6 -59l-78 -6l-4 -36q-3 -21 -3 -74v-371q0 -53 3 -74l4 -36l78 -6l-6 -55l-53 2q-62 2 -95.5 2t-71.5 -2l-32 -2l-5 52l77 9q1 9 5.5 34.5t4.5 45.5zM227 942l41 -67q-18 -9 -48.5 -22
t-47.5 -21q-42 -17 -47 -19l-81 -50l-27 43zM467 942l41 -67q-18 -9 -48.5 -22t-47.5 -21q-43 -18 -47 -19l-81 -50l-27 43z" />
    <glyph glyph-name="Imacron" horiz-adv-x="343" 
d="M127 137v431q0 15 -4.5 40.5t-5.5 39.5l-77 9l5 53l32 -3q38 -2 82 -2t85 4l53 4l6 -59l-78 -6l-4 -36q-3 -21 -3 -74v-371q0 -53 3 -74l4 -36l78 -6l-6 -55l-53 2q-62 2 -95.5 2t-71.5 -2l-32 -2l-5 52l77 9q1 9 5.5 34.5t4.5 45.5zM21 811v53h322l-5 -53h-317z" />
    <glyph glyph-name="Mring" horiz-adv-x="941" 
d="M716 57l5 105l-21 367l-227 -529h-37l-227 530l-18 -368q0 -19 2 -65l3 -40l78 -6l-6 -55l-44 2q-54 2 -87.5 2t-71.5 -2l-32 -2l-5 52l77 9q1 3 3.5 14t4.5 17.5t5 22t5 21.5l26 437q0 15 -4.5 40.5t-5.5 39.5l-76 8l5 56l47 -4q36 -4 62 -4t56 2l26 2l6 -6l23 -82
q26 -92 29 -100l157 -377l159 393q6 14 26.5 81t25.5 85l6 6l18 -2q22 -2 48.5 -2t59.5 4l45 4l6 -59l-78 -6l-3 -32q-3 -17 -3 -47l34 -437q1 -8 6.5 -29t8 -32t3.5 -14l77 -9l-5 -52l-33 2q-38 2 -72.5 2t-100.5 -2l-58 -2l-6 55zM546.5 913q22.5 -23 22.5 -62.5
t-22.5 -62.5t-66.5 -23t-67 23t-23 62.5t23 62.5t67 23t66.5 -23zM522 850.5q0 47.5 -41.5 47.5t-41.5 -47.5t41.5 -47.5t41.5 47.5z" />
    <glyph glyph-name="Mgrave" horiz-adv-x="941" 
d="M716 57l5 105l-21 367l-227 -529h-37l-227 530l-18 -368q0 -19 2 -65l3 -40l78 -6l-6 -55l-44 2q-54 2 -87.5 2t-71.5 -2l-32 -2l-5 52l77 9q1 3 3.5 14t4.5 17.5t5 22t5 21.5l26 437q0 15 -4.5 40.5t-5.5 39.5l-76 8l5 56l47 -4q36 -4 62 -4t56 2l26 2l6 -6l23 -82
q26 -92 29 -100l157 -377l159 393q6 14 26.5 81t25.5 85l6 6l18 -2q22 -2 48.5 -2t59.5 4l45 4l6 -59l-78 -6l-3 -32q-3 -17 -3 -47l34 -437q1 -8 6.5 -29t8 -32t3.5 -14l77 -9l-5 -52l-33 2q-38 2 -72.5 2t-100.5 -2l-58 -2l-6 55zM308 854l30 73l229 -100l-20 -48l-88 37z
" />
    <glyph glyph-name="Mdieresis" horiz-adv-x="941" 
d="M716 57l5 105l-21 367l-227 -529h-37l-227 530l-18 -368q0 -19 2 -65l3 -40l78 -6l-6 -55l-44 2q-54 2 -87.5 2t-71.5 -2l-32 -2l-5 52l77 9q1 3 3.5 14t4.5 17.5t5 22t5 21.5l26 437q0 15 -4.5 40.5t-5.5 39.5l-76 8l5 56l47 -4q36 -4 62 -4t56 2l26 2l6 -6l23 -82
q26 -92 29 -100l157 -377l159 393q6 14 26.5 81t25.5 85l6 6l18 -2q22 -2 48.5 -2t59.5 4l45 4l6 -59l-78 -6l-3 -32q-3 -17 -3 -47l34 -437q1 -8 6.5 -29t8 -32t3.5 -14l77 -9l-5 -52l-33 2q-38 2 -72.5 2t-100.5 -2l-58 -2l-6 55zM357 912q54 0 54 -59.5t-54 -59.5t-54 59
q0 28 14 44t40 16zM603 912q54 0 54 -59.5t-54 -59.5t-54 59q0 28 14 44t40 16z" />
    <glyph glyph-name="Mbreve" horiz-adv-x="941" 
d="M716 57l5 105l-21 367l-227 -529h-37l-227 530l-18 -368q0 -19 2 -65l3 -40l78 -6l-6 -55l-44 2q-54 2 -87.5 2t-71.5 -2l-32 -2l-5 52l77 9q1 3 3.5 14t4.5 17.5t5 22t5 21.5l26 437q0 15 -4.5 40.5t-5.5 39.5l-76 8l5 56l47 -4q36 -4 62 -4t56 2l26 2l6 -6l23 -82
q26 -92 29 -100l157 -377l159 393q6 14 26.5 81t25.5 85l6 6l18 -2q22 -2 48.5 -2t59.5 4l45 4l6 -59l-78 -6l-3 -32q-3 -17 -3 -47l34 -437q1 -8 6.5 -29t8 -32t3.5 -14l77 -9l-5 -52l-33 2q-38 2 -72.5 2t-100.5 -2l-58 -2l-6 55zM480 832q38 0 60.5 23t22.5 61h56
q0 -68 -35.5 -104t-103.5 -36t-103.5 36t-35.5 104h56q0 -38 22.5 -61t60.5 -23z" />
    <glyph glyph-name="Mcircumflex" horiz-adv-x="941" 
d="M716 57l5 105l-21 367l-227 -529h-37l-227 530l-18 -368q0 -19 2 -65l3 -40l78 -6l-6 -55l-44 2q-54 2 -87.5 2t-71.5 -2l-32 -2l-5 52l77 9q1 3 3.5 14t4.5 17.5t5 22t5 21.5l26 437q0 15 -4.5 40.5t-5.5 39.5l-76 8l5 56l47 -4q36 -4 62 -4t56 2l26 2l6 -6l23 -82
q26 -92 29 -100l157 -377l159 393q6 14 26.5 81t25.5 85l6 6l18 -2q22 -2 48.5 -2t59.5 4l45 4l6 -59l-78 -6l-3 -32q-3 -17 -3 -47l34 -437q1 -8 6.5 -29t8 -32t3.5 -14l77 -9l-5 -52l-33 2q-38 2 -72.5 2t-100.5 -2l-58 -2l-6 55zM480 922l174 -107l-23 -39l-88 41l-63 25
l-63 -25l-88 -41l-23 39z" />
    <glyph glyph-name="Mcaron" horiz-adv-x="941" 
d="M716 57l5 105l-21 367l-227 -529h-37l-227 530l-18 -368q0 -19 2 -65l3 -40l78 -6l-6 -55l-44 2q-54 2 -87.5 2t-71.5 -2l-32 -2l-5 52l77 9q1 3 3.5 14t4.5 17.5t5 22t5 21.5l26 437q0 15 -4.5 40.5t-5.5 39.5l-76 8l5 56l47 -4q36 -4 62 -4t56 2l26 2l6 -6l23 -82
q26 -92 29 -100l157 -377l159 393q6 14 26.5 81t25.5 85l6 6l18 -2q22 -2 48.5 -2t59.5 4l45 4l6 -59l-78 -6l-3 -32q-3 -17 -3 -47l34 -437q1 -8 6.5 -29t8 -32t3.5 -14l77 -9l-5 -52l-33 2q-38 2 -72.5 2t-100.5 -2l-58 -2l-6 55zM654 883l-174 -107l-174 107l23 39
l88 -41l63 -25l63 25l88 41z" />
    <glyph glyph-name="Mhungarumlaut" horiz-adv-x="941" 
d="M716 57l5 105l-21 367l-227 -529h-37l-227 530l-18 -368q0 -19 2 -65l3 -40l78 -6l-6 -55l-44 2q-54 2 -87.5 2t-71.5 -2l-32 -2l-5 52l77 9q1 3 3.5 14t4.5 17.5t5 22t5 21.5l26 437q0 15 -4.5 40.5t-5.5 39.5l-76 8l5 56l47 -4q36 -4 62 -4t56 2l26 2l6 -6l23 -82
q26 -92 29 -100l157 -377l159 393q6 14 26.5 81t25.5 85l6 6l18 -2q22 -2 48.5 -2t59.5 4l45 4l6 -59l-78 -6l-3 -32q-3 -17 -3 -47l34 -437q1 -8 6.5 -29t8 -32t3.5 -14l77 -9l-5 -52l-33 2q-38 2 -72.5 2t-100.5 -2l-58 -2l-6 55zM527 942l41 -67q-18 -9 -48.5 -22
t-47.5 -21q-42 -17 -47 -19l-81 -50l-27 43zM767 942l41 -67q-18 -9 -48.5 -22t-47.5 -21q-43 -18 -47 -19l-81 -50l-27 43z" />
    <glyph glyph-name="Mtilde" horiz-adv-x="941" 
d="M716 57l5 105l-21 367l-227 -529h-37l-227 530l-18 -368q0 -19 2 -65l3 -40l78 -6l-6 -55l-44 2q-54 2 -87.5 2t-71.5 -2l-32 -2l-5 52l77 9q1 3 3.5 14t4.5 17.5t5 22t5 21.5l26 437q0 15 -4.5 40.5t-5.5 39.5l-76 8l5 56l47 -4q36 -4 62 -4t56 2l26 2l6 -6l23 -82
q26 -92 29 -100l157 -377l159 393q6 14 26.5 81t25.5 85l6 6l18 -2q22 -2 48.5 -2t59.5 4l45 4l6 -59l-78 -6l-3 -32q-3 -17 -3 -47l34 -437q1 -8 6.5 -29t8 -32t3.5 -14l77 -9l-5 -52l-33 2q-38 2 -72.5 2t-100.5 -2l-58 -2l-6 55zM648 900q-47 -98 -83 -98q-20 0 -82 20.5
t-79 20.5t-40 -27q-8 -10 -16 -27l-36 21q9 22 26 50q31 51 53.5 51t85 -20.5t80.5 -20.5t39 25q7 8 16 26z" />
    <glyph glyph-name="Mmacron" horiz-adv-x="941" 
d="M716 57l5 105l-21 367l-227 -529h-37l-227 530l-18 -368q0 -19 2 -65l3 -40l78 -6l-6 -55l-44 2q-54 2 -87.5 2t-71.5 -2l-32 -2l-5 52l77 9q1 3 3.5 14t4.5 17.5t5 22t5 21.5l26 437q0 15 -4.5 40.5t-5.5 39.5l-76 8l5 56l47 -4q36 -4 62 -4t56 2l26 2l6 -6l23 -82
q26 -92 29 -100l157 -377l159 393q6 14 26.5 81t25.5 85l6 6l18 -2q22 -2 48.5 -2t59.5 4l45 4l6 -59l-78 -6l-3 -32q-3 -17 -3 -47l34 -437q1 -8 6.5 -29t8 -32t3.5 -14l77 -9l-5 -52l-33 2q-38 2 -72.5 2t-100.5 -2l-58 -2l-6 55zM321 811v53h322l-5 -53h-317z" />
    <glyph glyph-name="Nring" horiz-adv-x="764" 
d="M639 297l-1 -167v-137h-60l-394 563v-389q0 -53 3 -74l4 -36l78 -6l-6 -55l-36 2q-46 2 -82.5 2t-71.5 -5l-36 -4l-7 57l77 9q1 9 5.5 34.5t4.5 45.5v431q0 16 -4.5 43t-5.5 38l-76 8l5 53l42 -3q46 -2 68 -2t52 2l25 2l5 -6q15 -36 44.5 -99t37.5 -74l262 -367v395
q0 19 -4.5 47t-5.5 43l-77 8l5 54l32 -3q38 -2 81 -2t79 4l46 4l6 -59l-78 -6l-9 -41q-8 -48 -8 -79v-231zM431.5 913q22.5 -23 22.5 -62.5t-22.5 -62.5t-66.5 -23t-67 23t-23 62.5t23 62.5t67 23t66.5 -23zM407 850.5q0 47.5 -41.5 47.5t-41.5 -47.5t41.5 -47.5t41.5 47.5z
" />
    <glyph glyph-name="Ngrave" horiz-adv-x="764" 
d="M639 297l-1 -167v-137h-60l-394 563v-389q0 -53 3 -74l4 -36l78 -6l-6 -55l-36 2q-46 2 -82.5 2t-71.5 -5l-36 -4l-7 57l77 9q1 9 5.5 34.5t4.5 45.5v431q0 16 -4.5 43t-5.5 38l-76 8l5 53l42 -3q46 -2 68 -2t52 2l25 2l5 -6q15 -36 44.5 -99t37.5 -74l262 -367v395
q0 19 -4.5 47t-5.5 43l-77 8l5 54l32 -3q38 -2 81 -2t79 4l46 4l6 -59l-78 -6l-9 -41q-8 -48 -8 -79v-231zM193 854l30 73l229 -100l-20 -48l-88 37z" />
    <glyph glyph-name="Ndieresis" horiz-adv-x="764" 
d="M639 297l-1 -167v-137h-60l-394 563v-389q0 -53 3 -74l4 -36l78 -6l-6 -55l-36 2q-46 2 -82.5 2t-71.5 -5l-36 -4l-7 57l77 9q1 9 5.5 34.5t4.5 45.5v431q0 16 -4.5 43t-5.5 38l-76 8l5 53l42 -3q46 -2 68 -2t52 2l25 2l5 -6q15 -36 44.5 -99t37.5 -74l262 -367v395
q0 19 -4.5 47t-5.5 43l-77 8l5 54l32 -3q38 -2 81 -2t79 4l46 4l6 -59l-78 -6l-9 -41q-8 -48 -8 -79v-231zM242 912q54 0 54 -59.5t-54 -59.5t-54 59q0 28 14 44t40 16zM488 912q54 0 54 -59.5t-54 -59.5t-54 59q0 28 14 44t40 16z" />
    <glyph glyph-name="Nbreve" horiz-adv-x="764" 
d="M639 297l-1 -167v-137h-60l-394 563v-389q0 -53 3 -74l4 -36l78 -6l-6 -55l-36 2q-46 2 -82.5 2t-71.5 -5l-36 -4l-7 57l77 9q1 9 5.5 34.5t4.5 45.5v431q0 16 -4.5 43t-5.5 38l-76 8l5 53l42 -3q46 -2 68 -2t52 2l25 2l5 -6q15 -36 44.5 -99t37.5 -74l262 -367v395
q0 19 -4.5 47t-5.5 43l-77 8l5 54l32 -3q38 -2 81 -2t79 4l46 4l6 -59l-78 -6l-9 -41q-8 -48 -8 -79v-231zM365 832q38 0 60.5 23t22.5 61h56q0 -68 -35.5 -104t-103.5 -36t-103.5 36t-35.5 104h56q0 -38 22.5 -61t60.5 -23z" />
    <glyph glyph-name="Ncircumflex" horiz-adv-x="764" 
d="M639 297l-1 -167v-137h-60l-394 563v-389q0 -53 3 -74l4 -36l78 -6l-6 -55l-36 2q-46 2 -82.5 2t-71.5 -5l-36 -4l-7 57l77 9q1 9 5.5 34.5t4.5 45.5v431q0 16 -4.5 43t-5.5 38l-76 8l5 53l42 -3q46 -2 68 -2t52 2l25 2l5 -6q15 -36 44.5 -99t37.5 -74l262 -367v395
q0 19 -4.5 47t-5.5 43l-77 8l5 54l32 -3q38 -2 81 -2t79 4l46 4l6 -59l-78 -6l-9 -41q-8 -48 -8 -79v-231zM365 922l174 -107l-23 -39l-88 41l-63 25l-63 -25l-88 -41l-23 39z" />
    <glyph glyph-name="Nhungarumlaut" horiz-adv-x="764" 
d="M639 297l-1 -167v-137h-60l-394 563v-389q0 -53 3 -74l4 -36l78 -6l-6 -55l-36 2q-46 2 -82.5 2t-71.5 -5l-36 -4l-7 57l77 9q1 9 5.5 34.5t4.5 45.5v431q0 16 -4.5 43t-5.5 38l-76 8l5 53l42 -3q46 -2 68 -2t52 2l25 2l5 -6q15 -36 44.5 -99t37.5 -74l262 -367v395
q0 19 -4.5 47t-5.5 43l-77 8l5 54l32 -3q38 -2 81 -2t79 4l46 4l6 -59l-78 -6l-9 -41q-8 -48 -8 -79v-231zM412 942l41 -67q-18 -9 -48.5 -22t-48.5 -21q-41 -18 -46 -19l-81 -50l-27 43zM652 942l41 -67q-18 -9 -48.5 -22t-48.5 -21q-41 -17 -46 -19l-81 -50l-27 43z" />
    <glyph glyph-name="Nmacron" horiz-adv-x="764" 
d="M639 297l-1 -167v-137h-60l-394 563v-389q0 -53 3 -74l4 -36l78 -6l-6 -55l-36 2q-46 2 -82.5 2t-71.5 -5l-36 -4l-7 57l77 9q1 9 5.5 34.5t4.5 45.5v431q0 16 -4.5 43t-5.5 38l-76 8l5 53l42 -3q46 -2 68 -2t52 2l25 2l5 -6q15 -36 44.5 -99t37.5 -74l262 -367v395
q0 19 -4.5 47t-5.5 43l-77 8l5 54l32 -3q38 -2 81 -2t79 4l46 4l6 -59l-78 -6l-9 -41q-8 -48 -8 -79v-231zM206 811v53h322l-5 -53h-317z" />
    <glyph glyph-name="Odotaccent" horiz-adv-x="746" 
d="M616.5 620q84.5 -100 84.5 -267.5t-84.5 -267.5t-243.5 -100t-243.5 100t-84.5 267.5t84.5 267.5t243.5 100t243.5 -100zM152 352q0 -138 57 -226t164 -88t164 88t57 226t-57 226.5t-164 88.5t-164 -88.5t-57 -226.5zM330 887.5q15 17.5 43.5 17.5t44 -17t15.5 -47.5
t-15 -47.5t-44 -17t-44 17t-15 47t15 47.5z" />
    <glyph glyph-name="Oring" horiz-adv-x="746" 
d="M616.5 620q84.5 -100 84.5 -267.5t-84.5 -267.5t-243.5 -100t-243.5 100t-84.5 267.5t84.5 267.5t243.5 100t243.5 -100zM152 352q0 -138 57 -226t164 -88t164 88t57 226t-57 226.5t-164 88.5t-164 -88.5t-57 -226.5zM440.5 913q22.5 -23 22.5 -62.5t-22.5 -62.5
t-66.5 -23t-67 23t-23 62.5t23 62.5t67 23t66.5 -23zM416 850.5q0 47.5 -41.5 47.5t-41.5 -47.5t41.5 -47.5t41.5 47.5z" />
    <glyph glyph-name="Rdotaccent" horiz-adv-x="617" 
d="M136 705l184 10q104 0 162 -50.5t58 -147.5q0 -69 -41.5 -117t-109.5 -68q79 -157 106 -201q0 -1 50 -72l67 -11l-4 -52l-37 2q-42 2 -57.5 2t-51.5 -4l-6 4q-40 91 -55 116l-104 204q-60 0 -88 1v-154q0 -52 3 -73l4 -36l68 -7l-6 -55l-38 2q-46 2 -85 2t-77 -5l-41 -4
l-7 57l77 9q1 9 5.5 34.5t4.5 45.5v431q0 15 -4.5 40.5t-5.5 39.5l-77 12l5 50l32 -3q38 -2 63 -2h6zM277 371q77 0 121.5 37.5t44.5 109.5t-44 109.5t-121 37.5q-22 0 -62 -5v-2l-4 -41q-3 -24 -3 -79v-164q25 -3 68 -3zM227 887.5q15 17.5 43.5 17.5t44 -17t15.5 -47.5
t-15 -47.5t-44 -17t-44 17t-15 47t15 47.5z" />
    <glyph glyph-name="Rring" horiz-adv-x="617" 
d="M136 705l184 10q104 0 162 -50.5t58 -147.5q0 -69 -41.5 -117t-109.5 -68q79 -157 106 -201q0 -1 50 -72l67 -11l-4 -52l-37 2q-42 2 -57.5 2t-51.5 -4l-6 4q-40 91 -55 116l-104 204q-60 0 -88 1v-154q0 -52 3 -73l4 -36l68 -7l-6 -55l-38 2q-46 2 -85 2t-77 -5l-41 -4
l-7 57l77 9q1 9 5.5 34.5t4.5 45.5v431q0 15 -4.5 40.5t-5.5 39.5l-77 12l5 50l32 -3q38 -2 63 -2h6zM277 371q77 0 121.5 37.5t44.5 109.5t-44 109.5t-121 37.5q-22 0 -62 -5v-2l-4 -41q-3 -24 -3 -79v-164q25 -3 68 -3zM337.5 913q22.5 -23 22.5 -62.5t-22.5 -62.5
t-66.5 -23t-67 23t-23 62.5t23 62.5t67 23t66.5 -23zM313 850.5q0 47.5 -41.5 47.5t-41.5 -47.5t41.5 -47.5t41.5 47.5z" />
    <glyph glyph-name="Rgrave" horiz-adv-x="617" 
d="M136 705l184 10q104 0 162 -50.5t58 -147.5q0 -69 -41.5 -117t-109.5 -68q79 -157 106 -201q0 -1 50 -72l67 -11l-4 -52l-37 2q-42 2 -57.5 2t-51.5 -4l-6 4q-40 91 -55 116l-104 204q-60 0 -88 1v-154q0 -52 3 -73l4 -36l68 -7l-6 -55l-38 2q-46 2 -85 2t-77 -5l-41 -4
l-7 57l77 9q1 9 5.5 34.5t4.5 45.5v431q0 15 -4.5 40.5t-5.5 39.5l-77 12l5 50l32 -3q38 -2 63 -2h6zM277 371q77 0 121.5 37.5t44.5 109.5t-44 109.5t-121 37.5q-22 0 -62 -5v-2l-4 -41q-3 -24 -3 -79v-164q25 -3 68 -3zM99 854l30 73l229 -100l-20 -48l-88 37z" />
    <glyph glyph-name="Rdieresis" horiz-adv-x="617" 
d="M136 705l184 10q104 0 162 -50.5t58 -147.5q0 -69 -41.5 -117t-109.5 -68q79 -157 106 -201q0 -1 50 -72l67 -11l-4 -52l-37 2q-42 2 -57.5 2t-51.5 -4l-6 4q-40 91 -55 116l-104 204q-60 0 -88 1v-154q0 -52 3 -73l4 -36l68 -7l-6 -55l-38 2q-46 2 -85 2t-77 -5l-41 -4
l-7 57l77 9q1 9 5.5 34.5t4.5 45.5v431q0 15 -4.5 40.5t-5.5 39.5l-77 12l5 50l32 -3q38 -2 63 -2h6zM277 371q77 0 121.5 37.5t44.5 109.5t-44 109.5t-121 37.5q-22 0 -62 -5v-2l-4 -41q-3 -24 -3 -79v-164q25 -3 68 -3zM148 912q54 0 54 -59.5t-54 -59.5t-54 59
q0 28 14 44t40 16zM394 912q54 0 54 -59.5t-54 -59.5t-54 59q0 28 14 44t40 16z" />
    <glyph glyph-name="Rbreve" horiz-adv-x="617" 
d="M136 705l184 10q104 0 162 -50.5t58 -147.5q0 -69 -41.5 -117t-109.5 -68q79 -157 106 -201q0 -1 50 -72l67 -11l-4 -52l-37 2q-42 2 -57.5 2t-51.5 -4l-6 4q-40 91 -55 116l-104 204q-60 0 -88 1v-154q0 -52 3 -73l4 -36l68 -7l-6 -55l-38 2q-46 2 -85 2t-77 -5l-41 -4
l-7 57l77 9q1 9 5.5 34.5t4.5 45.5v431q0 15 -4.5 40.5t-5.5 39.5l-77 12l5 50l32 -3q38 -2 63 -2h6zM277 371q77 0 121.5 37.5t44.5 109.5t-44 109.5t-121 37.5q-22 0 -62 -5v-2l-4 -41q-3 -24 -3 -79v-164q25 -3 68 -3zM271 832q38 0 60.5 23t22.5 61h56q0 -68 -35.5 -104
t-103.5 -36t-103.5 36t-35.5 104h56q0 -38 22.5 -61t60.5 -23z" />
    <glyph glyph-name="Rcircumflex" horiz-adv-x="617" 
d="M136 705l184 10q104 0 162 -50.5t58 -147.5q0 -69 -41.5 -117t-109.5 -68q79 -157 106 -201q0 -1 50 -72l67 -11l-4 -52l-37 2q-42 2 -57.5 2t-51.5 -4l-6 4q-40 91 -55 116l-104 204q-60 0 -88 1v-154q0 -52 3 -73l4 -36l68 -7l-6 -55l-38 2q-46 2 -85 2t-77 -5l-41 -4
l-7 57l77 9q1 9 5.5 34.5t4.5 45.5v431q0 15 -4.5 40.5t-5.5 39.5l-77 12l5 50l32 -3q38 -2 63 -2h6zM277 371q77 0 121.5 37.5t44.5 109.5t-44 109.5t-121 37.5q-22 0 -62 -5v-2l-4 -41q-3 -24 -3 -79v-164q25 -3 68 -3zM271 922l174 -107l-23 -39l-88 41l-63 25l-63 -25
l-88 -41l-23 39z" />
    <glyph glyph-name="Rhungarumlaut" horiz-adv-x="617" 
d="M136 705l184 10q104 0 162 -50.5t58 -147.5q0 -69 -41.5 -117t-109.5 -68q79 -157 106 -201q0 -1 50 -72l67 -11l-4 -52l-37 2q-42 2 -57.5 2t-51.5 -4l-6 4q-40 91 -55 116l-104 204q-60 0 -88 1v-154q0 -52 3 -73l4 -36l68 -7l-6 -55l-38 2q-46 2 -85 2t-77 -5l-41 -4
l-7 57l77 9q1 9 5.5 34.5t4.5 45.5v431q0 15 -4.5 40.5t-5.5 39.5l-77 12l5 50l32 -3q38 -2 63 -2h6zM277 371q77 0 121.5 37.5t44.5 109.5t-44 109.5t-121 37.5q-22 0 -62 -5v-2l-4 -41q-3 -24 -3 -79v-164q25 -3 68 -3zM318 942l41 -67q-18 -9 -48.5 -22t-48.5 -21
q-42 -18 -46 -19l-81 -50l-27 43zM558 942l41 -67q-18 -9 -48.5 -22t-48.5 -21q-41 -17 -46 -19l-81 -50l-27 43z" />
    <glyph glyph-name="Rtilde" horiz-adv-x="617" 
d="M136 705l184 10q104 0 162 -50.5t58 -147.5q0 -69 -41.5 -117t-109.5 -68q79 -157 106 -201q0 -1 50 -72l67 -11l-4 -52l-37 2q-42 2 -57.5 2t-51.5 -4l-6 4q-40 91 -55 116l-104 204q-60 0 -88 1v-154q0 -52 3 -73l4 -36l68 -7l-6 -55l-38 2q-46 2 -85 2t-77 -5l-41 -4
l-7 57l77 9q1 9 5.5 34.5t4.5 45.5v431q0 15 -4.5 40.5t-5.5 39.5l-77 12l5 50l32 -3q38 -2 63 -2h6zM277 371q77 0 121.5 37.5t44.5 109.5t-44 109.5t-121 37.5q-22 0 -62 -5v-2l-4 -41q-3 -24 -3 -79v-164q25 -3 68 -3zM439 900q-47 -98 -83 -98q-20 0 -82 20.5t-79 20.5
t-40 -27q-7 -10 -16 -27l-36 21q9 22 26 50q31 51 53.5 51t85 -20.5t80.5 -20.5t39 25q7 8 16 26z" />
    <glyph glyph-name="Rmacron" horiz-adv-x="617" 
d="M136 705l184 10q104 0 162 -50.5t58 -147.5q0 -69 -41.5 -117t-109.5 -68q79 -157 106 -201q0 -1 50 -72l67 -11l-4 -52l-37 2q-42 2 -57.5 2t-51.5 -4l-6 4q-40 91 -55 116l-104 204q-60 0 -88 1v-154q0 -52 3 -73l4 -36l68 -7l-6 -55l-38 2q-46 2 -85 2t-77 -5l-41 -4
l-7 57l77 9q1 9 5.5 34.5t4.5 45.5v431q0 15 -4.5 40.5t-5.5 39.5l-77 12l5 50l32 -3q38 -2 63 -2h6zM277 371q77 0 121.5 37.5t44.5 109.5t-44 109.5t-121 37.5q-22 0 -62 -5v-2l-4 -41q-3 -24 -3 -79v-164q25 -3 68 -3zM112 811v53h322l-5 -53h-317z" />
    <glyph glyph-name="Sring" horiz-adv-x="549" 
d="M349 263q-33 25 -75 46l-45 23l-6 2q-82 40 -127 84.5t-45 124t60.5 128.5t145.5 49t213 -32l-14 -147l-59 6v40q0 10 -14 56q-53 22 -110 22t-89.5 -29t-32.5 -82q0 -52 50 -90q35 -25 74.5 -44.5t41.5 -20.5q47 -24 74 -41t56 -42q57 -51 57 -140.5t-67 -140
t-160.5 -50.5t-171.5 26q-33 11 -60 27l15 154l66 -6v-48q0 -15 11 -66q63 -27 127 -27t99.5 32.5t35.5 90t-50 95.5zM362.5 913q22.5 -23 22.5 -62.5t-22.5 -62.5t-66.5 -23t-67 23t-23 62.5t23 62.5t67 23t66.5 -23zM338 850.5q0 47.5 -41.5 47.5t-41.5 -47.5t41.5 -47.5
t41.5 47.5z" />
    <glyph glyph-name="Sgrave" horiz-adv-x="549" 
d="M349 263q-33 25 -75 46l-45 23l-6 2q-82 40 -127 84.5t-45 124t60.5 128.5t145.5 49t213 -32l-14 -147l-59 6v40q0 10 -14 56q-53 22 -110 22t-89.5 -29t-32.5 -82q0 -52 50 -90q35 -25 74.5 -44.5t41.5 -20.5q47 -24 74 -41t56 -42q57 -51 57 -140.5t-67 -140
t-160.5 -50.5t-171.5 26q-33 11 -60 27l15 154l66 -6v-48q0 -15 11 -66q63 -27 127 -27t99.5 32.5t35.5 90t-50 95.5zM124 854l30 73l229 -100l-20 -48l-88 37z" />
    <glyph glyph-name="Sdieresis" horiz-adv-x="549" 
d="M349 263q-33 25 -75 46l-45 23l-6 2q-82 40 -127 84.5t-45 124t60.5 128.5t145.5 49t213 -32l-14 -147l-59 6v40q0 10 -14 56q-53 22 -110 22t-89.5 -29t-32.5 -82q0 -52 50 -90q35 -25 74.5 -44.5t41.5 -20.5q47 -24 74 -41t56 -42q57 -51 57 -140.5t-67 -140
t-160.5 -50.5t-171.5 26q-33 11 -60 27l15 154l66 -6v-48q0 -15 11 -66q63 -27 127 -27t99.5 32.5t35.5 90t-50 95.5zM173 912q54 0 54 -59.5t-54 -59.5t-54 59q0 28 14 44t40 16zM419 912q54 0 54 -59.5t-54 -59.5t-54 59q0 28 14 44t40 16z" />
    <glyph glyph-name="Sbreve" horiz-adv-x="549" 
d="M349 263q-33 25 -75 46l-45 23l-6 2q-82 40 -127 84.5t-45 124t60.5 128.5t145.5 49t213 -32l-14 -147l-59 6v40q0 10 -14 56q-53 22 -110 22t-89.5 -29t-32.5 -82q0 -52 50 -90q35 -25 74.5 -44.5t41.5 -20.5q47 -24 74 -41t56 -42q57 -51 57 -140.5t-67 -140
t-160.5 -50.5t-171.5 26q-33 11 -60 27l15 154l66 -6v-48q0 -15 11 -66q63 -27 127 -27t99.5 32.5t35.5 90t-50 95.5zM296 832q38 0 60.5 23t22.5 61h56q0 -68 -35.5 -104t-103.5 -36t-103.5 36t-35.5 104h56q0 -38 22.5 -61t60.5 -23z" />
    <glyph glyph-name="Shungarumlaut" horiz-adv-x="549" 
d="M349 263q-33 25 -75 46l-45 23l-6 2q-82 40 -127 84.5t-45 124t60.5 128.5t145.5 49t213 -32l-14 -147l-59 6v40q0 10 -14 56q-53 22 -110 22t-89.5 -29t-32.5 -82q0 -52 50 -90q35 -25 74.5 -44.5t41.5 -20.5q47 -24 74 -41t56 -42q57 -51 57 -140.5t-67 -140
t-160.5 -50.5t-171.5 26q-33 11 -60 27l15 154l66 -6v-48q0 -15 11 -66q63 -27 127 -27t99.5 32.5t35.5 90t-50 95.5zM343 942l41 -67q-18 -9 -48.5 -22t-47.5 -21q-42 -17 -47 -19l-81 -50l-27 43zM583 942l41 -67q-18 -9 -48.5 -22t-47.5 -21q-43 -18 -47 -19l-81 -50
l-27 43z" />
    <glyph glyph-name="Stilde" horiz-adv-x="549" 
d="M349 263q-33 25 -75 46l-45 23l-6 2q-82 40 -127 84.5t-45 124t60.5 128.5t145.5 49t213 -32l-14 -147l-59 6v40q0 10 -14 56q-53 22 -110 22t-89.5 -29t-32.5 -82q0 -52 50 -90q35 -25 74.5 -44.5t41.5 -20.5q47 -24 74 -41t56 -42q57 -51 57 -140.5t-67 -140
t-160.5 -50.5t-171.5 26q-33 11 -60 27l15 154l66 -6v-48q0 -15 11 -66q63 -27 127 -27t99.5 32.5t35.5 90t-50 95.5zM464 900q-47 -98 -83 -98q-20 0 -82 20.5t-79 20.5t-40 -27q-8 -10 -16 -27l-36 21q9 22 26 50q31 51 53.5 51t85 -20.5t80.5 -20.5t39 25q7 8 16 26z" />
    <glyph glyph-name="Smacron" horiz-adv-x="549" 
d="M349 263q-33 25 -75 46l-45 23l-6 2q-82 40 -127 84.5t-45 124t60.5 128.5t145.5 49t213 -32l-14 -147l-59 6v40q0 10 -14 56q-53 22 -110 22t-89.5 -29t-32.5 -82q0 -52 50 -90q35 -25 74.5 -44.5t41.5 -20.5q47 -24 74 -41t56 -42q57 -51 57 -140.5t-67 -140
t-160.5 -50.5t-171.5 26q-33 11 -60 27l15 154l66 -6v-48q0 -15 11 -66q63 -27 127 -27t99.5 32.5t35.5 90t-50 95.5zM137 811v53h322l-5 -53h-317z" />
    <glyph glyph-name="Tring" horiz-adv-x="606" 
d="M355 649l-6 -111v-371q0 -52 3 -73l4 -35l88 -8l-6 -55l-58 2q-66 2 -100 2t-72 -2l-32 -2l-5 52l77 9q1 9 5.5 34.5t4.5 45.5v431q0 12 -4 43.5t-6 37.5h-78q-47 -2 -67 -5q-18 -26 -20 -35.5t-10 -52.5l-58 5l7 143l10 11q97 -10 123 -10h296q26 0 123 10l10 -11
l7 -143l-58 -5q-8 43 -12 56t-19 32q-19 3 -66 5h-81zM373.5 913q22.5 -23 22.5 -62.5t-22.5 -62.5t-66.5 -23t-67 23t-23 62.5t23 62.5t67 23t66.5 -23zM349 850.5q0 47.5 -41.5 47.5t-41.5 -47.5t41.5 -47.5t41.5 47.5z" />
    <glyph glyph-name="Tgrave" horiz-adv-x="606" 
d="M355 649l-6 -111v-371q0 -52 3 -73l4 -35l88 -8l-6 -55l-58 2q-66 2 -100 2t-72 -2l-32 -2l-5 52l77 9q1 9 5.5 34.5t4.5 45.5v431q0 12 -4 43.5t-6 37.5h-78q-47 -2 -67 -5q-18 -26 -20 -35.5t-10 -52.5l-58 5l7 143l10 11q97 -10 123 -10h296q26 0 123 10l10 -11
l7 -143l-58 -5q-8 43 -12 56t-19 32q-19 3 -66 5h-81zM135 854l30 73l229 -100l-20 -48l-88 37z" />
    <glyph glyph-name="Tdieresis" horiz-adv-x="606" 
d="M355 649l-6 -111v-371q0 -52 3 -73l4 -35l88 -8l-6 -55l-58 2q-66 2 -100 2t-72 -2l-32 -2l-5 52l77 9q1 9 5.5 34.5t4.5 45.5v431q0 12 -4 43.5t-6 37.5h-78q-47 -2 -67 -5q-18 -26 -20 -35.5t-10 -52.5l-58 5l7 143l10 11q97 -10 123 -10h296q26 0 123 10l10 -11
l7 -143l-58 -5q-8 43 -12 56t-19 32q-19 3 -66 5h-81zM184 912q54 0 54 -59.5t-54 -59.5t-54 59q0 28 14 44t40 16zM430 912q54 0 54 -59.5t-54 -59.5t-54 59q0 28 14 44t40 16z" />
    <glyph glyph-name="Tbreve" horiz-adv-x="606" 
d="M355 649l-6 -111v-371q0 -52 3 -73l4 -35l88 -8l-6 -55l-58 2q-66 2 -100 2t-72 -2l-32 -2l-5 52l77 9q1 9 5.5 34.5t4.5 45.5v431q0 12 -4 43.5t-6 37.5h-78q-47 -2 -67 -5q-18 -26 -20 -35.5t-10 -52.5l-58 5l7 143l10 11q97 -10 123 -10h296q26 0 123 10l10 -11
l7 -143l-58 -5q-8 43 -12 56t-19 32q-19 3 -66 5h-81zM307 832q38 0 60.5 23t22.5 61h56q0 -68 -35.5 -104t-103.5 -36t-103.5 36t-35.5 104h56q0 -38 22.5 -61t60.5 -23z" />
    <glyph glyph-name="Tcircumflex" horiz-adv-x="606" 
d="M355 649l-6 -111v-371q0 -52 3 -73l4 -35l88 -8l-6 -55l-58 2q-66 2 -100 2t-72 -2l-32 -2l-5 52l77 9q1 9 5.5 34.5t4.5 45.5v431q0 12 -4 43.5t-6 37.5h-78q-47 -2 -67 -5q-18 -26 -20 -35.5t-10 -52.5l-58 5l7 143l10 11q97 -10 123 -10h296q26 0 123 10l10 -11
l7 -143l-58 -5q-8 43 -12 56t-19 32q-19 3 -66 5h-81zM307 922l174 -107l-23 -39l-88 41l-63 25l-63 -25l-88 -41l-23 39z" />
    <glyph glyph-name="Thungarumlaut" horiz-adv-x="606" 
d="M355 649l-6 -111v-371q0 -52 3 -73l4 -35l88 -8l-6 -55l-58 2q-66 2 -100 2t-72 -2l-32 -2l-5 52l77 9q1 9 5.5 34.5t4.5 45.5v431q0 12 -4 43.5t-6 37.5h-78q-47 -2 -67 -5q-18 -26 -20 -35.5t-10 -52.5l-58 5l7 143l10 11q97 -10 123 -10h296q26 0 123 10l10 -11
l7 -143l-58 -5q-8 43 -12 56t-19 32q-19 3 -66 5h-81zM354 942l41 -67q-18 -9 -48.5 -22t-48.5 -21q-41 -17 -46 -19l-81 -50l-27 43zM594 942l41 -67q-18 -9 -48.5 -22t-48.5 -21q-42 -18 -46 -19l-81 -50l-27 43z" />
    <glyph glyph-name="Tacute" horiz-adv-x="606" 
d="M355 649l-6 -111v-371q0 -52 3 -73l4 -35l88 -8l-6 -55l-58 2q-66 2 -100 2t-72 -2l-32 -2l-5 52l77 9q1 9 5.5 34.5t4.5 45.5v431q0 12 -4 43.5t-6 37.5h-78q-47 -2 -67 -5q-18 -26 -20 -35.5t-10 -52.5l-58 5l7 143l10 11q97 -10 123 -10h296q26 0 123 10l10 -11
l7 -143l-58 -5q-8 43 -12 56t-19 32q-19 3 -66 5h-81zM449 927l30 -73l-68 -17q-14 -4 -34 -8.5t-32.5 -8t-16.5 -4.5l-88 -37l-20 48z" />
    <glyph glyph-name="Ttilde" horiz-adv-x="606" 
d="M355 649l-6 -111v-371q0 -52 3 -73l4 -35l88 -8l-6 -55l-58 2q-66 2 -100 2t-72 -2l-32 -2l-5 52l77 9q1 9 5.5 34.5t4.5 45.5v431q0 12 -4 43.5t-6 37.5h-78q-47 -2 -67 -5q-18 -26 -20 -35.5t-10 -52.5l-58 5l7 143l10 11q97 -10 123 -10h296q26 0 123 10l10 -11
l7 -143l-58 -5q-8 43 -12 56t-19 32q-19 3 -66 5h-81zM475 900q-47 -98 -83 -98q-20 0 -82 20.5t-79 20.5t-40 -27q-7 -10 -16 -27l-36 21q9 22 26 50q31 51 53.5 51t85 -20.5t80.5 -20.5t39 25q7 8 16 26z" />
    <glyph glyph-name="Tmacron" horiz-adv-x="606" 
d="M355 649l-6 -111v-371q0 -52 3 -73l4 -35l88 -8l-6 -55l-58 2q-66 2 -100 2t-72 -2l-32 -2l-5 52l77 9q1 9 5.5 34.5t4.5 45.5v431q0 12 -4 43.5t-6 37.5h-78q-47 -2 -67 -5q-18 -26 -20 -35.5t-10 -52.5l-58 5l7 143l10 11q97 -10 123 -10h296q26 0 123 10l10 -11
l7 -143l-58 -5q-8 43 -12 56t-19 32q-19 3 -66 5h-81zM148 811v53h322l-5 -53h-317z" />
    <glyph glyph-name="Udotaccent" horiz-adv-x="749" 
d="M562 275v288q0 12 -5 41.5t-6 43.5l-76 8l5 54l24 -3q30 -2 78 -2t85 4l46 4l6 -59l-78 -6l-4 -39q-3 -23 -3 -76v-258q0 -132 -67 -211t-191.5 -79t-191.5 81t-67 214v283q0 18 -4.5 44.5t-5.5 40.5l-77 12l5 50l32 -3q38 -2 83.5 -2t86.5 4l54 4l6 -59l-78 -6l-4 -39
q-3 -23 -3 -76v-258q0 -100 45 -163t129 -63t130 63.5t46 162.5zM342 887.5q15 17.5 43.5 17.5t44 -17t15.5 -47.5t-15 -47.5t-44 -17t-44 17t-15 47t15 47.5z" />
    <glyph glyph-name="Wring" horiz-adv-x="995" 
d="M330 167l151 529h46l182 -529l108 411q4 19 10 66l-73 10l5 57l35 -3q19 -3 68.5 -3t87.5 3l39 4l1 -61l-57 -7q-46 -73 -50 -99l-162 -545h-51l-180 507q-21 -69 -69 -240.5t-80 -266.5h-51l-196 559q-33 60 -49 88l-40 4l4 59l40 -3q46 -2 85.5 -2t76.5 3l39 4l2 -63
l-75 -7q25 -104 30 -116zM560.5 913q22.5 -23 22.5 -62.5t-22.5 -62.5t-66.5 -23t-67 23t-23 62.5t23 62.5t67 23t66.5 -23zM536 850.5q0 47.5 -41.5 47.5t-41.5 -47.5t41.5 -47.5t41.5 47.5z" />
    <glyph glyph-name="Wbreve" horiz-adv-x="995" 
d="M330 167l151 529h46l182 -529l108 411q4 19 10 66l-73 10l5 57l35 -3q19 -3 68.5 -3t87.5 3l39 4l1 -61l-57 -7q-46 -73 -50 -99l-162 -545h-51l-180 507q-21 -69 -69 -240.5t-80 -266.5h-51l-196 559q-33 60 -49 88l-40 4l4 59l40 -3q46 -2 85.5 -2t76.5 3l39 4l2 -63
l-75 -7q25 -104 30 -116zM494 832q38 0 60.5 23t22.5 61h56q0 -68 -35.5 -104t-103.5 -36t-103.5 36t-35.5 104h56q0 -38 22.5 -61t60.5 -23z" />
    <glyph glyph-name="Wcaron" horiz-adv-x="995" 
d="M330 167l151 529h46l182 -529l108 411q4 19 10 66l-73 10l5 57l35 -3q19 -3 68.5 -3t87.5 3l39 4l1 -61l-57 -7q-46 -73 -50 -99l-162 -545h-51l-180 507q-21 -69 -69 -240.5t-80 -266.5h-51l-196 559q-33 60 -49 88l-40 4l4 59l40 -3q46 -2 85.5 -2t76.5 3l39 4l2 -63
l-75 -7q25 -104 30 -116zM668 883l-174 -107l-174 107l23 39l88 -41l63 -25l63 25l88 41z" />
    <glyph glyph-name="Whungarumlaut" horiz-adv-x="995" 
d="M330 167l151 529h46l182 -529l108 411q4 19 10 66l-73 10l5 57l35 -3q19 -3 68.5 -3t87.5 3l39 4l1 -61l-57 -7q-46 -73 -50 -99l-162 -545h-51l-180 507q-21 -69 -69 -240.5t-80 -266.5h-51l-196 559q-33 60 -49 88l-40 4l4 59l40 -3q46 -2 85.5 -2t76.5 3l39 4l2 -63
l-75 -7q25 -104 30 -116zM541 942l41 -67q-18 -9 -48.5 -22t-47.5 -21q-43 -18 -47 -19l-81 -50l-27 43zM781 942l41 -67q-18 -9 -48.5 -22t-47.5 -21q-43 -18 -47 -19l-81 -50l-27 43z" />
    <glyph glyph-name="Wtilde" horiz-adv-x="995" 
d="M330 167l151 529h46l182 -529l108 411q4 19 10 66l-73 10l5 57l35 -3q19 -3 68.5 -3t87.5 3l39 4l1 -61l-57 -7q-46 -73 -50 -99l-162 -545h-51l-180 507q-21 -69 -69 -240.5t-80 -266.5h-51l-196 559q-33 60 -49 88l-40 4l4 59l40 -3q46 -2 85.5 -2t76.5 3l39 4l2 -63
l-75 -7q25 -104 30 -116zM662 900q-47 -98 -83 -98q-20 0 -82 20.5t-79 20.5t-40 -27q-8 -10 -16 -27l-36 21q9 22 26 50q31 51 53.5 51t85 -20.5t80.5 -20.5t39 25q7 8 16 26z" />
    <glyph glyph-name="Wmacron" horiz-adv-x="995" 
d="M330 167l151 529h46l182 -529l108 411q4 19 10 66l-73 10l5 57l35 -3q19 -3 68.5 -3t87.5 3l39 4l1 -61l-57 -7q-46 -73 -50 -99l-162 -545h-51l-180 507q-21 -69 -69 -240.5t-80 -266.5h-51l-196 559q-33 60 -49 88l-40 4l4 59l40 -3q46 -2 85.5 -2t76.5 3l39 4l2 -63
l-75 -7q25 -104 30 -116zM335 811v53h322l-5 -53h-317z" />
    <glyph glyph-name="Yring" horiz-adv-x="645" 
d="M184 48l77 9q1 9 5.5 34.5t4.5 45.5v133l-152 289q-25 33 -74 88l-40 4l4 59l40 -3q46 -2 85.5 -2t76.5 3l39 4l2 -63l-63 -6q36 -100 45 -117l92 -180l118 232q5 10 24 68l-64 8l5 57l35 -3q19 -3 68.5 -3t87.5 3l39 4l1 -61l-68 -9l-76 -96l-132 -254v-125q0 -53 3 -74
l4 -36l78 -6l-6 -55l-53 2q-62 2 -96.5 2t-72.5 -2l-32 -2zM391.5 913q22.5 -23 22.5 -62.5t-22.5 -62.5t-66.5 -23t-67 23t-23 62.5t23 62.5t67 23t66.5 -23zM367 850.5q0 47.5 -41.5 47.5t-41.5 -47.5t41.5 -47.5t41.5 47.5z" />
    <glyph glyph-name="Ybreve" horiz-adv-x="645" 
d="M184 48l77 9q1 9 5.5 34.5t4.5 45.5v133l-152 289q-25 33 -74 88l-40 4l4 59l40 -3q46 -2 85.5 -2t76.5 3l39 4l2 -63l-63 -6q36 -100 45 -117l92 -180l118 232q5 10 24 68l-64 8l5 57l35 -3q19 -3 68.5 -3t87.5 3l39 4l1 -61l-68 -9l-76 -96l-132 -254v-125q0 -53 3 -74
l4 -36l78 -6l-6 -55l-53 2q-62 2 -96.5 2t-72.5 -2l-32 -2zM325 832q38 0 60.5 23t22.5 61h56q0 -68 -35.5 -104t-103.5 -36t-103.5 36t-35.5 104h56q0 -38 22.5 -61t60.5 -23z" />
    <glyph glyph-name="Ycaron" horiz-adv-x="645" 
d="M184 48l77 9q1 9 5.5 34.5t4.5 45.5v133l-152 289q-25 33 -74 88l-40 4l4 59l40 -3q46 -2 85.5 -2t76.5 3l39 4l2 -63l-63 -6q36 -100 45 -117l92 -180l118 232q5 10 24 68l-64 8l5 57l35 -3q19 -3 68.5 -3t87.5 3l39 4l1 -61l-68 -9l-76 -96l-132 -254v-125q0 -53 3 -74
l4 -36l78 -6l-6 -55l-53 2q-62 2 -96.5 2t-72.5 -2l-32 -2zM499 883l-174 -107l-174 107l23 39l88 -41l63 -25l63 25l88 41z" />
    <glyph glyph-name="Yhungarumlaut" horiz-adv-x="645" 
d="M184 48l77 9q1 9 5.5 34.5t4.5 45.5v133l-152 289q-25 33 -74 88l-40 4l4 59l40 -3q46 -2 85.5 -2t76.5 3l39 4l2 -63l-63 -6q36 -100 45 -117l92 -180l118 232q5 10 24 68l-64 8l5 57l35 -3q19 -3 68.5 -3t87.5 3l39 4l1 -61l-68 -9l-76 -96l-132 -254v-125q0 -53 3 -74
l4 -36l78 -6l-6 -55l-53 2q-62 2 -96.5 2t-72.5 -2l-32 -2zM372 942l41 -67q-18 -9 -48.5 -22t-48.5 -21q-42 -18 -46 -19l-81 -50l-27 43zM612 942l41 -67q-18 -9 -48.5 -22t-48.5 -21q-42 -18 -46 -19l-81 -50l-27 43z" />
    <glyph glyph-name="Ymacron" horiz-adv-x="645" 
d="M184 48l77 9q1 9 5.5 34.5t4.5 45.5v133l-152 289q-25 33 -74 88l-40 4l4 59l40 -3q46 -2 85.5 -2t76.5 3l39 4l2 -63l-63 -6q36 -100 45 -117l92 -180l118 232q5 10 24 68l-64 8l5 57l35 -3q19 -3 68.5 -3t87.5 3l39 4l1 -61l-68 -9l-76 -96l-132 -254v-125q0 -53 3 -74
l4 -36l78 -6l-6 -55l-53 2q-62 2 -96.5 2t-72.5 -2l-32 -2zM166 811v53h322l-5 -53h-317z" />
    <glyph glyph-name="Zring" horiz-adv-x="551" 
d="M61 715q98 -10 123 -10h331l7 -56q-84 -119 -109 -155l-186 -303l-70 -132h196q29 0 91 12q12 18 17 32l15 77l55 -5l-15 -168l-10 -11l-54 2q-56 2 -69 2h-356l-7 57l52 66q55 71 71 96l189 301l67 126h-185q-14 0 -86 -8q-14 -21 -15.5 -29t-5.5 -33.5t-5 -29.5l-58 5
l7 153zM363.5 913q22.5 -23 22.5 -62.5t-22.5 -62.5t-66.5 -23t-67 23t-23 62.5t23 62.5t67 23t66.5 -23zM339 850.5q0 47.5 -41.5 47.5t-41.5 -47.5t41.5 -47.5t41.5 47.5z" />
    <glyph glyph-name="Zgrave" horiz-adv-x="551" 
d="M61 715q98 -10 123 -10h331l7 -56q-84 -119 -109 -155l-186 -303l-70 -132h196q29 0 91 12q12 18 17 32l15 77l55 -5l-15 -168l-10 -11l-54 2q-56 2 -69 2h-356l-7 57l52 66q55 71 71 96l189 301l67 126h-185q-14 0 -86 -8q-14 -21 -15.5 -29t-5.5 -33.5t-5 -29.5l-58 5
l7 153zM125 854l30 73l229 -100l-20 -48l-88 37z" />
    <glyph glyph-name="Zdieresis" horiz-adv-x="551" 
d="M61 715q98 -10 123 -10h331l7 -56q-84 -119 -109 -155l-186 -303l-70 -132h196q29 0 91 12q12 18 17 32l15 77l55 -5l-15 -168l-10 -11l-54 2q-56 2 -69 2h-356l-7 57l52 66q55 71 71 96l189 301l67 126h-185q-14 0 -86 -8q-14 -21 -15.5 -29t-5.5 -33.5t-5 -29.5l-58 5
l7 153zM174 912q54 0 54 -59.5t-54 -59.5t-54 59q0 28 14 44t40 16zM420 912q54 0 54 -59.5t-54 -59.5t-54 59q0 28 14 44t40 16z" />
    <glyph glyph-name="Zbreve" horiz-adv-x="551" 
d="M61 715q98 -10 123 -10h331l7 -56q-84 -119 -109 -155l-186 -303l-70 -132h196q29 0 91 12q12 18 17 32l15 77l55 -5l-15 -168l-10 -11l-54 2q-56 2 -69 2h-356l-7 57l52 66q55 71 71 96l189 301l67 126h-185q-14 0 -86 -8q-14 -21 -15.5 -29t-5.5 -33.5t-5 -29.5l-58 5
l7 153zM297 832q38 0 60.5 23t22.5 61h56q0 -68 -35.5 -104t-103.5 -36t-103.5 36t-35.5 104h56q0 -38 22.5 -61t60.5 -23z" />
    </font>
</defs>
</svg>
